<?xml version="1.0" standalone="no"?>
<!DOCTYPE svg PUBLIC "-//W3C//DTD SVG 1.1//EN" "http://www.w3.org/Graphics/SVG/1.1/DTD/svg11.dtd" >
<svg>
<metadata>
Created by FontForge 20120731 at Mon Nov 11 10:44:12 2013
 By root
Copyright (c) 2009 by Muthu Nedumaran. All rights reserved.
</metadata>
<defs>
<font id="KannadaSangamMN" horiz-adv-x="0" >
  <font-face 
    font-family="Kannada Sangam MN"
    font-weight="400"
    font-stretch="normal"
    units-per-em="2048"
    panose-1="2 0 0 0 0 0 0 0 0 0"
    ascent="1638"
    descent="-410"
    x-height="1018"
    cap-height="1356"
    bbox="-1416 -1185 3376 1532"
    underline-thickness="102"
    underline-position="-103"
    unicode-range="U+0020-25CC"
  />
<missing-glyph 
 />
    <glyph glyph-name="kn_matra_o" unicode="&#xcc6;&#xcc2;" horiz-adv-x="2406" 
d="M1370 118q51 0 80.5 32.5t45 89t20 131.5t4.5 160q0 50 6.5 106.5t22 112t40.5 106t62 88.5t87 61t115 23q89 0 168 -40.5t138.5 -117t94 -187.5t34.5 -252q0 -91 -20.5 -171t-60.5 -140t-97.5 -95t-131.5 -35q-57 0 -98 23.5t-67.5 61t-39 83.5t-12.5 92q0 51 17.5 97.5
t50 82t77 56t98.5 20.5q45 0 85 -15.5t75 -54.5q0 51 -7 105t-22.5 105.5t-40 97.5t-59.5 80.5t-80.5 55t-103.5 20.5q-40 0 -70 -17.5t-52.5 -46.5t-38 -67.5t-25 -80.5t-13.5 -85.5t-4 -82.5q0 -59 -2.5 -121.5t-11.5 -121.5t-27 -111t-49.5 -91t-78.5 -62t-114 -23
q-83 0 -156 39t-118 111l62 138q12 -35 34.5 -64.5t51 -50.5t61.5 -33t65 -12h5zM1062 781l-102 -72q-51 82 -134 132l34 49h-501l35 -49q-84 -49 -134 -132l-102 72q37 61 91 109h-185v128h793q49 0 85 14.5t59.5 40t35 61.5t11.5 79q0 42 -14.5 74t-38 53.5t-54 32.5
t-63.5 11q-26 0 -51 -7t-44 -21t-30.5 -35t-11.5 -50q0 -33 20 -56.5t49 -23.5q6 0 12 4q-3 3 -7.5 11t-4.5 17q0 33 20.5 48.5t48.5 15.5q33 0 54 -23t21 -54q0 -39 -34 -66t-93 -27q-35 0 -64.5 13t-50.5 35.5t-33 52t-12 62.5q0 47 19.5 82.5t51 59.5t71 36.5t79.5 12.5
q67 0 119 -25.5t86.5 -66t52.5 -90t18 -98.5q0 -43 -12 -88t-37.5 -84.5t-65 -70.5t-94.5 -46q63 -51 107 -121zM2008 378q-27 0 -49 -11.5t-37.5 -30t-24 -41.5t-8.5 -45q0 -26 8 -50t23 -42t36.5 -29t48.5 -11q52 0 87.5 38.5t54.5 99.5q-11 40 -27.5 64t-35.5 37t-39 17
t-37 4zM1062 238q-63 -100 -164 -165l-72 104q83 50 134 134zM394 177l-73 -104q-102 66 -163 165l102 73q50 -86 134 -134zM1134 509q0 -57 -12 -115l-125 23q9 43 9 92q0 48 -9 95l125 19q12 -59 12 -114zM724 -2q-56 -13 -115 -13q-28 0 -57 3t-58 10l23 125
q46 -11 93 -11q46 0 93 11zM222 417l-124 -23q-7 28 -10 57t-3 58q0 62 13 114l124 -19q-5 -23 -7.5 -47t-2.5 -48q0 -51 10 -92z" />
    <glyph glyph-name="kn_kssa" unicode="&#xc95;&#xccd;&#xcb7;" horiz-adv-x="1264" 
d="M77 890v128h727q92 0 141.5 41.5t49.5 105.5q0 18 -5.5 37t-14.5 36.5t-20 32.5t-22 26l78 75q51 -50 75.5 -106.5t24.5 -113.5q0 -52 -17.5 -99.5t-54.5 -83.5t-95 -57.5t-139 -21.5h-172v-99h427v-87h-187q86 -56 136.5 -137t50.5 -177q0 -83 -38.5 -156t-105.5 -127
t-156.5 -85.5t-191.5 -31.5t-191.5 31.5t-156 85.5t-105 127t-38.5 156q0 96 50 177t135 137h-185v87h428v99h-428zM205 390q0 -57 28.5 -106.5t77.5 -86t115.5 -58t141.5 -21.5t141.5 21.5t116 58t78 86t28.5 106.5t-28.5 106.5t-78 86.5t-116 58.5t-141.5 21.5
t-141.5 -21.5t-115.5 -58.5t-77.5 -86.5t-28.5 -106.5zM904 54q80 -60 127.5 -124t72.5 -139t32.5 -164t9.5 -200l-98 -14q1 8 1.5 17t0.5 18q0 24 -2.5 49t-6.5 50q-38 -47 -97.5 -73t-135.5 -26q-43 0 -81.5 12t-70 32t-54 47.5t-34.5 59.5q-13 -35 -36.5 -62.5
t-54.5 -47.5t-69.5 -30.5t-81.5 -10.5q-47 0 -93.5 15t-84 47.5t-61 83t-23.5 121.5q0 63 23.5 109t60 76t81 44.5t86.5 14.5l-13 -127q-12 -1 -30.5 -8t-36 -21.5t-30.5 -37t-13 -54.5q0 -39 14 -65t35 -41.5t46 -22t47 -6.5q42 0 73.5 16.5t53 42.5t32.5 58.5t11 64.5h128
q0 -40 13.5 -73.5t36 -57.5t51.5 -37.5t61 -13.5q39 0 72 10t58 30t39 49.5t14 68.5q0 44 -18.5 80t-44 63.5t-52 46.5t-42.5 30z" />
    <glyph glyph-name="kn_jnya" unicode="&#xc9c;&#xccd;&#xc9e;" horiz-adv-x="1456" 
d="M411 -10q-51 0 -106.5 14.5t-102.5 49t-77.5 91.5t-30.5 142q0 70 33 121.5t83 92t108 73t108 64t83 65.5t33 78q0 30 -13 50.5t-33.5 33.5t-45.5 19t-49 6q-42 0 -73.5 -13.5t-53 -34t-34.5 -45t-18 -46.5l-60 22q-23 8 -41 15t-18 8q13 47 38 89t62 74t85 50.5
t108 18.5q92 0 157 -37t94 -106q65 -57 130 -89.5t143 -32.5q48 0 80.5 26t32.5 66q0 21 -8.5 40.5t-19.5 30.5l92 53q29 -27 47 -66.5t18 -75.5q0 -40 -18 -75t-49.5 -61t-75.5 -41t-95 -15q-78 0 -142 26t-115 62q-9 -60 -45.5 -103.5t-86 -77.5t-104.5 -62t-101.5 -58
t-77 -65t-30.5 -82t19.5 -79t49.5 -51.5t66.5 -28t69.5 -8.5q38 0 76.5 16.5t69.5 47t52 74t24 98.5h128q4 -44 18.5 -86.5t41 -75.5t65.5 -53.5t93 -20.5q32 0 64.5 10.5t58.5 32.5t42.5 56t16.5 80t-15.5 76.5t-39 49t-49.5 27.5t-47 12l-16 128q50 0 102.5 -17t95 -52.5
t70 -89.5t27.5 -128q0 -83 -27.5 -142t-71.5 -97t-99 -56t-110 -18q-51 0 -96 12.5t-81.5 35.5t-64 55.5t-42.5 73.5q-13 -40 -42 -72.5t-68.5 -56t-88.5 -36t-103 -12.5zM1122 -177q-21 0 -48 -7t-58 -28q14 -45 14 -95q0 -59 -17.5 -119t-49.5 -116q32 -33 49.5 -72
t17.5 -82q0 -60 -20 -100t-52 -77l-80 68q26 27 39 51t13 50q0 20 -9 38t-25 34q-59 -64 -137.5 -104t-172.5 -40q-59 0 -106.5 12.5t-80.5 35t-51 53t-18 66.5q0 48 27.5 83t72 58.5t101.5 35t116 11.5q62 0 119 -14t105 -39q31 70 31 140q0 27 -8 55.5t-25.5 51t-44.5 37
t-65 14.5q-27 0 -53 -13.5t-48 -37.5t-37.5 -57.5t-21.5 -73.5h-100q-15 83 -65 132.5t-126 49.5q-21 0 -42 -7t-37.5 -20.5t-26.5 -32.5t-10 -43q0 -48 26 -82t71 -60l-93 -70q-66 45 -99 98.5t-33 121.5q0 51 19 92.5t51.5 70t74.5 44t89 15.5q53 0 94.5 -14t72.5 -37.5
t52 -53.5t32 -61q13 36 35.5 66t53.5 52.5t69.5 35t82.5 12.5q51 0 92 -16.5t73 -46.5q33 27 74.5 45t92.5 18q50 0 90 -16.5t68 -46.5t43 -72.5t15 -93.5q0 -60 -33 -114t-99 -99l-67 81q31 20 55 54t24 72q0 55 -27.5 81t-68.5 26zM650 -541q-29 0 -62.5 -3t-62.5 -11.5
t-48 -23t-19 -38.5q0 -16 11 -26t28.5 -16t39.5 -8.5t44 -2.5q72 0 128 26.5t97 69.5q-38 16 -78.5 24.5t-77.5 8.5z" />
    <glyph glyph-name=".notdef" 
 />
    <glyph glyph-name="A" unicode="A" horiz-adv-x="1112" 
d="M653 1356l439 -1356h-181l-125 428h-460l-125 -428h-181l437 1356h196zM369 573h374l-186 637h-2z" />
    <glyph glyph-name="B" unicode="B" horiz-adv-x="1098" 
d="M123 1356h498q64 0 123 -28.5t104 -75t71.5 -105t26.5 -117.5q0 -49 -9.5 -96.5t-29 -89t-50 -73.5t-71.5 -50q57 -14 99 -48.5t69 -81.5t40.5 -101t13.5 -107q0 -66 -28 -134.5t-75 -123.5t-109.5 -90t-131.5 -35h-541v1356zM285 782h303q40 0 76 21.5t63.5 54.5t44 73
t16.5 77q0 30 -12.5 65.5t-37.5 66t-62.5 50.5t-87.5 20h-303v-428zM285 145h319q43 0 86 20.5t77 54.5t55.5 78t21.5 91q0 44 -16.5 89.5t-47 82.5t-75 60.5t-99.5 23.5h-321v-500z" />
    <glyph glyph-name="C" unicode="C" horiz-adv-x="1186" 
d="M242 694q0 -130 31 -234t82 -176.5t117 -111.5t136 -39q77 0 138 26.5t105.5 71t71.5 102t35 120.5h162q-12 -100 -51 -185.5t-103.5 -148.5t-154 -99t-203.5 -36q-125 0 -225 53.5t-170.5 148t-108.5 225t-38 283.5q0 118 36 240q38 122 107 218q35 48 77.5 88.5
t92.5 70t107 45.5t122 16q111 0 201 -31t155.5 -85t105.5 -127.5t50 -159.5h-162q-32 130 -120.5 192t-229.5 62q-85 0 -151.5 -47.5t-114.5 -122.5q-47 -75 -74 -170q-26 -96 -26 -189z" />
    <glyph glyph-name="D" unicode="D" horiz-adv-x="1204" 
d="M123 1356h491q60 0 114 -15.5t100.5 -44t85.5 -67.5t70 -87q63 -96 95.5 -216t32.5 -246q0 -127 -33 -250q-16 -62 -39.5 -116t-54.5 -102q-30 -48 -68 -87t-83 -66.5t-97 -43t-110 -15.5h-504v1356zM285 145h295q88 0 156.5 43t115 115.5t70.5 169.5t24 205
q0 118 -23.5 216t-69.5 168t-114 109t-157 39h-297v-1065z" />
    <glyph glyph-name="E" unicode="E" horiz-adv-x="1059" 
d="M942 1356v-146h-657v-438h618v-145h-618v-482h686v-145h-848v1356h819z" />
    <glyph glyph-name="F" unicode="F" horiz-adv-x="975" 
d="M926 1356v-146h-639v-438h555v-145h-555v-627h-164v1356h803z" />
    <glyph glyph-name="G" unicode="G" horiz-adv-x="1280" 
d="M1135 0h-107l-45 160q-20 -39 -56 -74t-84 -61.5t-106 -42t-121 -15.5q-85 0 -158.5 27t-135 75.5t-109.5 114t-80.5 144t-50 165.5t-16.5 177q0 164 44.5 297t120 227t175 145.5t210.5 51.5q114 0 201.5 -33t151 -88.5t104.5 -128.5t62 -154h-152q-38 118 -123 185
q-86 69 -244 69q-65 0 -118 -23t-95 -63.5t-72 -95.5t-50 -118.5t-29.5 -132.5t-9.5 -138q0 -121 26.5 -222.5t75.5 -175t117.5 -114.5t152.5 -41q46 0 91 20t86 54.5t76 80.5t61 97.5t40.5 105.5t14.5 105h-367v145h519v-725z" />
    <glyph glyph-name="H" unicode="H" horiz-adv-x="1178" 
d="M287 1356v-565h604v565h164v-1356h-164v645h-604v-645h-164v1356h164z" />
    <glyph glyph-name="I" unicode="I" horiz-adv-x="428" 
d="M295 1356v-1356h-162v1356h162z" />
    <glyph glyph-name="J" unicode="J" horiz-adv-x="821" 
d="M700 1356v-1090q0 -65 -28 -119.5t-75.5 -94.5t-110 -62.5t-130.5 -22.5q-65 0 -125.5 19t-107.5 55.5t-75 90t-28 122.5v145h162v-118q0 -41 15.5 -72t40 -51.5t55.5 -30.5t63 -10q29 0 61 9t59 29.5t45 52.5t18 77v1071h161z" />
    <glyph glyph-name="K" unicode="K" horiz-adv-x="1104" 
d="M285 1356v-649h4l567 649h217l-485 -555l499 -801h-204l-410 684l-188 -217v-467h-162v1356h162z" />
    <glyph glyph-name="L" unicode="L" horiz-adv-x="911" 
d="M285 1356v-1211h587v-145h-749v1356h162z" />
    <glyph glyph-name="M" unicode="M" horiz-adv-x="1362" 
d="M373 1356l307 -1133h4l326 1133h229v-1356h-162v1100h-6l-317 -1100h-144l-321 1100h-4v-1100h-162v1356h250z" />
    <glyph glyph-name="N" unicode="N" horiz-adv-x="1176" 
d="M322 1356l563 -1086h6v1086h162v-1356h-197l-565 1090h-6v-1090h-162v1356h199z" />
    <glyph glyph-name="O" unicode="O" horiz-adv-x="1253" 
d="M625 -33q-86 0 -161 27.5t-137 76.5t-110.5 116t-82 146.5t-51 169t-17.5 181.5q0 93 17.5 181.5t51.5 167t83 144.5t111 113.5t137 74t161 26.5q85 0 160 -26.5t137.5 -74t111.5 -113.5t82.5 -144.5t51.5 -167t18 -181.5t-18 -182t-51.5 -168.5t-83 -147t-112 -116
t-137.5 -76t-161 -27.5zM627 117q92 0 163.5 41.5t121 116.5t75 179.5t25.5 229.5t-25.5 227.5t-75 176t-121 113.5t-163.5 40q-90 0 -161.5 -40t-121 -113.5t-76 -176t-26.5 -227.5t25.5 -229.5t74.5 -179.5t121 -116.5t164 -41.5z" />
    <glyph glyph-name="P" unicode="P" horiz-adv-x="1038" 
d="M123 1356h491q81 0 146.5 -37t112.5 -93.5t72.5 -124.5t25.5 -130q0 -67 -25.5 -136t-72.5 -125.5t-112.5 -92t-146.5 -35.5h-329v-582h-162v1356zM285 727h313q36 0 72 21.5t64 56.5t45.5 78.5t17.5 87.5q0 43 -16 86t-43.5 77t-63.5 55t-76 21h-313v-483z" />
    <glyph glyph-name="Q" unicode="Q" horiz-adv-x="1274" 
d="M625 -33q-86 0 -161 27.5t-137 76.5t-110.5 116t-82 146.5t-51 169t-17.5 181.5q0 93 17.5 181.5t51.5 167t83 144.5t111 113.5t137 74t161 26.5q85 0 160 -26.5t137.5 -74t111.5 -113.5t82.5 -144.5t51.5 -167t18 -181.5q0 -148 -43.5 -280.5t-124.5 -235.5l182 -180
l-102 -105l-182 183q-128 -99 -293 -99zM627 117q101 0 184 53l-115 117l105 102l110 -113q101 155 101 408q0 125 -25.5 227.5t-75 176t-121 113.5t-163.5 40q-90 0 -161.5 -40t-121 -113.5t-76 -176t-26.5 -227.5t25.5 -229.5t74.5 -179.5t121 -116.5t164 -41.5z" />
    <glyph glyph-name="R" unicode="R" horiz-adv-x="1118" 
d="M123 1356h575q70 -1 127.5 -35t98 -86.5t62.5 -115t22 -120.5q0 -56 -14 -113t-39 -105t-60 -81.5t-76 -42.5q100 -23 131 -91q33 -68 33 -154v-256q0 -57 16.5 -95t40.5 -61h-184q-12 12 -19.5 31t-11 40t-5 42.5t-1.5 38.5v262q0 30 -10 60t-31.5 54t-55 39t-79.5 15
h-358v-582h-162v1356zM285 729h354q41 0 76.5 22.5t62 58t41.5 79.5t15 88q0 42 -17 83.5t-44.5 74.5t-62.5 54t-71 21h-354v-481z" />
    <glyph glyph-name="S" unicode="S" horiz-adv-x="1085" 
d="M246 438q0 -62 21 -120.5t59 -104t92.5 -73t120.5 -27.5q56 0 106.5 14.5t88.5 43.5t60.5 72.5t22.5 102.5q0 67 -31.5 114.5t-80 80.5t-105.5 54t-108 34q-71 16 -139 49.5t-121 84.5t-85 119t-32 152q0 76 34.5 141.5t92 113.5t131 75t151.5 27q63 0 114 -11.5t92 -32
t72.5 -48.5t55.5 -61q46 -65 66 -138q20 -75 20 -133h-162q0 59 -21.5 109.5t-57 88t-82 59t-97.5 21.5q-46 0 -90.5 -14.5t-79.5 -42t-56.5 -66t-21.5 -86.5q0 -61 28 -106.5t71 -77.5t95 -52.5t99 -31.5q80 -18 154 -53t131 -87.5t91 -122t34 -157.5q0 -91 -33 -162
t-92 -119.5t-139.5 -74t-175.5 -25.5q-89 0 -171.5 37t-146 100.5t-101.5 149.5t-38 184h164z" />
    <glyph glyph-name="T" unicode="T" horiz-adv-x="975" 
d="M954 1356v-146h-385v-1210h-163v1210h-386v146h934z" />
    <glyph glyph-name="U" unicode="U" horiz-adv-x="1143" 
d="M279 1356v-979q0 -67 25.5 -116t66 -81t90.5 -47.5t100 -15.5q55 0 109.5 16.5t97.5 49t69.5 81t26.5 113.5v979h162v-955q0 -106 -41 -187t-107.5 -136t-149.5 -83t-167 -28q-78 0 -157.5 28t-143 83t-103.5 136t-40 187v955h162z" />
    <glyph glyph-name="V" unicode="V" horiz-adv-x="1044" 
d="M197 1356l325 -1084h2l324 1084h180l-414 -1356h-182l-416 1356h181z" />
    <glyph glyph-name="W" unicode="W" horiz-adv-x="1501" 
d="M199 1356l223 -1084l244 1084h170l241 -1084l223 1084h183l-301 -1356h-178l-254 1077l-256 -1077h-175l-303 1356h183z" />
    <glyph glyph-name="X" unicode="X" horiz-adv-x="1020" 
d="M231 1356l277 -537l278 537h183l-373 -666l408 -690h-203l-293 561l-291 -561h-201l406 690l-373 666h182z" />
    <glyph glyph-name="Y" unicode="Y" horiz-adv-x="1053" 
d="M190 1356l326 -641h4l326 641h190l-438 -795v-561h-162v561l-436 795h190z" />
    <glyph glyph-name="Z" unicode="Z" horiz-adv-x="1018" 
d="M956 1356v-166l-727 -1040v-5h727v-145h-915v150l741 1058v2h-692v146h866z" />
    <glyph glyph-name="a" unicode="a" horiz-adv-x="1008" 
d="M102 717q0 74 34 133t88.5 100.5t121.5 63.5t133 22q72 0 140.5 -20.5t122 -61t86 -100t32.5 -137.5v-524q0 -12 5 -25t13.5 -23.5t20 -17t23.5 -6.5q14 0 26.5 6t28.5 14v-139q-27 -8 -51.5 -14t-65.5 -6q-131 0 -131 165q-71 -86 -169 -126q-99 -39 -198 -39
q-58 0 -112 22t-95.5 59.5t-66.5 88.5t-25 110q0 94 48 154q49 61 121 101t157 63q61 19 119.5 33.5t104.5 29.5t74 32t28 42q0 39 -14 75.5t-43 64.5t-73.5 44.5t-105.5 16.5q-45 0 -86.5 -15t-74 -42t-51.5 -64t-19 -80h-146zM715 555q-28 -13 -63 -24.5t-78 -22.5
q-86 -21 -165 -51q-40 -14 -74 -32.5t-63 -41.5q-57 -45 -57 -117q0 -78 57 -121q58 -43 136 -43q42 0 88.5 12.5t89 37t77 61.5t52.5 86v256z" />
    <glyph glyph-name="ampersand" unicode="&#x26;" horiz-adv-x="1112" 
d="M1004 588q-7 -65 -14.5 -115.5t-19 -91.5t-29 -76t-44.5 -69l211 -236h-199l-94 123q-29 -29 -61 -57t-74 -50t-96.5 -35.5t-128.5 -13.5q-99 0 -170.5 29.5t-118.5 77.5t-69.5 107.5t-22.5 119.5q0 61 24 115t65.5 100.5t98 85.5t121.5 70l-78 94q-35 51 -56.5 97.5
t-25.5 103.5q0 57 22 107t60.5 87t90 58.5t110.5 21.5q79 0 134.5 -21.5t90.5 -58.5t50.5 -87t15.5 -107q0 -44 -11 -82.5t-37 -76t-70 -77t-110 -84.5l246 -291q21 43 34 106t13 126h142zM506 739q57 41 88 77.5t45 68t16 56.5t2 44q0 31 -5.5 56.5t-21.5 44t-45.5 28.5
t-78.5 10q-54 0 -101 -38q-45 -38 -45 -101q0 -41 16.5 -84t63.5 -92zM453 588q-37 -25 -75.5 -55t-70 -64.5t-51.5 -73t-20 -80.5q0 -46 18.5 -85.5t48.5 -68t68.5 -45t79.5 -16.5q55 0 94 8t69.5 25t57 43.5t57.5 63.5z" />
    <glyph glyph-name="asciicircum" unicode="^" horiz-adv-x="997" 
d="M588 1206l401 -450h-149l-340 338l-344 -338h-148l402 450h178z" />
    <glyph glyph-name="asciitilde" unicode="~" horiz-adv-x="1192" 
d="M1069 711q0 -183 -79 -277t-204 -94q-59 0 -98.5 20.5t-69 51.5t-52.5 67t-49.5 67t-60.5 51.5t-85 20.5q-47 0 -77 -25t-47.5 -62.5t-24.5 -82t-7 -83.5h-115q0 73 17.5 142t53.5 122.5t90 86t128 32.5q66 0 112 -20.5t79.5 -51.5t58 -67.5t47.5 -67.5t48.5 -52
t60.5 -20q27 0 55 18t50.5 50t37 76.5t14.5 97.5h117z" />
    <glyph glyph-name="asterisk" unicode="*" horiz-adv-x="782" 
d="M465 1241l-27 -256l234 109l51 -146l-262 -55l186 -186l-121 -91l-137 222l-139 -222l-119 91l186 186l-260 59l47 142l236 -109l-27 256h152z" />
    <glyph glyph-name="at" unicode="@" horiz-adv-x="1681" 
d="M1210 936l-143 -500q-29 -98 29 -98q13 0 36 5t50 19t54 39t49 66t36 99.5t14 138.5q0 97 -35.5 176.5t-96 135.5t-141.5 87t-171 31q-119 0 -219.5 -41t-173 -115t-113.5 -176.5t-41 -224.5q-1 -119 46 -212.5t122.5 -158t170.5 -99t191 -34.5q284 0 412 192h113
q-31 -80 -89.5 -137t-134 -93t-162.5 -52.5t-175 -16.5q-77 0 -152 20t-142.5 57.5t-125 91t-99 120.5t-65 146.5t-23.5 168.5q0 163 52.5 288t142.5 210t210.5 128.5t256.5 43.5q111 0 211.5 -37t177 -104.5t121.5 -163t45 -213.5q-1 -121 -34 -213t-89 -154.5
t-129.5 -94.5t-155.5 -32q-24 0 -40.5 5t-29 17.5t-21.5 32.5t-17 50q-26 -28 -49 -47.5t-43 -32.5q-40 -25 -107 -25q-59 0 -106 23.5t-79.5 61.5t-49.5 86t-17 98q0 53 13 108t37 107t58.5 98t78 80t94.5 54t108 20q45 0 78 -17.5t56 -40.5t37 -45t20 -31l37 105h112z
M1004 627q14 48 9 87.5t-24 67.5t-49.5 43t-67.5 15q-34 0 -65.5 -14.5t-59.5 -39t-51 -57t-39.5 -69t-26 -74.5t-9.5 -74q0 -64 34 -111q35 -47 105 -47q71 0 125.5 38t83.5 130z" />
    <glyph glyph-name="b" unicode="b" horiz-adv-x="1008" 
d="M528 -18q-91 0 -162.5 40.5t-113.5 104.5v-127h-141v1395h141v-514q42 72 113.5 114.5t162.5 42.5q106 0 184.5 -44.5t130.5 -119t77.5 -170.5t25.5 -198t-25.5 -196.5t-77.5 -167.5t-130.5 -116.5t-184.5 -43.5zM528 104q65 0 115.5 32.5t85.5 87.5t53.5 128t18.5 154
t-18.5 155.5t-53.5 130.5t-85.5 89.5t-115.5 33.5t-115.5 -33.5t-85 -89.5t-53 -130.5t-18.5 -155.5t18.5 -154t53 -128t85 -87.5t115.5 -32.5z" />
    <glyph glyph-name="backslash" unicode="\" horiz-adv-x="528" 
d="M109 1393l403 -1426h-100l-402 1426h99z" />
    <glyph glyph-name="bar" unicode="|" horiz-adv-x="416" 
d="M266 1522v-1755h-116v1755h116z" />
    <glyph glyph-name="braceleft" unicode="{" horiz-adv-x="563" 
d="M66 674h51q33 0 53 15.5t31.5 38t15.5 48.5t4 47v463q0 44 16.5 78.5t44 58.5t62 37t70.5 13h90v-117h-23q-52 0 -89 -28q-38 -29 -38 -71v-495q0 -66 -41 -100.5t-110 -45.5q33 -7 60.5 -18t47.5 -28.5t31.5 -41.5t11.5 -57v-487q0 -25 10.5 -44.5t27.5 -32.5t40 -19.5
t49 -6.5h23v-114h-90q-36 0 -70.5 13.5t-62 38.5t-44 60t-16.5 78v453q0 26 -4 52.5t-15.5 48t-31.5 35t-53 13.5h-51v115z" />
    <glyph glyph-name="braceright" unicode="}" horiz-adv-x="563" 
d="M504 559h-51q-33 0 -53.5 -13.5t-32 -35t-15.5 -48t-4 -52.5v-453q0 -43 -16.5 -78t-43.5 -60t-61.5 -38.5t-70.5 -13.5h-90v114h22q25 0 48.5 6.5t40.5 19.5t27.5 32.5t10.5 44.5v487q0 33 11.5 57t31.5 41.5t48 28.5t61 18q-72 11 -112 45.5t-40 100.5v495q0 42 -38 71
q-37 28 -89 28h-22v117h90q36 0 70.5 -13t61.5 -37t43.5 -58.5t16.5 -78.5v-463q0 -21 4 -47t15.5 -48.5t32 -38t53.5 -15.5h51v-115z" />
    <glyph glyph-name="bracketleft" unicode="[" horiz-adv-x="449" 
d="M414 1473v-117h-166v-1475h166v-114h-314v1706h314z" />
    <glyph glyph-name="bracketright" unicode="]" horiz-adv-x="449" 
d="M352 -233h-315v114h166v1475h-166v117h315v-1706z" />
    <glyph glyph-name="bullet" unicode="&#x2022;" horiz-adv-x="707" 
d="M106 709q0 105 74 176t178 71q52 0 97.5 -19t79 -52.5t53 -78.5t20.5 -97q3 -102 -73 -177q-74 -73 -177 -73q-53 0 -99 19t-80 52.5t-53.5 79.5t-19.5 99z" />
    <glyph glyph-name="c" unicode="c" horiz-adv-x="967" 
d="M895 352q-16 -78 -49 -145.5t-83 -117.5t-118 -78.5t-153 -28.5q-106 0 -184.5 43.5t-130.5 116.5t-77.5 167.5t-25.5 196.5t25.5 198t77.5 170.5t130.5 119t184.5 44.5q82 0 148.5 -28.5t116 -77.5t82.5 -114t50 -138h-148q-29 103 -92 168q-63 67 -157 67
q-65 0 -115.5 -33.5t-85.5 -89.5t-53.5 -130.5t-18.5 -155.5t18.5 -154t53.5 -128t85.5 -87.5t115.5 -32.5q98 0 162 70q66 72 91 178h150z" />
    <glyph glyph-name="colon" unicode=":" horiz-adv-x="508" 
d="M319 954v-198h-178v198h178zM319 201v-201h-178v201h178z" />
    <glyph glyph-name="comma" unicode="," horiz-adv-x="508" 
d="M338 201v-238q0 -94 -46.5 -156.5t-131.5 -80.5v88q53 18 70.5 54t17.5 95v37h-88v201h178z" />
    <glyph glyph-name="copyright" unicode="&#xa9;" horiz-adv-x="1612" 
d="M807 1470q199 0 375 -102q88 -50 156.5 -120t115 -153.5t71 -177.5t25.5 -192q3 -198 -100 -375q-102 -176 -274 -272q-173 -96 -369 -96q-100 0 -194.5 24.5t-182.5 75.5t-156 119.5t-116 156.5t-71.5 179t-25.5 188q-2 100 24 194.5t77 182.5q104 176 280 272
q175 96 365 96zM807 1348q-82 2 -159.5 -19.5t-151.5 -64.5q-73 -42 -130.5 -100.5t-97 -128t-60.5 -148t-22 -162.5q-2 -85 19 -162t63 -149q83 -144 232 -228q146 -82 307 -82q83 -2 161.5 19.5t148 62.5t127 98t98.5 127t63.5 149.5t21.5 164.5q4 167 -84 313
q-85 144 -233 226q-74 42 -149.5 62t-153.5 22zM1044 606l121 -37q-13 -64 -45.5 -114t-79 -84.5t-105.5 -53t-126 -18.5q-185 0 -291 121q-100 113 -100 303q0 274 188 373q45 23 98 35t113 12q259 0 336 -232l-119 -28q-61 148 -221 151q-65 2 -114 -22t-85 -72
q-61 -82 -61 -219q0 -302 248 -305q195 -3 243 190z" />
    <glyph glyph-name="d" unicode="d" horiz-adv-x="1026" 
d="M508 -18q-106 0 -184.5 43.5t-130.5 116.5t-77.5 167.5t-25.5 196.5t25.5 198t77.5 170.5t130.5 119t184.5 44.5q91 0 162.5 -42.5t113.5 -114.5v514h142v-1395h-142v127q-42 -64 -113.5 -104.5t-162.5 -40.5zM508 104q64 0 115 32.5t85.5 87.5t53 128t18.5 154
t-18.5 155.5t-53 130.5t-85.5 89.5t-115 33.5q-65 0 -116 -33.5t-85.5 -89.5t-52.5 -130.5t-18 -155.5t18 -154t52.5 -128t85.5 -87.5t116 -32.5z" />
    <glyph glyph-name="dollar" unicode="$" horiz-adv-x="926" 
d="M487 1268v-97q65 0 124 -20.5t105.5 -60t78.5 -98.5t43 -136h-148q-6 35 -23 67.5t-43 58t-60.5 41t-76.5 15.5v-385q82 -24 150 -53.5t117 -71.5t75.5 -99.5t26.5 -137.5q0 -90 -34 -149.5t-87 -94.5t-118.5 -49t-129.5 -14v-99h-79v99q-66 0 -127.5 28.5t-110 80.5
t-80 125t-37.5 163l148 -4q16 -127 72.5 -193.5t134.5 -66.5v407q-78 25 -139.5 53t-103.5 67.5t-64.5 94.5t-22.5 135q0 61 25.5 115t69.5 94.5t104.5 64t130.5 23.5v97h79zM408 1038q-42 0 -75 -12t-56.5 -34t-35.5 -51.5t-12 -63.5q0 -69 44 -122t135 -83v366zM487 117
q94 0 155 49q63 49 63 123q0 72 -48 119q-47 47 -170 92v-383z" />
    <glyph glyph-name="e" unicode="e" horiz-adv-x="1006" 
d="M926 317q-21 -71 -58 -132.5t-89 -106.5t-119 -70.5t-148 -25.5q-107 0 -188.5 43.5t-137 116.5t-84 167.5t-28.5 196.5t28.5 198t84 170.5t137 119t188.5 44.5q106 0 188 -44.5t137.5 -119t84 -170.5t28.5 -198v-27h-731q4 -78 26.5 -146t60.5 -119t90.5 -80.5
t115.5 -29.5q46 0 87 15.5t74.5 43t60 67t44.5 87.5h148zM795 602q-13 66 -37.5 123t-60 99t-82 66.5t-103.5 24.5q-55 0 -102.5 -24.5t-84.5 -66.5t-62 -99t-36 -123h568z" />
    <glyph glyph-name="eight" unicode="8" horiz-adv-x="926" 
d="M459 1171q86 0 155 -22.5t117 -61.5t74 -91t26 -111q0 -101 -46 -165.5t-119 -98.5q51 -16 88 -46.5t60 -70t34 -85t10 -91.5q0 -68 -28 -130.5t-79.5 -110.5t-125.5 -76.5t-166 -28.5t-166 28.5t-126 75.5t-80 109t-28 129q0 46 10.5 91.5t34 85.5t60.5 71.5t90 48.5
q-76 32 -121 97t-45 167q0 59 25 111t72.5 91t116.5 61.5t157 22.5zM461 1040q-105 0 -156 -53t-51 -119q0 -72 52 -128q53 -56 155 -56q50 0 88 15t64 40.5t39.5 59t13.5 69.5q0 33 -12 64t-37 55t-64 38.5t-92 14.5zM459 551q-58 0 -101.5 -19.5t-73 -51.5t-44.5 -72
t-15 -82q0 -41 18.5 -79t50.5 -67t75 -46t92 -17q58 0 101.5 17.5t72.5 47t43 67t14 77.5q0 42 -15.5 82t-45 72t-73 51.5t-99.5 19.5z" />
    <glyph glyph-name="emdash" unicode="&#x2014;" horiz-adv-x="1210" 
d="M1229 570l108 -113h-1062l-108 113h1062z" />
    <glyph glyph-name="endash" unicode="&#x2013;" horiz-adv-x="865" 
d="M757 570l108 -113h-590l-108 113h590z" />
    <glyph glyph-name="equal" unicode="=" horiz-adv-x="991" 
d="M936 852v-115h-877v115h877zM936 530v-112h-877v112h877z" />
    <glyph glyph-name="exclam" unicode="!" horiz-adv-x="508" 
d="M342 1327v-549l-35 -444h-108l-35 440v553h178zM342 201v-201h-178v201h178z" />
    <glyph glyph-name="f" unicode="f" horiz-adv-x="539" 
d="M184 1018v221q0 43 11.5 78.5t34.5 61t59 39.5t86 14q31 0 67 -15q37 -14 60 -24v-133q-6 6 -17 11t-22.5 9t-23 6t-19.5 2q-21 0 -38 -8t-28.5 -21.5t-17.5 -30t-6 -34.5v-176h162v-125h-162v-893h-146v893h-161v125h161z" />
    <glyph glyph-name="five" unicode="5" horiz-adv-x="926" 
d="M78 535l78 622h635v-133h-519l-34 -322l6 -2q45 39 105 55.5t120 16.5q84 0 155.5 -30.5t124 -84t82 -125.5t29.5 -155q0 -76 -26.5 -147t-79 -125.5t-132.5 -87.5t-186 -33q-149 0 -258 84q-108 84 -137 245h166q22 -93 84 -144.5t147 -51.5q58 0 105 20t80.5 55.5
t52 84t18.5 104.5t-23 103.5t-60.5 82t-86 53.5t-100.5 19q-57 0 -110.5 -24.5t-90.5 -79.5h-145z" />
    <glyph glyph-name="four" unicode="4" horiz-adv-x="926" 
d="M559 0v283h-502v168l502 706h150v-743h165v-131h-165v-283h-150zM193 414h366v522z" />
    <glyph glyph-name="g" unicode="g" horiz-adv-x="1022" 
d="M479 -18q-105 0 -183.5 43.5t-130.5 116.5t-78 167.5t-26 196.5t26 198t78 170.5t130.5 119t183.5 44.5q91 0 162 -37.5t119 -109.5v127h145v-1018q1 -100 -34.5 -177t-93.5 -129t-132 -79t-149 -27q-69 0 -133 17.5t-116.5 54.5t-91 93.5t-57.5 133.5h158
q15 -49 37.5 -82.5t51.5 -53.5t66.5 -29t82.5 -9q51 0 99 19.5t85 54.5t59.5 84t22.5 109v147q-45 -66 -117.5 -105.5t-163.5 -39.5zM479 104q66 0 117.5 32.5t87 87.5t54 128t18.5 154t-18.5 155.5t-54 130.5t-87 89.5t-117.5 33.5q-65 0 -115.5 -33.5t-85 -89.5
t-53 -130.5t-18.5 -155.5t18.5 -154t53 -128t85 -87.5t115.5 -32.5z" />
    <glyph glyph-name="grave" unicode="`" horiz-adv-x="330" 
d="M66 893v235q0 97 47.5 159.5t132.5 80.5v-88q-28 -9 -45.5 -22.5t-27.5 -32.5t-13.5 -43t-3.5 -54v-36h90v-199h-180z" />
    <glyph glyph-name="greater" unicode="&#x3e;" horiz-adv-x="991" 
d="M100 82v129l666 270v4l-666 269v131l809 -353v-100z" />
    <glyph glyph-name="h" unicode="h" horiz-adv-x="1010" 
d="M264 1395v-506h4q64 82 147 113.5t177 31.5q70 0 127 -17t97 -49.5t61.5 -80.5t21.5 -109v-778l-145 4v748q0 47 -18.5 77.5t-47.5 48t-66.5 24.5t-74.5 7q-47 0 -97 -21.5t-91 -56t-68 -78t-27 -87.5v-666h-145v1395h145z" />
    <glyph glyph-name="hyphen" unicode="-" horiz-adv-x="604" 
d="M520 586v-142h-438v142h438z" />
    <glyph glyph-name="i" unicode="i" horiz-adv-x="377" 
d="M264 1356v-168h-145v168h145zM264 1018v-1018h-145v1018h145z" />
    <glyph glyph-name="j" unicode="j" horiz-adv-x="387" 
d="M272 1356v-168h-143v168h143zM270 1018v-1182q0 -125 -66 -186q-65 -62 -163 -62q-21 0 -44.5 4.5t-39.5 16.5v119q12 -4 28.5 -10.5t32.5 -6.5q48 0 78 38q31 37 31 91v1178h143z" />
    <glyph glyph-name="k" unicode="k" horiz-adv-x="926" 
d="M264 1356v-826h2l445 488h166l-369 -422l381 -596h-172l-305 487l-148 -170v-317h-145v1356h145z" />
    <glyph glyph-name="l" unicode="l" horiz-adv-x="369" 
d="M264 1356v-1356h-145v1356h145z" />
    <glyph glyph-name="less" unicode="&#x3c;" horiz-adv-x="991" 
d="M90 532l811 353v-131l-668 -269v-4l668 -270v-129l-811 350v100z" />
    <glyph glyph-name="m" unicode="m" horiz-adv-x="1540" 
d="M119 1018h145v-129h4q25 35 59 62.5t72.5 46t80.5 28.5t83 10q152 0 242 -147q50 71 140 109t173 38q135 0 215 -71t80 -185v-780h-145v745q0 46 -16.5 77.5t-42 51t-55.5 28.5t-56 9q-42 0 -87.5 -18.5t-84 -49t-63.5 -68.5t-25 -77v-698h-146v745q0 46 -16.5 77.5
t-41 51t-54 28.5t-56.5 9q-42 0 -87.5 -18.5t-84 -49t-63.5 -68.5t-25 -77v-698h-145v1018z" />
    <glyph glyph-name="n" unicode="n" horiz-adv-x="1008" 
d="M119 1018h145v-129h4q25 37 61 64.5t78 46t87 27.5t88 9q140 0 219 -73q80 -72 80 -189v-774h-146v737q0 38 -16.5 70t-41.5 55t-55 36t-57 13q-45 0 -94 -17t-91.5 -46t-74 -68t-41.5 -84v-696h-145v1018z" />
    <glyph glyph-name="nonbreakingspace" unicode="&#xa0;" horiz-adv-x="614" 
 />
    <glyph glyph-name="nine" unicode="9" horiz-adv-x="926" 
d="M215 295q25 -94 91 -136q67 -42 136 -42q73 0 123.5 33t81.5 87.5t44.5 125.5t13.5 147q-58 -76 -128 -103q-70 -26 -135 -26q-69 0 -139 27.5t-126.5 77.5t-92 119.5t-35.5 152.5q0 84 25.5 159.5t75 132.5t123 90.5t169.5 33.5q199 0 310 -140q112 -139 112 -399
q0 -112 -18 -227q-8 -58 -24.5 -110t-39.5 -100q-46 -94 -129 -154t-211 -60q-68 0 -132.5 17t-117 54t-86.5 96.5t-40 143.5h149zM442 514q50 0 93.5 20.5t76 56.5t51.5 84t19 103t-19 102.5t-51.5 83t-76 56t-93.5 20.5q-47 0 -88 -20.5t-72 -56t-49 -83t-18 -102.5
t18 -103t49 -84t72 -56.5t88 -20.5z" />
    <glyph glyph-name="numbersign" unicode="#" horiz-adv-x="1214" 
d="M659 389h-219l-67 -389h-131l67 389h-243l22 117h244l41 217h-244l21 115h243l66 368h129l-66 -368h219l66 368h131l-68 -368h283l-18 -115h-281l-43 -217h283l-21 -117h-282l-72 -389h-131zM723 723h-219l-43 -217h221z" />
    <glyph glyph-name="o" unicode="o" horiz-adv-x="1022" 
d="M512 -18q-107 0 -188.5 43.5t-137 116.5t-84 167.5t-28.5 196.5t28.5 198t84 170.5t137 119t188.5 44.5q106 0 188 -44.5t137.5 -119t84 -170.5t28.5 -198t-28.5 -196.5t-84 -167.5t-137.5 -116.5t-188 -43.5zM512 104q66 0 120 32.5t92.5 87.5t59.5 128t21 154
t-21 155.5t-59.5 130.5t-92.5 89.5t-120 33.5t-120 -33.5t-92.5 -89.5t-59.5 -130.5t-21 -155.5t21 -154t59.5 -128t92.5 -87.5t120 -32.5z" />
    <glyph glyph-name="one" unicode="1" horiz-adv-x="926" 
d="M455 838h-269v114h84q45 0 85 16t69 45t46 70t17 91h117v-1174h-149v838z" />
    <glyph glyph-name="onehalf" unicode="&#xbd;" horiz-adv-x="1720" 
d="M301 1284h-221v86h70q37 0 69.5 12t56 33t37 51t13.5 66h98v-868h-123v620zM520 -41h-125l498 1573h121zM948 555q0 71 21 128.5t62 97.5t101.5 61.5t139.5 21.5q73 0 129.5 -22.5t95 -59t58.5 -84t20 -98.5q0 -44 -13 -78t-35.5 -62t-52 -51t-63.5 -44
q-33 -21 -67.5 -39t-69 -36.5t-68.5 -38.5t-65 -44q-23 -19 -37 -35t-25 -45h496v-127h-664q9 91 39.5 154.5t80.5 112.5t119.5 89t158.5 84q24 12 45.5 30.5t37.5 41t25.5 47.5t9.5 51q0 39 -13 65t-36 41.5t-54.5 22t-68.5 6.5q-46 0 -80.5 -14t-57.5 -39.5t-34.5 -60
t-11.5 -76.5h-123z" />
    <glyph glyph-name="onequarter" unicode="&#xbc;" horiz-adv-x="1720" 
d="M344 1284h-221v86h70q37 0 69.5 12t56 33t37 51t13.5 66h98v-868h-123v620zM610 -41h-125l498 1573h121zM1350 0v209h-410v123l410 524h123v-549h135v-98h-135v-209h-123zM1053 307h297v385z" />
    <glyph glyph-name="p" unicode="p" horiz-adv-x="1024" 
d="M537 1036q106 0 184 -44t130 -116.5t77.5 -167t25.5 -196.5t-25.5 -198t-77.5 -170.5t-130 -119t-184 -44.5q-91 0 -163 42.5t-114 114.5v-514h-141v1395h141v-127q21 31 49.5 58t64 46t77 30t86.5 11zM537 913q-65 0 -115.5 -32t-85.5 -87t-53.5 -127.5t-18.5 -154.5
q0 -81 18.5 -155t53.5 -131t85.5 -90.5t115.5 -33.5q64 0 114.5 33.5t85.5 90.5t53.5 131t18.5 155q0 82 -18.5 154.5t-53.5 127.5t-85.5 87t-114.5 32z" />
    <glyph glyph-name="parenleft" unicode="(" horiz-adv-x="543" 
d="M481 1522q-53 -96 -93 -206t-66 -224.5t-39 -229t-13 -219.5q0 -104 13 -219t39 -230.5t66 -225t93 -201.5h-96q-68 82 -118.5 189t-83.5 223.5t-49.5 236t-16.5 227.5q0 107 16.5 225.5t50 235.5t83.5 224.5t118 193.5h96z" />
    <glyph glyph-name="parenright" unicode=")" horiz-adv-x="543" 
d="M158 1522q67 -87 118 -194.5t84.5 -223.5t50.5 -234.5t17 -226.5q0 -109 -17 -228.5t-51 -235.5t-84.5 -222.5t-117.5 -189.5h-95q54 92 93.5 201.5t65 225t38 230.5t12.5 219q0 105 -12.5 219.5t-38 229.5t-65 225t-93.5 205h95z" />
    <glyph glyph-name="percent" unicode="%" horiz-adv-x="1401" 
d="M285 0l710 1157h113l-713 -1157h-110zM350 594q-60 0 -111.5 22.5t-90 62t-60.5 92.5t-22 114q0 60 22 113t60.5 92t90 61.5t111.5 22.5q58 0 110 -22.5t91 -61.5t61.5 -92t22.5 -113q0 -61 -22.5 -114t-61.5 -92.5t-91 -62t-110 -22.5zM350 707q32 0 61 13.5t51 37.5
t35 56.5t13 70.5q0 72 -47 124q-46 52 -113 52q-65 0 -113 -52q-47 -52 -47 -124q0 -73 47 -126q48 -52 113 -52zM1053 -16q-59 0 -110.5 22.5t-90 61.5t-60.5 91.5t-22 112.5q0 61 22 114.5t60.5 92.5t90 61.5t110.5 22.5q58 0 109 -22.5t89.5 -61.5t61 -92.5t22.5 -114.5
q0 -60 -22.5 -112.5t-61 -91.5t-89.5 -61.5t-109 -22.5zM1053 96q32 0 61 14t51.5 38t35.5 56t13 68q0 76 -48 127q-48 52 -113 52q-67 0 -113 -52q-47 -52 -47 -127q0 -72 47 -125q46 -51 113 -51z" />
    <glyph glyph-name="period" unicode="." horiz-adv-x="508" 
d="M338 201v-201h-178v201h178z" />
    <glyph glyph-name="plus" unicode="+" horiz-adv-x="991" 
d="M66 705h383v366h112v-366h381v-115h-381v-367h-112v367h-383v115z" />
    <glyph glyph-name="q" unicode="q" horiz-adv-x="1059" 
d="M516 1036q91 0 163 -41t114 -104v127h141v-1395h-141v514q-42 -72 -114 -114.5t-163 -42.5q-105 0 -183.5 44.5t-130.5 119t-78 170.5t-26 198t26 196.5t78 167t130.5 116.5t183.5 44zM516 913q-65 0 -115.5 -32t-85 -87t-53 -127.5t-18.5 -154.5q0 -81 18.5 -155
t53 -131t85 -90.5t115.5 -33.5t116 33.5t85.5 90.5t52.5 131t18 155q0 82 -18 154.5t-52.5 127.5t-85.5 87t-116 32z" />
    <glyph glyph-name="question" unicode="?" horiz-adv-x="922" 
d="M369 338v96q0 76 42 133q21 29 44 56.5t48 53.5q49 52 93 108q43 56 43 128q0 94 -45.5 144.5t-142.5 50.5q-99 0 -156 -76q-57 -77 -57 -194h-148q0 89 26 163t73.5 127.5t114 83t147.5 29.5q95 0 162 -30t110 -78t62.5 -107t19.5 -117q0 -65 -21.5 -113t-54.5 -87
t-70.5 -73.5t-70.5 -72t-54.5 -82.5t-21.5 -104v-39h-143zM522 182v-182h-164v182h164z" />
    <glyph glyph-name="quotedbl" unicode="&#x22;" horiz-adv-x="657" 
d="M254 1327v-498h-125v498h125zM528 1327v-498h-127v498h127z" />
    <glyph glyph-name="quotedblleft" unicode="&#x201c;" horiz-adv-x="956" 
d="M544 1454q-209 -116 -209 -237q0 -48 21 -64q31 24 71 24q41 0 78 -31q36 -30 36 -74q0 -47 -36 -84q-36 -36 -83 -36q-38 0 -70 16t-55.5 45.5t-37 71.5t-13.5 95q0 50 21.5 96.5t63.5 92.5q73 81 161 108zM907 1454q-209 -117 -209 -237q0 -47 22 -64q30 24 71 24
t78 -31q36 -30 36 -74q0 -47 -36 -84q-36 -36 -83 -36q-38 0 -70 16t-55.5 45.5t-37 71.5t-13.5 95q0 99 86 189q74 81 160 108z" />
    <glyph glyph-name="quotedblright" unicode="&#x201d;" horiz-adv-x="956" 
d="M626 973q106 59 157.5 119t51.5 120q0 47 -21 64q-32 -26 -72 -26t-77 32q-36 30 -36 74q0 46 36 84q36 37 83 37q37 0 69.5 -16t56 -46t37 -72.5t13.5 -94.5q0 -97 -86 -188q-38 -41 -77 -67.5t-83 -40.5zM263 973q209 117 209 239q0 47 -22 64q-31 -26 -72 -26
q-40 0 -77 32q-36 30 -36 74q0 46 36 84q36 37 82 37q38 0 70.5 -16t56 -46t37 -72.5t13.5 -94.5q0 -99 -86 -188q-74 -81 -160 -108z" />
    <glyph glyph-name="quoteleft" unicode="&#x2018;" horiz-adv-x="575" 
d="M487 1454q-209 -117 -209 -237q0 -47 22 -64q30 24 71 24t78 -31q36 -30 36 -74q0 -47 -36 -84q-36 -36 -83 -36q-38 0 -70 16t-55.5 45.5t-37 71.5t-13.5 95q0 99 86 189q74 81 160 108z" />
    <glyph glyph-name="quoteright" unicode="&#x2019;" horiz-adv-x="564" 
d="M193 973q209 117 209 239q0 47 -22 64q-31 -26 -72 -26q-40 0 -77 32q-36 30 -36 74q0 46 36 84q36 37 82 37q38 0 70.5 -16t56 -46t37 -72.5t13.5 -94.5q0 -99 -86 -188q-74 -81 -160 -108z" />
    <glyph glyph-name="quotesingle" unicode="'" horiz-adv-x="346" 
d="M238 1327v-498h-127v498h127z" />
    <glyph glyph-name="r" unicode="r" horiz-adv-x="586" 
d="M119 1018h145v-127h4q39 70 95 107.5t143 37.5q41 0 76 -18v-146q-29 9 -43.5 11t-30.5 2q-53 0 -98 -18.5t-77.5 -50.5t-50.5 -74t-18 -89v-653h-145v1018z" />
    <glyph glyph-name="s" unicode="s" horiz-adv-x="907" 
d="M217 311q0 -49 18.5 -87.5t50 -65t72.5 -40.5t86 -14q37 0 80 9t80 29t61.5 51t24.5 75q0 33 -19.5 62.5t-52 54.5t-75.5 46.5t-90 39.5q-64 25 -126.5 52.5t-112 63.5t-80 83t-30.5 112q0 73 28.5 122.5t76 79.5t109 43t126.5 13q78 0 144 -17t113.5 -52t74.5 -87.5
t27 -123.5l-146 2q0 40 -17.5 69t-47 47.5t-68 27.5t-80.5 9q-85 0 -140 -41q-54 -41 -54 -90q0 -38 20 -65t53 -48t75.5 -39.5t86.5 -37.5q60 -27 122 -52.5t112.5 -59t82.5 -80.5t32 -117q0 -82 -31.5 -139.5t-85.5 -94t-124.5 -53t-148.5 -16.5q-76 0 -143 20.5
t-117.5 62t-80 103t-29.5 143.5h143z" />
    <glyph glyph-name="semicolon" unicode=";" horiz-adv-x="508" 
d="M319 954v-198h-178v198h178zM319 201v-238q0 -94 -46.5 -156.5t-131.5 -80.5v88q28 9 45.5 22.5t27 31.5t12.5 41.5t3 53.5v37h-88v201h178z" />
    <glyph glyph-name="seven" unicode="7" horiz-adv-x="926" 
d="M231 0q39 293 159 544t319 478v2h-650v133h805v-133q-98 -120 -179 -250t-141 -262t-98 -262t-51 -250h-164z" />
    <glyph glyph-name="six" unicode="6" horiz-adv-x="926" 
d="M692 868q0 31 -16 62t-43.5 55.5t-65 39.5t-80.5 15q-75 0 -122.5 -35t-75 -91t-38.5 -125t-13 -138h6q106 103 231 103q81 0 150.5 -29t121.5 -80.5t81.5 -122.5t29.5 -155q0 -78 -26.5 -147.5t-75.5 -122t-120 -83t-159 -30.5q-94 0 -170.5 36.5t-130.5 105.5
t-83.5 167.5t-29.5 222.5q0 179 30 304t85 204t133 114.5t174 35.5q76 0 140 -26t111 -69t74.5 -98t31.5 -113h-150zM475 117q112 0 164 70q53 71 53 175q0 51 -13.5 98t-40.5 82.5t-67.5 57t-93.5 21.5q-66 0 -110.5 -24.5t-72 -62.5t-39 -84t-11.5 -88q0 -111 63 -178
q64 -67 168 -67z" />
    <glyph glyph-name="slash" unicode="/" horiz-adv-x="455" 
d="M74 -33h-101l404 1274h96z" />
    <glyph glyph-name="space" unicode=" " horiz-adv-x="614" 
 />
    <glyph glyph-name="t" unicode="t" horiz-adv-x="524" 
d="M319 1298v-280h162v-125h-162v-674q0 -32 10.5 -53.5t28.5 -35.5t42 -20t51 -6q10 0 22 1t31 12v-119q-27 -6 -59.5 -11t-69.5 -5q-40 0 -76.5 10t-64 32.5t-44 59.5t-16.5 90v719h-147v125h147v280h145z" />
    <glyph glyph-name="three" unicode="3" horiz-adv-x="926" 
d="M76 815q19 166 106 262q85 94 273 94q161 0 256 -83q96 -83 96 -220q0 -98 -40 -156.5t-126 -90.5q41 -13 80 -35.5t69.5 -58t49 -85t18.5 -116.5q0 -83 -32.5 -147t-87.5 -107.5t-128.5 -65.5t-154.5 -22q-84 0 -154 24.5t-123.5 72.5t-88.5 120t-48 168h166
q24 -140 83 -196q61 -56 165 -56q47 0 90 14.5t75.5 42t52 66t19.5 86.5q0 95 -64 159q-63 66 -173 66h-95v133h95q52 0 87.5 15.5t57.5 40t31.5 55t9.5 61.5q0 87 -51.5 135.5t-138.5 48.5q-53 0 -90.5 -18t-62 -49t-38.5 -72t-20 -86h-164z" />
    <glyph glyph-name="threequarters" unicode="&#xbe;" horiz-adv-x="1720" 
d="M53 1266q8 62 28.5 111.5t57 84t91 52.5t130.5 18q66 0 119 -16.5t91 -46.5t58.5 -71.5t20.5 -92.5q0 -72 -33.5 -115t-101.5 -68q33 -9 64.5 -26t56.5 -43t40 -63t15 -85q0 -62 -26.5 -109.5t-71.5 -79.5t-105 -48.5t-127 -16.5q-84 0 -143 18.5t-98.5 54.5t-62 89
t-33.5 123h135q10 -51 27 -83.5t42 -51t58.5 -25t76.5 -6.5q39 0 74 8t61.5 24.5t42 42t15.5 60.5q0 68 -51.5 111t-141.5 43h-79v110h77q42 0 71.5 11.5t48 29.5t26.5 41t8 47q0 63 -43 89t-113 26q-43 0 -73.5 -10.5t-51 -29.5t-32 -46t-17.5 -61h-131zM645 -41h-125
l498 1573h121zM1307 0v209h-410v123l410 524h123v-549h135v-98h-135v-209h-123zM1010 307h297v385z" />
    <glyph glyph-name="two" unicode="2" horiz-adv-x="926" 
d="M76 799q18 167 123 271q107 104 288 104q91 0 160.5 -30t116.5 -80t71.5 -114t24.5 -131q0 -59 -15.5 -105.5t-43 -84.5t-64.5 -69.5t-80 -59.5q-39 -29 -80.5 -56t-83.5 -55t-83 -57.5t-80 -63.5q-29 -24 -47.5 -51.5t-30.5 -69.5h575v-147h-739v111q0 46 21.5 91
t58.5 88.5t85.5 85t101.5 81.5t108.5 78t105.5 75q58 41 91.5 88t33.5 121q0 52 -15 93.5t-42 69.5t-65.5 43t-84.5 15q-56 0 -101 -16.5t-76.5 -48t-48.5 -76t-17 -100.5h-168z" />
    <glyph glyph-name="u" unicode="u" horiz-adv-x="1006" 
d="M256 1018v-715q0 -52 17.5 -89.5t45 -61.5t62.5 -35t70 -11q41 0 84.5 14t83 38t72 56.5t50.5 70.5v733h146v-1018h-146v129h-6q-57 -75 -139.5 -111t-181.5 -36q-134 0 -219 65q-84 66 -84 201v770h145z" />
    <glyph glyph-name="underscore" unicode="_" horiz-adv-x="836" 
d="M836 -236v-116h-836v116h836z" />
    <glyph glyph-name="v" unicode="v" horiz-adv-x="932" 
d="M174 1018l293 -836l291 836h164l-373 -1018h-166l-373 1018h164z" />
    <glyph glyph-name="w" unicode="w" horiz-adv-x="1337" 
d="M166 1018l217 -799l217 799h137l217 -799l217 799h148l-279 -1018h-163l-207 797l-209 -797h-164l-279 1018h148z" />
    <glyph glyph-name="x" unicode="x" horiz-adv-x="913" 
d="M215 1018l242 -385l252 385h178l-352 -496l360 -522h-182l-256 399l-256 -399h-183l361 522l-342 496h178z" />
    <glyph glyph-name="y" unicode="y" horiz-adv-x="907" 
d="M180 1018l289 -809l281 809h141l-426 -1217q-44 -116 -105 -164q-61 -49 -118 -49q-29 0 -58.5 6.5t-54.5 16.5v139q23 -14 44.5 -26.5t49.5 -12.5q25 0 46.5 18.5t39 44t29.5 53.5t18 46l37 127l-375 1018h162z" />
    <glyph glyph-name="z" unicode="z" horiz-adv-x="932" 
d="M838 1018v-125l-596 -762l10 -4h602l2 -127h-797l-2 127l590 764l-10 2h-543v125h744z" />
    <glyph glyph-name="zero" unicode="0" horiz-adv-x="926" 
d="M461 1174q403 0 403 -586q0 -301 -100.5 -452.5t-302.5 -151.5t-303 151.5t-101 452.5q0 270 101 428q102 158 303 158zM461 1040q-125 0 -182 -107q-56 -107 -56 -345q0 -242 56.5 -356.5t181.5 -114.5t181 114.5t56 356.5q0 238 -56 345t-181 107z" />
    <glyph glyph-name=".null" 
 />
    <glyph glyph-name="ZWJ" unicode="&#x200d;" horiz-adv-x="536" 
d="M268 1067l158 158l45 -45l-158 -158l159 -159l-45 -45l-127 127v-977h-64v977l-127 -127l-45 45l159 159l-158 158l45 45z" />
    <glyph glyph-name="ZWNJ" unicode="&#x200c;" horiz-adv-x="192" 
d="M128 1024v-1024h-64v1024h64z" />
    <glyph glyph-name="kn_0" unicode="&#xce6;" horiz-adv-x="1237" 
d="M194 512q0 -91 33.5 -162t89 -120.5t127 -75.5t147.5 -26q75 0 146.5 27.5t127 78t89.5 121.5t34 157q0 84 -34.5 154.5t-90.5 121.5t-127 79.5t-145 28.5t-145 -28.5t-127 -79.5t-90.5 -121.5t-34.5 -154.5zM64 509q0 106 41.5 199t113 162t167.5 109t205 40t205 -40
t168 -109t113.5 -162t41.5 -199t-41.5 -198.5t-113.5 -161.5t-168 -109t-205 -40t-205 40t-167.5 109t-113 161.5t-41.5 198.5z" />
    <glyph glyph-name="kn_1" unicode="&#xce7;" horiz-adv-x="1157" 
d="M358 3q-64 30 -118 81t-93 115.5t-61 139.5t-22 153q0 106 38.5 202.5t104.5 169.5t154.5 116.5t189.5 43.5q67 0 129.5 -20t116.5 -55.5t98.5 -84.5t76.5 -108t49.5 -126t17.5 -138q0 -79 -21 -155t-59 -141t-91.5 -116t-118.5 -80l-38 124q45 23 81.5 62t62 88
t39.5 105t14 113q0 79 -28 152.5t-76.5 129t-113.5 89t-139 33.5t-139 -33.5t-113.5 -89t-76.5 -129t-28 -152.5q0 -57 15.5 -112t43 -104t65.5 -87.5t82 -62.5z" />
    <glyph glyph-name="kn_2" unicode="&#xce8;" horiz-adv-x="1462" 
d="M1024 704q0 -43 -12.5 -88t-42 -82.5t-78.5 -61.5t-123 -24q-54 0 -101 22.5t-81.5 60.5t-54 87.5t-19.5 103.5q0 67 25.5 122.5t69 95.5t102 62t123.5 22q114 0 208 -33t161.5 -98t105 -160.5t37.5 -220.5q0 -120 -42 -215t-117.5 -161t-181.5 -101t-235 -35h-704v128
h704q44 0 94.5 8t100 26t95.5 47.5t81 72t56 99.5t21 131q0 67 -14 126t-43.5 106.5t-76 82t-111.5 52.5q28 -40 40.5 -85t12.5 -90zM640 722q0 -31 10 -58t27.5 -46.5t41 -30.5t49.5 -11q31 0 55 12t40.5 32t24.5 46.5t8 56.5q0 21 -3.5 44t-13.5 45.5t-26.5 44t-41.5 38.5
q-38 -3 -69 -16t-54 -35t-35.5 -52.5t-12.5 -69.5z" />
    <glyph glyph-name="kn_3" unicode="&#xce9;" horiz-adv-x="1439" 
d="M1321 193q-14 -25 -41 -59.5t-64.5 -66.5t-84.5 -54.5t-101 -22.5q-50 0 -93 12.5t-81.5 33t-74 47.5t-69.5 56q-75 -72 -167.5 -110.5t-189.5 -38.5q-52 0 -104 13.5t-93.5 42t-67.5 71t-26 101.5q0 55 24.5 97t64.5 70.5t91.5 43t104.5 14.5q46 0 89 -12t83.5 -32.5
t78.5 -46.5t76 -54q38 59 58 125.5t20 129.5q0 75 -28.5 143t-82.5 118q-3 -70 -28.5 -118.5t-64.5 -79t-86.5 -44t-93.5 -13.5q-54 0 -99 17.5t-78 48t-51 71t-18 86.5q0 56 19.5 101.5t57 77.5t90.5 49.5t121 17.5q93 0 178.5 -38t150 -102t103 -149.5t38.5 -179.5
q0 -101 -27 -186t-75 -153q60 -43 121 -72.5t129 -29.5q35 0 68.5 13t63 33t53.5 45t40 48zM346 118q84 0 150 28t116 75q-29 22 -58.5 41t-62 33t-68 22t-75.5 8q-73 0 -114.5 -28.5t-41.5 -75.5q0 -27 16.5 -46.5t40 -32t50 -18.5t47.5 -6zM533 843q0 18 -3 38
q-55 19 -118 19q-41 0 -71 -10.5t-50 -27.5t-29.5 -39t-9.5 -44t8.5 -42t24 -35t38.5 -24t53 -9q34 0 63 12.5t50 35t32.5 55t11.5 71.5z" />
    <glyph glyph-name="kn_4" unicode="&#xcea;" horiz-adv-x="1429" 
d="M928 1018q102 0 175 -31.5t119 -78.5t67.5 -101.5t21.5 -100.5q0 -61 -20 -107.5t-54 -82.5t-79.5 -63t-97 -47.5t-105.5 -36t-106 -29.5l-25 -7q32 -26 51 -62t19 -88q0 -40 -18.5 -75t-48.5 -61.5t-68 -41.5t-78 -15t-78 14t-67.5 39.5t-47.5 61t-18 78.5q0 49 20.5 85
t55.5 63q-52 14 -108 29.5t-109.5 37t-101.5 49.5t-84 67.5t-57.5 91.5t-21.5 121q0 65 22 120t60 95.5t88 63t106 22.5q61 0 105.5 -20t73.5 -52.5t43 -73.5t14 -83q0 -50 -20 -89.5t-53 -66.5t-74.5 -41t-84.5 -14q-20 0 -43.5 6t-47 17.5t-45 28.5t-36.5 39
q14 -52 43.5 -88.5t70.5 -62.5t90 -44t101.5 -31.5t105.5 -25.5t101 -27q52 19 109.5 34.5t113 32.5t105.5 37.5t88 48t60.5 65t22.5 88.5q0 83 -52 133.5t-150 50.5zM339 900q-18 0 -39 -5.5t-40.5 -17.5t-37 -30.5t-27.5 -43.5q9 -29 27 -47.5t39 -29.5t43 -15.5t40 -4.5
q27 0 47 9t32.5 23t18.5 30.5t6 32.5q0 48 -30.5 73.5t-78.5 25.5zM588 192q0 -16 7 -31t19 -27t29 -19t38 -7q39 0 67 23.5t28 60.5q0 33 -25.5 56t-69.5 40q-42 -18 -67.5 -41t-25.5 -55z" />
    <glyph glyph-name="kn_5" unicode="&#xceb;" horiz-adv-x="1583" 
d="M1370 763q0 -92 -34 -156.5t-92.5 -108.5t-136 -71t-163.5 -43q10 -48 28 -94t46 -82t67.5 -58t93.5 -22q36 0 65 18t51 46.5t36 62t19 65.5l115 -45q-15 -72 -44.5 -124t-67.5 -85.5t-81.5 -49.5t-87.5 -16q-60 0 -118 22.5t-107.5 68.5t-86.5 114.5t-56 160.5
q-26 -3 -51.5 -6t-51.5 -5q-34 -174 -128.5 -269.5t-242.5 -95.5q-50 0 -94.5 13.5t-78.5 41t-54 70t-20 101.5q0 76 42 123t112 74t161.5 40t189.5 21q3 40 3 75q0 60 -14.5 115.5t-40.5 102.5q-9 -57 -35 -98.5t-61 -68t-77 -39t-84 -12.5q-54 0 -96 19t-71.5 51.5
t-44.5 74.5t-15 88q0 56 21 101.5t57.5 77.5t86 49.5t106.5 17.5q78 0 150 -38t126.5 -103.5t87 -152.5t32.5 -185q0 -17 -0.5 -33t-1.5 -32l72 7q0 11 -0.5 23t-0.5 24q0 109 27 199.5t73 155t108 100t131 35.5q68 0 112.5 -28t71 -69t37 -86.5t10.5 -81.5zM928 558v-23.5
t1 -25.5q67 12 124 30.5t99 49t66 74t24 105.5q0 34 -9.5 59t-25 41.5t-35 24t-39.5 7.5q-41 0 -78 -29.5t-65.5 -77.5t-45 -109.5t-16.5 -125.5zM343 118q52 0 91.5 18.5t68 50t47 72.5t29.5 85q-74 -6 -139 -14.5t-113 -22.5t-76 -37t-28 -59q0 -25 9.5 -42.5t26 -29
t38.5 -16.5t46 -5zM442 843q0 8 -0.5 16t-1.5 16q-48 25 -105 25q-32 0 -58 -10.5t-45 -28.5t-29.5 -41t-10.5 -48q0 -50 29.5 -76.5t75.5 -26.5q69 0 107 47.5t38 126.5z" />
    <glyph glyph-name="kn_6" unicode="&#xcec;" horiz-adv-x="1462" 
d="M638 1067q0 -23 -5 -48q58 -12 106.5 -41t83 -70t54 -92t19.5 -108q0 -54 -18.5 -101.5t-52.5 -82.5t-81.5 -55.5t-105.5 -20.5q-72 0 -121 20.5t-79 54t-43 75.5t-13 85q0 54 20 105t44 99q-61 -18 -108 -57.5t-79.5 -91t-49 -110.5t-16.5 -116q0 -74 21 -131t56 -99.5
t80.5 -72t95.5 -47.5t100 -26t94 -8h704v-128h-704q-129 0 -235 35t-181.5 101t-117.5 161t-42 215q0 117 36.5 209t98 157t141.5 102t166 45q2 8 3 15t1 15q0 23 -12 42t-32.5 33t-47.5 22t-56 8q-59 0 -108 -27t-75 -87l-114 58q18 38 44.5 70t63 55.5t84 37t108.5 13.5
q57 0 107 -19t86.5 -49.5t58 -68.5t21.5 -76zM510 695q0 -49 32.5 -84t95.5 -35q26 0 49.5 9t41.5 26t28.5 41.5t10.5 55.5q0 36 -12.5 67.5t-36.5 56.5t-58.5 41.5t-77.5 22.5l-9 -15q-24 -44 -44 -88t-20 -98z" />
    <glyph glyph-name="kn_7" unicode="&#xced;" horiz-adv-x="1410" 
d="M439 0q-72 0 -140 17.5t-120 52.5t-83.5 88t-31.5 125q0 77 29 127t76 82t107.5 50t123.5 30t123.5 23t107.5 29.5t76 48.5t29 80q0 44 -19 72.5t-48 45t-63.5 23t-65.5 6.5q-67 0 -111 -24.5t-70.5 -59t-37 -72t-11.5 -63.5l-117 26q6 63 32 121.5t70 102.5t105.5 70.5
t139.5 26.5q64 0 113 -13.5t85 -36t60 -51.5t39 -59.5t21 -60.5t6 -54q0 -76 -29 -126t-76 -82.5t-107.5 -51t-123 -31.5t-123 -24.5t-107.5 -29t-76 -45.5t-29 -75q0 -48 28.5 -79t68 -49t81 -25t67.5 -7h854v-128h-853z" />
    <glyph glyph-name="kn_8" unicode="&#xcee;" horiz-adv-x="1718" 
d="M684 -10q-75 0 -150 14.5t-144 45.5t-128.5 79.5t-103.5 115.5t-69 154t-25 195q0 95 29 174t78.5 136t115 88.5t139.5 31.5q57 0 98 -23.5t67.5 -60.5t39 -82.5t12.5 -89.5q0 -48 -17.5 -94t-50 -82t-77 -58t-98.5 -22q-24 0 -51 4.5t-54.5 14.5t-54 26.5t-48.5 39.5v-5
q0 -124 41 -213.5t109 -147.5t157 -85.5t185 -27.5q103 0 186 36t142 96.5t91 139t32 163.5q0 87 -29 175t-91 168h-23v128h608v-128h-442q52 -89 75 -174.5t23 -166.5q0 -118 -44 -221t-121.5 -179.5t-182 -120.5t-224.5 -44zM399 896q-54 0 -101 -40t-75 -106
q16 -36 38.5 -57.5t47 -33.5t47.5 -15.5t40 -3.5q27 0 49 13.5t37.5 33.5t24 42t8.5 39q0 24 -8 47t-23 41t-36.5 29t-48.5 11z" />
    <glyph glyph-name="kn_9" unicode="&#xcef;" horiz-adv-x="1165" 
d="M64 680q0 60 23.5 120.5t68 108.5t109 78.5t147.5 30.5h635v-128h-635q-42 0 -82 -14.5t-70.5 -41.5t-49 -66t-18.5 -87q0 -59 26 -106q52 60 128.5 92t169.5 32q46 0 89.5 -12.5t77.5 -37t54.5 -62t20.5 -88.5q0 -46 -20 -81t-53.5 -59t-77 -36.5t-91.5 -12.5
q-64 0 -130 14.5t-125 44.5v-19q0 -47 16.5 -87.5t46.5 -70.5t72.5 -47t94.5 -17h154v-128h-186q-72 0 -132 26.5t-103 72t-67 106t-24 128.5q0 63 17 120q-40 43 -63 99t-23 128zM517 430q15 0 34.5 4.5t37 14t29.5 23.5t12 34q0 17 -9 30.5t-24.5 23t-36 14.5t-44.5 5
q-65 0 -121.5 -22.5t-91.5 -70.5q43 -27 98 -41.5t116 -14.5z" />
    <glyph glyph-name="kn_a" unicode="&#xc85;" horiz-adv-x="1550" 
d="M592 576h383q-71 48 -98 100.5t-27 113.5q0 40 12 82.5t41 77t77 56.5t121 22q54 0 100 -18.5t82.5 -51t64.5 -76.5t46.5 -94t28 -104t9.5 -107q0 -106 -27.5 -191t-75.5 -150t-113 -111.5t-140 -76.5t-157 -44t-163 -14q-75 0 -155.5 15t-157.5 47t-145.5 81
t-120.5 117.5t-82.5 156.5t-30.5 198q0 91 21 168.5t60.5 134t97.5 88.5t132 32q57 0 98 -23.5t67.5 -61t39 -83.5t12.5 -92q0 -51 -17.5 -97.5t-50 -82t-77 -56t-98.5 -20.5q-45 0 -85 15.5t-75 54.5q2 -78 27 -143t67 -116.5t97.5 -90t117.5 -64t128.5 -38t129.5 -12.5
q64 0 129.5 10t126.5 32t114 58t92.5 87t62.5 119.5t23 155.5q0 75 -15 134t-41.5 100.5t-64 63.5t-82.5 22q-40 0 -65 -13.5t-38.5 -33t-18 -40t-4.5 -35.5q0 -35 16.5 -68t43.5 -60t61.5 -46.5t70.5 -27.5h21v-128h-596v128zM345 640q27 0 49 11.5t37.5 30t24 41.5t8.5 45
q0 26 -8 50t-23 42t-36.5 29t-48.5 11q-52 0 -87.5 -38.5t-54.5 -99.5q11 -40 27.5 -64t35.5 -37t39 -17t37 -4z" />
    <glyph glyph-name="kn_aa" unicode="&#xc86;" horiz-adv-x="1462" 
d="M600 576h303q-29 31 -50 80.5t-21 111.5q0 48 17 94.5t49.5 83.5t80 59.5t108.5 22.5q52 0 99 -19t82 -56t55.5 -91.5t20.5 -126.5q0 -29 -7.5 -67t-25 -76.5t-45.5 -71.5t-70 -51q13 -12 25.5 -26t22.5 -31t16 -38.5t6 -47.5q0 -85 -39 -148t-109 -105t-167.5 -62.5
t-215.5 -20.5q-83 0 -165 18t-156.5 54t-138.5 89t-111 122t-73.5 154.5t-26.5 186.5q0 91 22.5 167.5t64 131t100.5 85t133 30.5q57 0 98 -24t67 -62t38.5 -84t12.5 -90q0 -48 -17.5 -94t-49.5 -82t-76.5 -58t-98.5 -22q-45 0 -88 16.5t-77 54.5q3 -109 53 -195.5
t128 -146.5t173 -91.5t188 -31.5q90 0 164.5 15t127.5 42t82 65t29 84q0 37 -27.5 67.5t-76.5 56.5h-434v128zM1216 732q0 48 -14 80t-34 51.5t-42 28t-39 8.5q-40 0 -65 -15t-38.5 -36t-18.5 -43.5t-5 -37.5q0 -37 9 -65.5t24 -51t35 -41t43 -34.5q45 0 73.5 17t44.5 41
t21.5 50.5t5.5 47.5zM354 640q27 0 49 13.5t37.5 33.5t23.5 42t8 39q0 24 -8 47.5t-23 42.5t-36 30.5t-48 11.5q-54 0 -90 -35t-55 -94q5 -41 21 -66.5t37 -40t43.5 -19.5t40.5 -5z" />
    <glyph glyph-name="kn_ai" unicode="&#xc90;" horiz-adv-x="1443" 
d="M376 -10q-55 0 -110 18t-99 56t-71.5 97t-27.5 142q0 74 27.5 128t70 89.5t95 52.5t102.5 17l-16 -128q-21 -3 -47 -12t-49.5 -27.5t-39 -49t-15.5 -76.5t16.5 -80t42.5 -56t58.5 -32.5t64.5 -10.5q54 0 94.5 22.5t68 57t41.5 76t14 80.5h128q0 -55 20.5 -98.5t52.5 -74
t71.5 -47t77.5 -16.5q45 0 90 23.5t81 71t58 120t22 170.5q0 75 -17 146.5t-49 127t-80 89.5t-109 34q-51 0 -91.5 -22.5t-68.5 -57t-43 -76t-15 -80.5h-128q0 55 -16.5 98.5t-43.5 74t-62.5 47t-73.5 16.5q-42 0 -79.5 -13.5t-65 -39.5t-44 -64t-16.5 -87q0 -6 0.5 -12
t1.5 -13v-6l-129 -17q-2 13 -3 25.5t-1 25.5q0 67 24.5 127t68.5 105t106.5 71t139.5 26q41 0 81.5 -10.5t75.5 -30.5t62 -50t42 -70q17 33 41 62.5t56.5 51.5t73 34.5t89.5 12.5q89 0 162.5 -41t126.5 -112t82.5 -167t29.5 -206q0 -115 -28.5 -209t-79.5 -161.5
t-121.5 -104.5t-154.5 -37q-109 0 -179 47t-102 127q-41 -93 -112 -133.5t-172 -40.5z" />
    <glyph glyph-name="kn_au" unicode="&#xc94;" horiz-adv-x="1445" 
d="M381 -10q-51 0 -106.5 14.5t-102.5 49t-77.5 91.5t-30.5 142q0 70 33 121.5t83 92t108 73t108 64t83 65.5t33 78q0 30 -13 50.5t-33.5 33.5t-45.5 19t-49 6q-42 0 -73.5 -13.5t-53 -34t-34.5 -45t-18 -46.5l-60 22q-23 8 -41 15t-18 8q13 47 38 89t62 74t85 50.5
t108 18.5h119q18 0 35.5 7t30.5 20t21 30t8 37q0 18 -8.5 34.5t-22 29t-30.5 19.5t-34 7h-417v128h905q95 0 162.5 -23.5t110 -64.5t62 -96.5t19.5 -120.5q0 -57 -18.5 -104.5t-52 -82.5t-80.5 -54.5t-104 -19.5q-61 0 -108 21t-79.5 55.5t-49 78t-16.5 87.5h127
q0 -27 10 -48t27 -36t39.5 -22.5t47.5 -7.5q54 0 91.5 35.5t37.5 104.5q0 80 -60 125t-169 45h-314q23 -21 37.5 -53.5t14.5 -63.5q0 -54 -32 -99.5t-80 -71.5q44 -62 44 -156q0 -51 -19.5 -91t-51 -72t-71.5 -58t-82 -49t-82.5 -45t-72 -47t-50.5 -54.5t-19 -66.5
q0 -47 19.5 -79t49.5 -51.5t66.5 -28t69.5 -8.5q38 0 76.5 16.5t69.5 47t52 74t24 98.5h128q4 -44 18.5 -86.5t41 -75.5t65.5 -53.5t93 -20.5q32 0 64.5 10.5t58.5 32.5t42.5 56t16.5 80t-15.5 76.5t-39 49t-49.5 27.5t-47 12l-16 128q50 0 102.5 -17t95 -52.5t70 -89.5
t27.5 -128q0 -83 -27.5 -142t-71.5 -97t-99 -56t-110 -18q-51 0 -96 12.5t-81.5 35.5t-64 55.5t-42.5 73.5q-13 -40 -42 -72.5t-68.5 -56t-88.5 -36t-103 -12.5z" />
    <glyph glyph-name="kn_ba" unicode="&#xcac;" horiz-adv-x="1477" 
d="M967 -10q-51 0 -96 12.5t-81.5 35.5t-64 55.5t-42.5 73.5q-13 -40 -42 -72.5t-68.5 -56t-88.5 -36t-103 -12.5q-51 0 -106.5 14.5t-102.5 49t-77.5 91.5t-30.5 142q0 70 33 121.5t83 92t108 73t108 64t83 65.5t33 78q0 30 -13 50.5t-33.5 33.5t-45.5 19t-49 6
q-42 0 -73.5 -13.5t-53 -34t-34.5 -45t-18 -46.5l-60 22q-23 8 -41 15t-18 8q13 47 38 89t62 74t85 50.5t108 18.5q63 0 113.5 -17.5t86 -51t55 -82t19.5 -109.5q0 -51 -19.5 -91t-51 -72t-71.5 -58t-82 -49t-82.5 -45t-72 -47t-50.5 -54.5t-19 -66.5q0 -47 19.5 -79
t49.5 -51.5t66.5 -28t69.5 -8.5q38 0 76.5 16.5t69.5 47t52 74t24 98.5h128q4 -44 18.5 -86.5t41 -75.5t65.5 -53.5t93 -20.5q68 0 118 27.5t83 73.5t49 105.5t16 123.5q0 58 -14.5 120.5t-52 126.5t-102.5 127t-167 123l64 102q120 -63 197.5 -139.5t122.5 -156.5
t62.5 -158.5t17.5 -144.5q0 -108 -28 -193t-79.5 -144t-124 -90t-160.5 -31z" />
    <glyph glyph-name="kn_bha" unicode="&#xcad;" horiz-adv-x="1478" 
d="M1359 448q0 -108 -28 -193t-79.5 -144t-124 -90t-160.5 -31q-51 0 -96 12.5t-81.5 35.5t-64 55.5t-42.5 73.5q-13 -40 -42 -72.5t-68.5 -56t-88.5 -36t-103 -12.5q-51 0 -106.5 14.5t-102.5 49t-77.5 91.5t-30.5 142q0 70 33 121.5t83 92t108 73t108 64t83 65.5t33 78
q0 30 -13 50.5t-33.5 33.5t-45.5 19t-49 6q-42 0 -73.5 -13.5t-53 -34t-34.5 -45t-18 -46.5l-60 22q-23 8 -41 15t-18 8q13 47 38 89t62 74t85 50.5t108 18.5q63 0 113.5 -17.5t86 -51t55 -82t19.5 -109.5q0 -51 -19.5 -91t-51 -72t-71.5 -58t-82 -49t-82.5 -45t-72 -47
t-50.5 -54.5t-19 -66.5q0 -47 19.5 -79t49.5 -51.5t66.5 -28t69.5 -8.5q38 0 76.5 16.5t69.5 47t52 74t24 98.5h128q4 -44 18.5 -86.5t41 -75.5t65.5 -53.5t93 -20.5q68 0 118 27.5t83 73.5t49 105.5t16 123.5q0 39 -9.5 85t-29.5 92.5t-50.5 91.5t-72 81t-95.5 60.5
t-120 31.5h-43v128h242q98 0 144.5 41.5t46.5 105.5q0 18 -5 36t-13.5 33.5t-19 28.5t-22.5 22l66 83q28 -21 49 -47t34.5 -54t20 -57.5t6.5 -57.5q0 -43 -15 -85t-44 -76.5t-72 -59t-100 -31.5q64 -41 108 -98.5t71 -119.5t39 -123.5t12 -110.5zM777 -133q0 -17 -7 -33.5
t-19.5 -29t-30 -20t-37.5 -7.5t-37 8t-30 20.5t-20 28.5t-7 33q0 27 8.5 54t22 52.5t30.5 50t33 46.5q17 -23 34 -46.5t30.5 -49t21.5 -52.5t8 -55z" />
    <glyph glyph-name="kn_ca" unicode="&#xc9a;" horiz-adv-x="1396" 
d="M1275 638v-127h-64q29 -40 46.5 -89.5t17.5 -108.5q0 -83 -27.5 -144t-71.5 -100.5t-99 -59t-110 -19.5q-51 0 -96 12.5t-81.5 35.5t-64 55.5t-42.5 73.5q-13 -40 -42 -72.5t-68.5 -56t-88.5 -36t-103 -12.5q-51 0 -106.5 14.5t-102.5 49t-77.5 91.5t-30.5 142
q0 70 33 121.5t83 92t108 73t108 64t83 65.5t33 78q0 30 -13 50.5t-33.5 33.5t-45.5 19t-49 6q-42 0 -73.5 -13.5t-53 -34t-34.5 -45t-18 -46.5l-60 22q-23 8 -41 15t-18 8q13 47 38 89t62 74t85 50.5t108 18.5q63 0 113.5 -17.5t86 -51t55 -82t19.5 -109.5q0 -51 -19.5 -91
t-51 -72t-71.5 -58t-82 -49t-82.5 -45t-72 -47t-50.5 -54.5t-19 -66.5q0 -47 19.5 -79t49.5 -51.5t66.5 -28t69.5 -8.5q38 0 76.5 16.5t69.5 47t52 74t24 98.5h128q4 -44 18.5 -86.5t41 -75.5t65.5 -53.5t93 -20.5q32 0 64.5 12t58.5 36.5t42.5 62t16.5 88.5q0 43 -11.5 76
t-27.5 57t-33.5 39.5t-29.5 21.5h-237v127h241q11 3 27.5 12t32.5 24.5t27 37t11 49.5q0 30 -12.5 53t-29.5 39t-34.5 25.5t-28.5 11.5h-234v128h256q30 2 59 13.5t52 30.5t37 45t14 58q0 18 -5 36t-13.5 33.5t-19 28.5t-22.5 22l66 83q28 -21 49 -47t34.5 -54t20 -57.5
t6.5 -57.5q0 -68 -30.5 -128.5t-97.5 -95.5q28 -29 44.5 -65t16.5 -88q0 -22 -6 -43.5t-15 -39.5t-20.5 -32t-22.5 -22h64z" />
    <glyph glyph-name="kn_cha" unicode="&#xc9b;" horiz-adv-x="1638" 
d="M1519 448q0 -108 -28 -193t-79.5 -144t-124 -90t-160.5 -31q-50 0 -96.5 13.5t-87 37.5t-72.5 58t-53 75q-29 -45 -66.5 -79.5t-79.5 -58t-85 -35t-82 -11.5q-77 0 -155.5 28.5t-142 88.5t-103.5 152.5t-40 219.5q0 115 29 215t78.5 174t115 117t137.5 43q60 0 102.5 -25
t70 -62.5t40 -81.5t12.5 -81q0 -48 -17.5 -94t-50 -82t-77 -58t-98.5 -22t-106 24.5t-87 83.5q-9 -40 -15 -75.5t-6 -75.5q0 -98 29.5 -166.5t74.5 -112t99 -63t103 -19.5q50 0 96.5 22.5t82 57t56.5 76t21 80.5h128q0 -47 22 -89.5t57.5 -75t78.5 -52t85 -19.5
q68 0 118 27.5t83 73.5t49 105.5t16 123.5q0 39 -9.5 85t-29.5 92.5t-50.5 91.5t-72 81t-95.5 60.5t-120 31.5h-43v128h242q98 0 144.5 41.5t46.5 105.5q0 18 -5 36t-13.5 33.5t-19 28.5t-22.5 22l66 83q28 -21 49 -47t34.5 -54t20 -57.5t6.5 -57.5q0 -43 -15 -85t-44 -76.5
t-72 -59t-100 -31.5q64 -41 108 -98.5t71 -119.5t39 -123.5t12 -110.5zM402 650q27 0 49 13.5t37.5 33.5t24 42t8.5 39q0 24 -8 47t-23 41t-36.5 29t-48.5 11q-40 0 -76.5 -37t-65.5 -97q11 -40 27.5 -64t35.5 -37t39 -17t37 -4zM913 -132q0 -17 -7 -33.5t-19.5 -29t-30 -20
t-37.5 -7.5t-37 8t-30 20.5t-20 28.5t-7 33q0 27 8.5 54t22 52.5t30.5 50t33 46.5q17 -23 34 -46.5t30.5 -49t21.5 -52.5t8 -55z" />
    <glyph glyph-name="kn_da" unicode="&#xca6;" horiz-adv-x="1514" 
d="M796 319q9 -27 26.5 -62t45.5 -66t66 -52t88 -21q51 0 95.5 20.5t77.5 61t52 101t19 139.5q0 75 -23.5 138t-64 113t-94 87.5t-113.5 62t-122 37t-120 12.5t-120 -12.5t-122 -37t-113.5 -62t-94 -87.5t-64 -113t-23.5 -138q0 -79 19 -139.5t52 -101t77.5 -61t95.5 -20.5
q49 0 87.5 21t66.5 52t45.5 66t26.5 62h134zM64 890v128h1094q98 0 144.5 41.5t46.5 105.5q0 18 -5 36t-13.5 33.5t-19 28.5t-22.5 22l66 83q28 -21 49 -47t34.5 -54t20 -57.5t6.5 -57.5q0 -52 -17.5 -99.5t-54.5 -83.5t-95 -57.5t-139 -21.5h-21q58 -38 105.5 -86.5
t81 -106t51.5 -122.5t18 -136q0 -99 -27 -181.5t-75.5 -142t-117.5 -92.5t-153 -33q-35 0 -75 8.5t-79 29t-75 55t-63 85.5q-27 -51 -63 -85.5t-75 -55t-79 -29t-75 -8.5q-84 0 -153 33t-117.5 92.5t-75.5 142t-27 181.5q0 71 18 136t51.5 122.5t80.5 106t105 86.5h-255z
" />
    <glyph glyph-name="kn_dda" unicode="&#xca1;" horiz-adv-x="1411" 
d="M691 890q-90 0 -179 -28.5t-160.5 -88t-115.5 -151.5t-44 -218q0 -56 13.5 -107.5t41 -91t71 -63.5t103.5 -24q50 0 87 21t62 52t39 66t18 63h128q3 -36 18 -72t41 -65t62.5 -47t83.5 -18q43 0 81.5 15.5t68 41.5t46.5 61t17 74q0 57 -19 100.5t-45 63.5q-17 -29 -50 -48
t-76 -19q-28 0 -51.5 9.5t-41 26.5t-27.5 40.5t-10 52.5q0 24 9.5 47t28 41t45 28.5t59.5 10.5q19 0 39 -3q-8 58 -43.5 101t-85 71.5t-106.5 43t-108 14.5zM64 890v128h988q98 0 144.5 41.5t46.5 105.5q0 18 -5 36t-13.5 33.5t-19 28.5t-22.5 22l66 83q28 -21 49 -47
t34.5 -54t20 -57.5t6.5 -57.5q0 -52 -17.5 -99.5t-54.5 -83.5t-95 -57.5t-139 -21.5h-21q54 -48 86 -109.5t32 -135.5v-16.5t-2 -17.5q33 -24 59.5 -57.5t45 -73t28.5 -82.5t10 -87q0 -75 -29 -134.5t-76 -101t-108.5 -63.5t-125.5 -22q-37 0 -75.5 10t-74 30.5t-64.5 52
t-47 73.5q-42 -83 -114.5 -124.5t-155.5 -41.5q-98 0 -165.5 39.5t-110.5 101t-62 136t-19 145.5q0 76 17 145.5t48.5 130t75.5 111.5t98 91h-239z" />
    <glyph glyph-name="kn_ddha" unicode="&#xca2;" horiz-adv-x="1411" 
d="M785 -132q0 -17 -7 -33.5t-19.5 -29t-30 -20t-37.5 -7.5t-37 8t-30 20.5t-20 28.5t-7 33q0 27 8.5 54t22 52.5t30.5 50t33 46.5q17 -23 34 -46.5t30.5 -49t21.5 -52.5t8 -55zM691 890q-90 0 -179 -28.5t-160.5 -88t-115.5 -151.5t-44 -218q0 -56 13.5 -107.5t41 -91
t71 -63.5t103.5 -24q50 0 87 21t62 52t39 66t18 63h128q3 -36 18 -72t41 -65t62.5 -47t83.5 -18q43 0 81.5 15.5t68 41.5t46.5 61t17 74q0 57 -19 100.5t-45 63.5q-17 -29 -50 -48t-76 -19q-28 0 -51.5 9.5t-41 26.5t-27.5 40.5t-10 52.5q0 24 9.5 47t28 41t45 28.5
t59.5 10.5q19 0 39 -3q-8 58 -43.5 101t-85 71.5t-106.5 43t-108 14.5zM64 890v128h988q98 0 144.5 41.5t46.5 105.5q0 18 -5 36t-13.5 33.5t-19 28.5t-22.5 22l66 83q28 -21 49 -47t34.5 -54t20 -57.5t6.5 -57.5q0 -52 -17.5 -99.5t-54.5 -83.5t-95 -57.5t-139 -21.5h-21
q54 -48 86 -109.5t32 -135.5v-16.5t-2 -17.5q33 -24 59.5 -57.5t45 -73t28.5 -82.5t10 -87q0 -75 -29 -134.5t-76 -101t-108.5 -63.5t-125.5 -22q-37 0 -75.5 10t-74 30.5t-64.5 52t-47 73.5q-42 -83 -114.5 -124.5t-155.5 -41.5q-98 0 -165.5 39.5t-110.5 101t-62 136
t-19 145.5q0 76 17 145.5t48.5 130t75.5 111.5t98 91h-239z" />
    <glyph glyph-name="kn_dha" unicode="&#xca7;" horiz-adv-x="1514" 
d="M796 319q9 -27 26.5 -62t45.5 -66t66 -52t88 -21q51 0 95.5 20.5t77.5 61t52 101t19 139.5q0 75 -23.5 138t-64 113t-94 87.5t-113.5 62t-122 37t-120 12.5t-120 -12.5t-122 -37t-113.5 -62t-94 -87.5t-64 -113t-23.5 -138q0 -79 19 -139.5t52 -101t77.5 -61t95.5 -20.5
q49 0 87.5 21t66.5 52t45.5 66t26.5 62h134zM823 -132q0 -17 -7 -33.5t-19.5 -29t-30 -20t-37.5 -7.5t-37 8t-30 20.5t-20 28.5t-7 33q0 27 8.5 54t22 52.5t30.5 50t33 46.5q17 -23 34 -46.5t30.5 -49t21.5 -52.5t8 -55zM64 890v128h1094q98 0 144.5 41.5t46.5 105.5
q0 18 -5 36t-13.5 33.5t-19 28.5t-22.5 22l66 83q28 -21 49 -47t34.5 -54t20 -57.5t6.5 -57.5q0 -52 -17.5 -99.5t-54.5 -83.5t-95 -57.5t-139 -21.5h-21q58 -38 105.5 -86.5t81 -106t51.5 -122.5t18 -136q0 -99 -27 -181.5t-75.5 -142t-117.5 -92.5t-153 -33q-35 0 -75 8.5
t-79 29t-75 55t-63 85.5q-27 -51 -63 -85.5t-75 -55t-79 -29t-75 -8.5q-84 0 -153 33t-117.5 92.5t-75.5 142t-27 181.5q0 71 18 136t51.5 122.5t80.5 106t105 86.5h-255z" />
    <glyph glyph-name="kn_e" unicode="&#xc8e;" horiz-adv-x="1404" 
d="M931 -10q-50 0 -94 12.5t-80 36t-62 56t-39 72.5q-15 -41 -42.5 -73.5t-64.5 -55.5t-81.5 -35.5t-95.5 -12.5q-55 0 -110 18t-99 56t-71.5 97t-27.5 142q0 74 27.5 128t70 89.5t95 52.5t102.5 17l-16 -128q-21 -3 -47 -12t-49.5 -27.5t-39 -49t-15.5 -76.5t16.5 -80
t42.5 -56t58.5 -32.5t64.5 -10.5q54 0 93 20.5t65.5 53.5t41 75.5t18.5 86.5h128q3 -55 24 -98.5t52 -74t69.5 -47t76.5 -16.5q45 0 84.5 15.5t69 45.5t46 73.5t16.5 100.5q0 112 -47 203t-122.5 160.5t-171 115.5t-191.5 68q0 -1 4.5 19t10.5 44t10.5 44.5l4.5 20.5
q127 -32 241 -91.5t200.5 -144t137.5 -194t51 -241.5q0 -79 -24 -146t-70 -116t-111.5 -77t-149.5 -28z" />
    <glyph glyph-name="kn_ee" unicode="&#xc8f;" horiz-adv-x="1404" 
d="M372 -10q-55 0 -110 18t-99 56t-71.5 97t-27.5 142q0 74 27.5 128t70 89.5t95 52.5t102.5 17l-16 -128q-21 -3 -47 -12t-49.5 -27.5t-39 -49t-15.5 -76.5t16.5 -80t42.5 -56t58.5 -32.5t64.5 -10.5q54 0 94.5 22.5t68 57t41.5 76t14 80.5h128q0 -55 20.5 -98.5t52.5 -74
t71.5 -47t77.5 -16.5q45 0 84.5 15.5t69 45.5t46 73.5t16.5 100.5q0 100 -38.5 184t-101.5 150.5t-145 114t-169 76.5q-43 -54 -105 -85t-143 -31q-55 0 -109.5 20t-97.5 59.5t-70 99.5t-27 140q0 24 3 47l128 -18q-3 -17 -3 -34q0 -51 17.5 -86.5t45 -57.5t60.5 -32t65 -10
q33 0 62 12t53 31.5t42.5 44t30.5 50.5q127 -32 241 -91.5t200.5 -144t137.5 -194t51 -241.5q0 -79 -24 -146t-70 -116t-111.5 -77t-149.5 -28q-100 0 -171.5 47t-103.5 127q-41 -93 -112 -133.5t-172 -40.5z" />
    <glyph glyph-name="kn_ga" unicode="&#xc97;" horiz-adv-x="1201" 
d="M64 890v128h821q92 0 141.5 41.5t49.5 105.5q0 18 -5.5 37t-14.5 36.5t-20 32.5t-22 26l78 75q51 -50 75.5 -106.5t24.5 -113.5q0 -51 -17 -98t-53 -83t-92.5 -58t-134.5 -23q42 -38 76 -84.5t58.5 -100t38 -113.5t13.5 -124q0 -110 -43.5 -228.5t-144.5 -239.5l-96 83
q81 86 118.5 185.5t37.5 198.5q0 85 -25.5 161.5t-74.5 134.5t-119.5 92.5t-161.5 34.5t-162 -34.5t-119.5 -92.5t-73.5 -134.5t-25 -161.5q0 -99 37.5 -198.5t118.5 -185.5l-95 -83q-101 121 -145 240t-44 229q0 129 51 237t134 184h-185z" />
    <glyph glyph-name="kn_gha" unicode="&#xc98;" horiz-adv-x="1511" 
d="M1065 714q28 -19 58.5 -36t65.5 -17q34 0 61 22.5t27 64.5q0 20 -7 38t-17.5 33t-23 27t-23.5 20l71 85q51 -35 83.5 -88t32.5 -110q0 -39 -12.5 -73t-36 -59.5t-56 -43t-71.5 -23.5q30 -45 49.5 -98.5t19.5 -116.5q0 -79 -24.5 -143.5t-70 -110t-110 -70.5t-144.5 -25
q-50 0 -95 14t-82 38t-64 56t-40 69q-15 -41 -42.5 -73.5t-64.5 -55.5t-81.5 -35.5t-95.5 -12.5q-55 0 -110 18t-99 56t-71.5 97t-27.5 142q0 74 27.5 128t70 89.5t95 52.5t102.5 17l-16 -128q-21 -3 -47 -12t-49.5 -27.5t-39 -49t-15.5 -76.5t16.5 -80t42.5 -56t58.5 -32.5
t64.5 -10.5q54 0 93 20.5t65.5 53.5t41 75.5t18.5 86.5h128q3 -55 24 -98.5t52 -74t69.5 -47t76.5 -16.5q45 0 84.5 14t69 42.5t46 70.5t16.5 99q0 46 -16.5 86.5t-42.5 74t-57 61t-59 48.5zM64 890v128h870q98 0 144.5 41.5t46.5 105.5q0 18 -5 36t-13.5 33.5t-19 28.5
t-22.5 22l66 83q28 -21 49 -47t34.5 -54t20 -57.5t6.5 -57.5q0 -52 -17.5 -99.5t-54.5 -83.5t-95 -57.5t-139 -21.5h-871zM750 -132q0 -17 -7 -33.5t-19.5 -29t-30 -20t-37.5 -7.5t-37 8t-30 20.5t-20 28.5t-7 33q0 27 8.5 54t22 52.5t30.5 50t33 46.5q17 -23 34 -46.5
t30.5 -49t21.5 -52.5t8 -55zM548 630q0 22 8.5 41.5t23 34t34 23t42.5 8.5q22 0 42 -8.5t35 -23t23.5 -34t8.5 -41.5t-8.5 -41.5t-23.5 -34t-35 -23t-42 -8.5q-23 0 -42.5 8.5t-34 23t-23 34t-8.5 41.5z" />
    <glyph glyph-name="kn_ha" unicode="&#xcb9;" horiz-adv-x="1624" 
d="M833 377q0 -54 21 -101t58 -82.5t86.5 -55.5t105.5 -20t105.5 20t86.5 55.5t58.5 82.5t21.5 101t-21.5 101.5t-58.5 82.5t-86.5 55.5t-105.5 20.5t-105.5 -20.5t-86.5 -55.5t-58 -82.5t-21 -101.5zM202 377q0 -54 20.5 -101t55.5 -82.5t83 -55.5t102 -20t102 20
t83.5 55.5t56 82.5t20.5 101t-20.5 101.5t-56 82.5t-83.5 55.5t-102 20.5t-102 -20.5t-83 -55.5t-55.5 -82.5t-20.5 -101.5zM64 890v128h1183q98 0 144.5 41.5t46.5 105.5q0 18 -5 36t-13.5 33.5t-19 28.5t-22.5 22l66 83q28 -21 49 -47t34.5 -54t20 -57.5t6.5 -57.5
q0 -52 -17.5 -99.5t-54.5 -83.5t-95 -57.5t-139 -21.5h-575q24 -18 48.5 -45t46 -59t38.5 -68t26 -73q54 56 126 88t156 32q81 0 152 -30.5t124 -83t83.5 -123.5t30.5 -151t-30.5 -150.5t-83.5 -123t-124 -83t-152 -30.5q-53 0 -102.5 13.5t-92.5 38.5t-79 60t-61 77
q-25 -42 -59.5 -77t-76.5 -60t-90 -38.5t-100 -13.5q-79 0 -148 30.5t-120.5 83t-81 123t-29.5 150.5t29.5 151t81 123.5t120.5 83t148 30.5q72 0 135 -25t113 -70q-20 58 -68 116.5t-129 103.5h-440z" />
    <glyph glyph-name="kn_i" unicode="&#xc87;" horiz-adv-x="1590" 
d="M335 490l-79 -106q-97 64 -144.5 142.5t-47.5 177.5q0 75 27 135t71.5 102t103 64.5t121.5 22.5q77 0 138.5 -24t108.5 -63t80 -89.5t54 -103.5q17 55 50.5 106t79.5 89.5t102.5 61.5t121.5 23q78 0 142.5 -27.5t110.5 -77.5t71.5 -119t25.5 -152q0 -53 -12 -108.5
t-35 -110.5t-56.5 -107.5t-76.5 -100.5q17 -35 27 -74t10 -81q0 -38 -9 -79t-24.5 -80t-37.5 -74.5t-48 -62.5l-107 70q21 25 40 51.5t34 54t24 56t9 57.5q0 21 -2.5 40.5t-7.5 36.5q-41 -32 -83.5 -59t-90.5 -47.5t-102.5 -32t-119.5 -11.5q-72 0 -129 18.5t-97 50.5
t-61.5 75t-21.5 93q0 48 16.5 85t44 64.5t62 46.5t71 30.5t71 16.5t61.5 5q118 0 220 -39t173 -107q58 67 93.5 151t35.5 183q0 54 -17 97.5t-47 74t-71 47t-89 16.5q-61 0 -108.5 -30t-82.5 -76.5t-59 -103.5t-37 -112h-128q-8 46 -31.5 102.5t-63 105.5t-95 82.5
t-127.5 33.5q-46 0 -82 -17.5t-61 -45t-38.5 -62.5t-13.5 -71q0 -69 35.5 -118.5t107.5 -95.5zM818 118q81 0 160 37t154 96q-33 30 -74.5 49t-83.5 29.5t-81.5 14t-68.5 3.5q-32 0 -67 -8.5t-64 -24.5t-48 -38t-19 -49q0 -26 18 -46t46 -34t62 -21.5t66 -7.5z" />
    <glyph glyph-name="kn_ii" unicode="&#xc88;" horiz-adv-x="2005" 
d="M195 890v128h900q92 0 141.5 41.5t49.5 105.5q0 18 -5.5 37t-14.5 36.5t-20 32.5t-22 26l78 75q51 -50 75.5 -106.5t24.5 -113.5q0 -52 -17.5 -99.5t-54.5 -83.5t-95 -57.5t-139 -21.5h-24q70 -60 115 -140t58 -174h188q-26 35 -42 77t-16 96q0 44 17 89t50 81t80.5 58.5
t108.5 22.5q57 0 104 -23t81 -60.5t52.5 -84.5t18.5 -96q0 -194 -142 -258q29 -22 54.5 -46.5t45 -52t31 -59.5t11.5 -70q0 -55 -14 -101t-43 -79t-72.5 -51.5t-101.5 -18.5q-40 0 -73 10.5t-59 26t-45 33t-31 31.5l75 102q23 -30 52 -52.5t74 -22.5q37 0 59 13t33.5 32
t14.5 39t3 34q0 30 -13 55t-35.5 47.5t-51.5 43.5t-60 42q-5 3 -10 6.5t-10 7.5h-333q-12 -96 -57.5 -179.5t-115.5 -145.5t-160 -97.5t-191 -35.5t-191 35.5t-160 97.5t-115 145.5t-57 179.5h-135v128h135q13 94 58 174t115 140h-177zM722 118q68 0 133 24t118.5 67.5
t91 104t49.5 134.5h-785q12 -77 49 -138t90.5 -104t119 -65.5t134.5 -22.5zM827 890h-211q-52 -16 -99 -45.5t-85 -70t-64.5 -90.5t-36.5 -108h782q-10 57 -36.5 107.5t-64.5 91t-85.5 70t-99.5 45.5zM1759 736q0 21 -9 44.5t-25.5 44t-40 34t-53.5 13.5q-64 0 -96 -34.5
t-32 -88.5q0 -53 30.5 -94t75.5 -78q30 3 57 13t48 29.5t33 48t12 68.5z" />
    <glyph glyph-name="kn_ja" unicode="&#xc9c;" horiz-adv-x="1393" 
d="M381 -10q-51 0 -106.5 14.5t-102.5 49t-77.5 91.5t-30.5 142q0 70 33 121.5t83 92t108 73t108 64t83 65.5t33 78q0 30 -13 50.5t-33.5 33.5t-45.5 19t-49 6q-42 0 -73.5 -13.5t-53 -34t-34.5 -45t-18 -46.5l-60 22q-23 8 -41 15t-18 8q13 47 38 89t62 74t85 50.5
t108 18.5q97 0 163 -40.5t94 -115.5q60 -51 122.5 -80t134.5 -29q48 0 80.5 26t32.5 66q0 21 -8.5 40.5t-19.5 30.5l92 53q29 -27 47 -66.5t18 -75.5q0 -40 -18 -75t-49.5 -61t-75.5 -41t-95 -15q-75 0 -136.5 23.5t-111.5 57.5q-11 -59 -48 -101t-86.5 -75.5t-104 -61.5
t-100 -57.5t-75.5 -64t-30 -81.5t19.5 -79t49.5 -51.5t66.5 -28t69.5 -8.5q38 0 76.5 16.5t69.5 47t52 74t24 98.5h128q4 -44 18.5 -86.5t41 -75.5t65.5 -53.5t93 -20.5q32 0 64.5 10.5t58.5 32.5t42.5 56t16.5 80t-15.5 76.5t-39 49t-49.5 27.5t-47 12l-16 128
q50 0 102.5 -17t95 -52.5t70 -89.5t27.5 -128q0 -83 -27.5 -142t-71.5 -97t-99 -56t-110 -18q-51 0 -96 12.5t-81.5 35.5t-64 55.5t-42.5 73.5q-13 -40 -42 -72.5t-68.5 -56t-88.5 -36t-103 -12.5z" />
    <glyph glyph-name="kn_jha" unicode="&#xc9d;" horiz-adv-x="2394" 
d="M64 504q0 116 49.5 215.5t134.5 170.5h-184v128h779q98 0 144.5 41.5t46.5 105.5q0 18 -5 36t-13.5 33.5t-19 28.5t-22.5 22l66 83q28 -21 49 -47t34.5 -54t20 -57.5t6.5 -57.5q0 -43 -12 -83.5t-37.5 -74t-65 -58t-93.5 -36.5q90 -71 143 -173t53 -223
q0 -62 -14.5 -119.5t-41.5 -108.5q14 -32 37.5 -60.5t52 -50t60 -34.5t61.5 -13q68 0 118 27.5t82.5 73.5t48.5 105.5t16 123.5q0 58 -14.5 120.5t-52 126.5t-102.5 127t-167 123l64 102q120 -63 197.5 -139.5t122.5 -156.5t62.5 -158.5t17.5 -144.5q0 -82 -17 -153
q11 -36 33.5 -68.5t51.5 -56.5t62.5 -38t66.5 -14q68 0 118 27.5t82.5 73.5t48.5 105.5t16 123.5q0 58 -14.5 120.5t-52 126.5t-102.5 127t-167 123l64 102q120 -63 197.5 -139.5t122.5 -156.5t62.5 -158.5t17.5 -144.5q0 -108 -28 -193t-80 -144t-124.5 -90t-160.5 -31
q-42 0 -82 12t-75.5 33.5t-66 51.5t-52.5 66q-51 -75 -131 -119t-183 -44q-43 0 -85.5 13t-80 36.5t-69 56t-53.5 70.5q-74 -81 -178.5 -128.5t-225.5 -47.5q-74 0 -142.5 18.5t-128 52t-109 80t-84.5 104t-54 123t-19 136.5zM193 502q0 -91 35 -162t92.5 -120.5
t130.5 -75.5t149 -26q75 0 148 27.5t130.5 78t93 121.5t35.5 157q0 84 -36 155t-93.5 122.5t-130.5 80.5t-147 29t-147 -29t-130.5 -80.5t-93.5 -122.5t-36 -155zM1701 -132q0 -17 -7 -33.5t-19.5 -29t-30 -20t-37.5 -7.5t-37 8t-30 20.5t-20 28.5t-7 33q0 27 8.5 54
t22 52.5t30.5 50t33 46.5q17 -23 34 -46.5t30.5 -49t21.5 -52.5t8 -55z" />
    <glyph glyph-name="kn_ka" unicode="&#xc95;" horiz-adv-x="1167" 
d="M64 890v128h727q92 0 141.5 41.5t49.5 105.5q0 18 -5.5 37t-14.5 36.5t-20 32.5t-22 26l78 75q51 -50 75.5 -106.5t24.5 -113.5q0 -52 -17.5 -99.5t-54.5 -83.5t-95 -57.5t-139 -21.5h-172v-99h427v-87h-187q86 -56 136.5 -137t50.5 -177q0 -83 -38.5 -156t-105.5 -127
t-156.5 -85.5t-191.5 -31.5t-191.5 31.5t-156 85.5t-105 127t-38.5 156q0 96 50 177t135 137h-185v87h428v99h-428zM192 390q0 -57 28.5 -106.5t77.5 -86t115.5 -58t141.5 -21.5t141.5 21.5t116 58t78 86t28.5 106.5t-28.5 106.5t-78 86.5t-116 58.5t-141.5 21.5
t-141.5 -21.5t-115.5 -58.5t-77.5 -86.5t-28.5 -106.5z" />
    <glyph glyph-name="kn_kha" unicode="&#xc96;" horiz-adv-x="1623" 
d="M355 -10q-52 0 -104 13.5t-93.5 42t-67.5 71t-26 101.5q0 55 24.5 97t64.5 70.5t91.5 43t104.5 14.5q45 0 87.5 -11.5t84 -30.5t81 -44.5t78.5 -52.5q37 58 55.5 122.5t18.5 126.5q0 75 -28.5 143t-82.5 118q-3 -70 -28.5 -118.5t-64.5 -79t-86.5 -44t-93.5 -13.5
q-54 0 -99 17.5t-78 48t-51 71t-18 86.5q0 56 19.5 101.5t57 77.5t90.5 49.5t121 17.5q93 0 178.5 -38t150 -102t103 -149.5t38.5 -179.5q0 -98 -25.5 -180.5t-70.5 -149.5q67 -46 134 -78.5t138 -32.5q84 0 144.5 36t99 92.5t57 126.5t18.5 139q0 24 -3.5 56.5t-15 70.5
t-33 79t-57 83t-87.5 82.5t-124 76.5l64 103q67 -33 135 -85t123.5 -122.5t90.5 -159t35 -193.5q0 -107 -30 -200.5t-87.5 -163t-140.5 -109.5t-189 -40q-51 0 -96.5 13t-86.5 35t-80 49.5t-76 57.5q-75 -75 -169.5 -115t-194.5 -40zM348 325q-73 0 -114.5 -28.5
t-41.5 -75.5q0 -27 16.5 -46.5t40 -32t50 -18.5t47.5 -6q85 0 152 29.5t117 77.5q-59 42 -124 71t-143 29zM412 900q-41 0 -71 -10.5t-50 -27.5t-29.5 -39t-9.5 -44t8.5 -42t24 -35t38.5 -24t53 -9q34 0 63 12.5t50 35t32.5 55t11.5 71.5q0 18 -3 38q-55 19 -118 19z" />
    <glyph glyph-name="kn_la" unicode="&#xcb2;" horiz-adv-x="1550" 
d="M960 1024q73 0 136 -20.5t115.5 -55.5t93.5 -82t69 -99.5t43 -108.5t15 -109q0 -100 -28 -179.5t-77 -140.5t-115 -104.5t-142 -71t-158.5 -40.5t-163.5 -13q-75 0 -155 14t-156 44t-143.5 77t-118.5 113t-81 152t-30 194q0 95 29 174t78.5 136t115 88.5t139.5 31.5
q57 0 98 -23.5t67.5 -60.5t39 -82.5t12.5 -89.5q0 -48 -17.5 -94t-50 -82t-77 -58t-98.5 -22q-24 0 -51 4.5t-54.5 14.5t-54 26.5t-48.5 39.5v-5q0 -83 23.5 -149t64 -118t94.5 -89t116 -61t128 -35.5t130 -11.5t130 9t128 29.5t117 53.5t95.5 79.5t64 108.5t23.5 141
q0 75 -32 138.5t-82.5 110t-112 72.5t-119.5 26v128zM399 896q-54 0 -101 -40t-75 -106q16 -36 38.5 -57.5t47 -33.5t47.5 -15.5t40 -3.5q27 0 49 13.5t37.5 33.5t24 42t8.5 39q0 24 -8 47t-23 41t-36.5 29t-48.5 11z" />
    <glyph glyph-name="kn_lla" unicode="&#xcb3;" horiz-adv-x="1431" 
d="M894 890v128h257q98 0 144.5 41.5t46.5 105.5q0 18 -5 36t-13.5 33.5t-19 28.5t-22.5 22l66 83q28 -21 49 -47t34.5 -54t20 -57.5t6.5 -57.5q0 -45 -13 -87t-40.5 -76t-70.5 -58.5t-102 -34.5q42 -45 60.5 -96t18.5 -94q0 -61 -20 -107.5t-54 -82.5t-79.5 -63t-97 -47.5
t-105.5 -36t-106 -29.5l-25 -7q32 -26 51 -62t19 -88q0 -40 -18.5 -75t-48.5 -61.5t-68 -41.5t-78 -15t-78 14t-67.5 39.5t-47.5 61t-18 78.5q0 49 20.5 85t55.5 63q-52 14 -108 29.5t-109.5 37t-101.5 49.5t-84 67.5t-57.5 91.5t-21.5 121q0 65 22 120t60 95.5t88 63
t106 22.5q61 0 105.5 -20t73.5 -52.5t43 -73.5t14 -83q0 -50 -20 -89.5t-53 -66.5t-74.5 -41t-84.5 -14q-20 0 -43.5 6t-47 17.5t-45 28.5t-36.5 39q14 -52 43.5 -88.5t70.5 -62.5t90 -44t101.5 -31.5t105.5 -25.5t101 -27q52 19 109.5 34.5t113 32.5t105.5 37.5t88 48
t60.5 65t22.5 88.5q0 83 -52 133.5t-150 50.5h-87zM339 900q-18 0 -39 -5.5t-40.5 -17.5t-37 -30.5t-27.5 -43.5q9 -29 27 -47.5t39 -29.5t43 -15.5t40 -4.5q27 0 47 9t32.5 23t18.5 30.5t6 32.5q0 48 -30.5 73.5t-78.5 25.5zM588 192q0 -16 7 -31t19 -27t29 -19t38 -7
q39 0 67 23.5t28 60.5q0 33 -25.5 56t-69.5 40q-42 -18 -67.5 -41t-25.5 -55z" />
    <glyph glyph-name="kn_ma" unicode="&#xcae;" horiz-adv-x="2026" 
d="M1323 448q0 -45 -5 -85.5t-14 -77.5q12 -34 35 -64.5t52 -53t61.5 -36t64.5 -13.5q68 0 117.5 27.5t82 73.5t48 105.5t15.5 123.5q0 58 -14.5 120.5t-52 126.5t-102.5 127t-167 123l64 102q120 -63 197.5 -139.5t122.5 -156.5t62.5 -158.5t17.5 -144.5q0 -108 -28 -193
t-79 -144t-123.5 -90t-160.5 -31q-41 0 -80.5 11.5t-75 32t-66 49t-52.5 63.5q-52 -76 -131 -116t-181 -40q-50 0 -94 12.5t-80 36t-62 56t-39 72.5q-15 -41 -42.5 -73.5t-64.5 -55.5t-81.5 -35.5t-95.5 -12.5q-55 0 -110 18t-99 56t-71.5 97t-27.5 142q0 74 27.5 128
t70 89.5t95 52.5t102.5 17l-16 -128q-21 -3 -47 -12t-49.5 -27.5t-39 -49t-15.5 -76.5t16.5 -80t42.5 -56t58.5 -32.5t64.5 -10.5q54 0 93 20.5t65.5 53.5t41 75.5t18.5 86.5h128q3 -55 23 -98.5t50 -74t65.5 -47t70.5 -16.5q68 0 118 27.5t83 73.5t49 105.5t16 123.5
q0 39 -9.5 85t-29.5 92.5t-50.5 91.5t-72 81t-95.5 60.5t-120 31.5h-754v128h953q98 0 144.5 41.5t46.5 105.5q0 18 -5 36t-13.5 33.5t-19 28.5t-22.5 22l66 83q28 -21 49 -47t34.5 -54t20 -57.5t6.5 -57.5q0 -44 -13.5 -84t-41 -73.5t-69 -58t-96.5 -36.5q64 -46 106 -104
t67 -119t35.5 -120.5t10.5 -108.5z" />
    <glyph glyph-name="kn_matra_l" unicode="&#xce2;" 
d="M-590 -768q-58 0 -97 11t-62.5 27.5t-33.5 36.5t-10 39q0 39 16.5 61t43.5 33t61.5 14t70.5 5t70.5 6t61.5 16.5t43.5 36.5t16.5 66q0 39 -28.5 67.5t-82.5 28.5q-30 0 -54 -14.5t-42 -38t-30 -52t-19 -55.5h-64q-4 23 -17 51t-34 52t-48.5 40.5t-60.5 16.5
q-19 0 -36 -7.5t-30.5 -21t-21.5 -31t-8 -36.5q0 -39 18 -61.5t54 -45.5q0 -1 -5.5 -9.5t-13 -18.5t-14 -18t-7.5 -7q-48 32 -72 72.5t-24 87.5q0 37 15 67t39.5 50.5t54.5 31.5t60 11q37 0 66 -11t51.5 -30t38.5 -44t27 -53q9 28 25.5 53t40 44t52 30t60.5 11
q39 0 71.5 -12.5t55 -34.5t35 -51t12.5 -62q0 -67 -28.5 -103.5t-71 -54t-92.5 -23t-92.5 -9.5t-71 -13t-28.5 -35q0 -13 10.5 -22.5t29 -15.5t44 -9t54.5 -3q87 0 146 28t94.5 73.5t51 104t15.5 118.5q0 30 -3 60h64q2 -15 3 -31.5t1 -34.5q0 -41 -7.5 -85t-24.5 -86
t-45 -80.5t-69.5 -67.5t-97 -46t-127.5 -17z" />
    <glyph glyph-name="kn_matra_ll" unicode="&#xce3;" 
d="M-541 -259q78 0 138.5 -22t102 -59.5t62.5 -88.5t21 -108q0 -53 -14.5 -96.5t-41 -74.5t-63 -48t-81.5 -17q-39 0 -71.5 11t-55 31t-35 48t-12.5 61q0 27 9 50.5t25.5 41.5t39.5 28t52 10q30 0 51.5 -11t36 -28.5t21 -39.5t6.5 -44q0 -23 -8.5 -47t-31.5 -47
q54 11 81.5 54.5t27.5 116.5q0 45 -16 84.5t-48 68.5t-80 45.5t-111 16.5h-54q2 -15 3 -29.5t1 -31.5q0 -61 -17.5 -128.5t-60 -124.5t-114 -94t-179.5 -37q-58 0 -97 11t-62.5 27.5t-33.5 36.5t-10 39q0 39 16.5 61t43.5 33t61.5 14t70.5 5t70.5 6t61.5 16.5t43.5 36.5
t16.5 66q0 39 -29 67.5t-83 28.5q-30 0 -54 -14.5t-42 -38t-30 -52t-18 -55.5h-64q-4 23 -17.5 51t-34 52t-48 40.5t-60.5 16.5q-19 0 -36 -7.5t-30.5 -21t-21.5 -31t-8 -36.5q0 -39 18 -61.5t53 -45.5q0 -1 -5.5 -9.5t-13 -18.5t-14 -18t-6.5 -7q-48 32 -72 72.5t-24 87.5
q0 37 15 67t39 50.5t54 31.5t60 11q37 0 66.5 -11t52 -30t38.5 -44t27 -53q9 28 25.5 53t40 44t52 30t60.5 11q39 0 71 -12.5t55 -34.5t35.5 -51t12.5 -62q0 -67 -28.5 -103.5t-71 -54t-92.5 -23t-92.5 -9.5t-71 -13t-28.5 -35t39.5 -38t97.5 -12q87 0 146 28t94.5 74
t51 104.5t15.5 119.5v15t-0.5 20.5t-1.5 32.5t-2 51h115zM-527 -622q0 -39 23 -61t47 -26q12 7 21 17.5t15 22.5t9 24t3 22q0 30 -17 48.5t-39 18.5q-25 0 -43.5 -17.5t-18.5 -48.5z" />
    <glyph glyph-name="kn_matra_r" unicode="&#xcc3;" horiz-adv-x="466" 
d="M1 445q110 -88 181 -180t112 -184t56.5 -180.5t15.5 -169.5q0 -38 -6.5 -85t-23 -95.5t-43.5 -94.5t-68 -81.5t-97.5 -57t-130.5 -21.5q-56 0 -113.5 19.5t-104 60t-75.5 102.5t-29 147q0 56 17.5 102.5t47.5 79.5t70.5 51t87.5 18q38 0 72.5 -12.5t60.5 -37t41 -60.5
t15 -82q0 -53 -24.5 -90.5t-63 -62.5t-85.5 -38t-92 -17l-67 80q48 1 92 6.5t77 18.5t53 34.5t20 55.5q0 39 -26.5 67t-71.5 28q-51 0 -82.5 -34.5t-31.5 -106.5q0 -54 18 -93.5t47.5 -65t67.5 -38t79 -12.5q69 0 116.5 31.5t77 79t42.5 103t13 103.5q0 98 -22.5 186
t-64.5 165t-101 143.5t-132 122.5z" />
    <glyph glyph-name="kn_matra_rr" unicode="&#xcc4;" horiz-adv-x="1145" 
d="M1 445h565q122 0 212 -33.5t149.5 -90.5t88.5 -133t29 -161q0 -75 -22 -143t-64 -119.5t-101.5 -82t-134.5 -30.5q-47 0 -93.5 14.5t-84 44.5t-60.5 75t-23 106q0 48 16 86t42 65t59.5 41t68.5 14q29 0 53 -9t40.5 -23.5t25.5 -33.5t9 -38q0 -31 -21 -54t-54 -23
q-28 0 -48.5 15.5t-20.5 48.5q0 9 4.5 17t7.5 11q-6 4 -12 4q-29 0 -49 -28.5t-20 -73.5q0 -32 13.5 -56.5t34.5 -41t47.5 -25t52.5 -8.5q57 0 96.5 20t63.5 54t35 80t11 97q0 64 -22.5 116.5t-67 90t-110 58.5t-151.5 21h-428q67 -75 111.5 -151t70 -150.5t36 -146.5
t10.5 -138q0 -38 -6.5 -85t-23 -95.5t-43.5 -94.5t-68 -81.5t-97.5 -57t-130.5 -21.5q-56 0 -113.5 19.5t-104 60t-75.5 102.5t-29 147q0 56 17.5 102.5t47.5 79.5t70.5 51t87.5 18q38 0 72.5 -12.5t60.5 -37t41 -60.5t15 -82q0 -50 -22.5 -86.5t-58 -61.5t-80 -39
t-87.5 -19q30 -32 71.5 -47t86.5 -15q69 0 116.5 31.5t77 79t42.5 103t13 103.5q0 98 -22.5 186t-64.5 165t-101 143.5t-132 122.5zM-215 -375q0 -37 9 -67q42 3 78.5 9.5t64.5 19.5t44 33.5t16 50.5q0 39 -26.5 67t-71.5 28q-51 0 -82.5 -34.5t-31.5 -106.5z" />
    <glyph glyph-name="kn_na" unicode="&#xca8;" horiz-adv-x="1388" 
d="M1269 448q0 -108 -28 -193t-79.5 -144t-124 -90t-160.5 -31q-65 0 -112 19.5t-82 52t-60.5 73.5t-47 84t-41.5 84t-45 73.5t-56.5 52t-76.5 19.5q-24 0 -52.5 -8.5t-53.5 -27.5t-41.5 -49t-16.5 -73q0 -31 15.5 -60.5t41.5 -52t60 -36t70 -13.5l-32 -128q-54 0 -105 21.5
t-90.5 60.5t-63.5 92t-24 116q0 69 23.5 122.5t63.5 89.5t92.5 55t110.5 19q61 0 107 -19.5t81.5 -52t63 -73.5t51.5 -84t46 -84t47 -73.5t55 -52t70 -19.5q68 0 118 27.5t83 73.5t49 105.5t16 123.5q0 39 -9.5 85t-29.5 92.5t-50.5 91.5t-72 81t-95.5 60.5t-120 31.5h-700
v128h899q98 0 144.5 41.5t46.5 105.5q0 18 -5 36t-13.5 33.5t-19 28.5t-22.5 22l66 83q28 -21 49 -47t34.5 -54t20 -57.5t6.5 -57.5q0 -43 -15 -85t-44 -76.5t-72 -59t-100 -31.5q64 -41 108 -98.5t71 -119.5t39 -123.5t12 -110.5z" />
    <glyph glyph-name="kn_nga" unicode="&#xc99;" horiz-adv-x="1393" 
d="M381 -10q-51 0 -106.5 14.5t-102.5 49t-77.5 91.5t-30.5 142q0 70 33 121.5t83 92t108 73t108 64t83 65.5t33 78q0 30 -13 50.5t-33.5 33.5t-45.5 19t-49 6q-42 0 -73.5 -13.5t-53 -34t-34.5 -45t-18 -46.5l-60 22q-23 8 -41 15t-18 8q13 47 38 89t62 74t85 50.5
t108 18.5q88 0 151 -34t95 -97q25 27 54 50.5t63 41.5t72 28.5t81 10.5q59 0 105 -16.5t78 -44.5t49 -64t17 -76q0 -15 -2.5 -33t-7.5 -36t-12 -34t-16 -26l-92 44q12 30 12 57q0 28 -12 47t-31.5 31t-45 17.5t-51.5 5.5t-54.5 -8t-58.5 -26t-60.5 -47t-60.5 -71
q-4 -48 -25.5 -85t-53.5 -67.5t-72 -55t-81 -47t-79.5 -44t-68.5 -46t-48.5 -53.5t-18.5 -65q0 -47 19.5 -79t49.5 -51.5t66.5 -28t69.5 -8.5q38 0 76.5 16.5t69.5 47t52 74t24 98.5h128q4 -44 18.5 -86.5t41 -75.5t65.5 -53.5t93 -20.5q32 0 64.5 10.5t58.5 32.5t42.5 56
t16.5 80t-15.5 76.5t-39 49t-49.5 27.5t-47 12l-16 128q50 0 102.5 -17t95 -52.5t70 -89.5t27.5 -128q0 -83 -27.5 -142t-71.5 -97t-99 -56t-110 -18q-51 0 -96 12.5t-81.5 35.5t-64 55.5t-42.5 73.5q-13 -40 -42 -72.5t-68.5 -56t-88.5 -36t-103 -12.5zM700 562
q0 38 26.5 64.5t64.5 26.5q19 0 36 -7t29.5 -19.5t20 -29t7.5 -35.5q0 -18 -7.5 -34.5t-20 -29t-29.5 -19.5t-36 -7q-38 0 -64.5 26.5t-26.5 63.5z" />
    <glyph glyph-name="kn_nna" unicode="&#xca3;" horiz-adv-x="1473" 
d="M972 900q-42 0 -78 -22.5t-63.5 -59.5t-45 -83.5t-23.5 -94.5h-128q-11 59 -31.5 107t-51.5 82t-73 52.5t-96 18.5q-24 0 -57 -7t-62.5 -25.5t-50 -50.5t-20.5 -82q0 -42 19.5 -72t48 -49.5t61 -28.5t58.5 -9v-128q-33 0 -66.5 -12t-60 -33.5t-43.5 -52t-17 -66.5
q0 -40 13.5 -71t37.5 -52t56.5 -32t70.5 -11q29 0 57.5 9t55 23t48.5 32.5t39 38.5l70 -100q-18 -22 -43 -45t-58 -42t-74.5 -31.5t-92.5 -12.5q-82 0 -140.5 26t-95.5 67t-54.5 92t-17.5 101q0 28 8.5 62t27 67t47.5 61.5t70 45.5q-41 14 -70 38t-47.5 53.5t-27 63
t-8.5 66.5q0 61 23 114.5t65 93.5t102 63.5t134 23.5q69 0 120.5 -19t89 -49t62 -66t38.5 -69q16 43 43 80.5t62 64.5t78 42.5t90 15.5q74 0 143.5 -29.5t123 -98t85.5 -179.5t32 -273q0 -118 -21 -204.5t-60.5 -142.5t-95.5 -83.5t-126 -27.5q-57 0 -101 22t-73.5 57.5
t-45 81t-15.5 92.5q0 53 17.5 100t49 82.5t76 56t98.5 20.5q45 0 88 -16.5t78 -55.5q3 39 3 75q0 109 -25 184.5t-63.5 122.5t-83 67.5t-83.5 20.5zM1062 374q-27 0 -49.5 -11.5t-38 -29.5t-24 -41t-8.5 -46q0 -55 31.5 -91.5t85.5 -36.5q52 0 91.5 33.5t56.5 100.5
q-11 40 -28.5 64t-37.5 37t-41 17t-38 4z" />
    <glyph glyph-name="kn_nya" unicode="&#xc9e;" horiz-adv-x="2126" 
d="M1685 900q-24 0 -50.5 -5t-55 -19t-59 -38.5t-64.5 -63.5q8 -29 12 -59.5t4 -62.5q0 -53 -12 -108.5t-35 -110.5t-56.5 -107.5t-76.5 -100.5q17 -35 27 -74t10 -81q0 -38 -9 -79t-24.5 -80t-37.5 -74.5t-48 -62.5l-107 70q21 25 40 51.5t34 54t24 56t9 57.5
q0 21 -2.5 40.5t-7.5 36.5q-41 -32 -83.5 -59t-90.5 -47.5t-102.5 -32t-119.5 -11.5q-72 0 -129 18.5t-97 50.5t-61.5 75t-21.5 93q0 48 16.5 85t44 64.5t62 46.5t71 30.5t71 16.5t61.5 5q118 0 220 -39t173 -107q58 67 93.5 151t35.5 183q0 54 -17 97.5t-47 74t-71 47
t-89 16.5q-61 0 -108.5 -30t-82.5 -76.5t-59 -103.5t-37 -112h-128q-8 46 -31.5 102.5t-63 105.5t-95 82.5t-127.5 33.5q-46 0 -82 -17.5t-61 -45t-38.5 -62.5t-13.5 -71q0 -69 35.5 -118.5t107.5 -95.5l-79 -106q-97 64 -144.5 142.5t-47.5 177.5q0 75 27 135t71.5 102
t103 64.5t121.5 22.5q77 0 138.5 -24t108.5 -63t80 -89.5t54 -103.5q17 55 50.5 106t79.5 89.5t102.5 61.5t121.5 23q91 0 163 -37t118 -103q27 28 59 53.5t67.5 45t74 30.5t80.5 11q63 0 121.5 -22.5t103.5 -64.5t72 -102t27 -135q0 -99 -47.5 -177.5t-144.5 -142.5
l-79 106q72 46 107.5 95.5t35.5 118.5q0 36 -13.5 71t-38.5 62.5t-61 45t-82 17.5zM818 118q81 0 160 37t154 96q-33 30 -74.5 49t-83.5 29.5t-81.5 14t-68.5 3.5q-32 0 -67 -8.5t-64 -24.5t-48 -38t-19 -49q0 -26 18 -46t46 -34t62 -21.5t66 -7.5z" />
    <glyph glyph-name="kn_o" unicode="&#xc92;" horiz-adv-x="1393" 
d="M381 -10q-51 0 -106.5 14.5t-102.5 49t-77.5 91.5t-30.5 142q0 70 33 121.5t83 92t108 73t108 64t83 65.5t33 78q0 30 -13 50.5t-33.5 33.5t-45.5 19t-49 6q-42 0 -73.5 -13.5t-53 -34t-34.5 -45t-18 -46.5l-60 22q-23 8 -41 15t-18 8q13 47 38 89t62 74t85 50.5
t108 18.5q63 0 113.5 -17.5t86 -51t55 -82t19.5 -109.5q0 -51 -19.5 -91t-51 -72t-71.5 -58t-82 -49t-82.5 -45t-72 -47t-50.5 -54.5t-19 -66.5q0 -47 19.5 -79t49.5 -51.5t66.5 -28t69.5 -8.5q38 0 76.5 16.5t69.5 47t52 74t24 98.5h128q4 -44 18.5 -86.5t41 -75.5
t65.5 -53.5t93 -20.5q32 0 64.5 10.5t58.5 32.5t42.5 56t16.5 80t-15.5 76.5t-39 49t-49.5 27.5t-47 12l-16 128q50 0 102.5 -17t95 -52.5t70 -89.5t27.5 -128q0 -83 -27.5 -142t-71.5 -97t-99 -56t-110 -18q-51 0 -96 12.5t-81.5 35.5t-64 55.5t-42.5 73.5
q-13 -40 -42 -72.5t-68.5 -56t-88.5 -36t-103 -12.5z" />
    <glyph glyph-name="kn_oo" unicode="&#xc93;" horiz-adv-x="1393" 
d="M381 -10q-51 0 -106.5 14.5t-102.5 49t-77.5 91.5t-30.5 142q0 70 33 121.5t83 92t108 73t108 64t83 65.5t33 78q0 30 -13 50.5t-33.5 33.5t-45.5 19t-49 6q-42 0 -73.5 -13.5t-53 -34t-34.5 -45t-18 -46.5l-60 22q-23 8 -41 15t-18 8q13 45 36 85t57 71.5t78.5 51.5
t100.5 23q-1 6 -1 11.5v11.5q0 52 17.5 94.5t50 72.5t77 46.5t98.5 16.5q82 0 149.5 -46.5t111.5 -149.5l-94 -66q-34 71 -71.5 106.5t-96.5 35.5q-58 0 -93 -36t-35 -91v-8.5t1 -8.5q85 -23 133 -86t48 -162q0 -51 -19.5 -91t-51 -72t-71.5 -58t-82 -49t-82.5 -45t-72 -47
t-50.5 -54.5t-19 -66.5q0 -47 19.5 -79t49.5 -51.5t66.5 -28t69.5 -8.5q38 0 76.5 16.5t69.5 47t52 74t24 98.5h128q4 -44 18.5 -86.5t41 -75.5t65.5 -53.5t93 -20.5q32 0 64.5 10.5t58.5 32.5t42.5 56t16.5 80t-15.5 76.5t-39 49t-49.5 27.5t-47 12l-16 128q50 0 102.5 -17
t95 -52.5t70 -89.5t27.5 -128q0 -83 -27.5 -142t-71.5 -97t-99 -56t-110 -18q-51 0 -96 12.5t-81.5 35.5t-64 55.5t-42.5 73.5q-13 -40 -42 -72.5t-68.5 -56t-88.5 -36t-103 -12.5z" />
    <glyph glyph-name="kn_pa" unicode="&#xcaa;" horiz-adv-x="1404" 
d="M1065 714q36 -30 75 -67.5t71.5 -84t53.5 -102t21 -121.5q0 -79 -24.5 -143.5t-70 -110t-110 -70.5t-144.5 -25q-50 0 -95 14t-82 38t-64 56t-40 69q-15 -41 -42.5 -73.5t-64.5 -55.5t-81.5 -35.5t-95.5 -12.5q-55 0 -110 18t-99 56t-71.5 97t-27.5 142q0 74 27.5 128
t70 89.5t95 52.5t102.5 17l-16 -128q-21 -3 -47 -12t-49.5 -27.5t-39 -49t-15.5 -76.5t16.5 -80t42.5 -56t58.5 -32.5t64.5 -10.5q54 0 93 20.5t65.5 53.5t41 75.5t18.5 86.5h128q3 -55 24 -98.5t52 -74t69.5 -47t76.5 -16.5q45 0 84.5 14t69 42.5t46 70.5t16.5 99
q0 46 -16.5 86.5t-42.5 74t-57 61t-59 48.5zM64 890v128h870q98 0 144.5 41.5t46.5 105.5q0 18 -5 36t-13.5 33.5t-19 28.5t-22.5 22l66 83q28 -21 49 -47t34.5 -54t20 -57.5t6.5 -57.5q0 -52 -17.5 -99.5t-54.5 -83.5t-95 -57.5t-139 -21.5h-871zM548 630q0 22 8.5 41.5
t23 34t34 23t42.5 8.5q22 0 42 -8.5t35 -23t23.5 -34t8.5 -41.5t-8.5 -41.5t-23.5 -34t-35 -23t-42 -8.5q-23 0 -42.5 8.5t-34 23t-23 34t-8.5 41.5z" />
    <glyph glyph-name="kn_pha" unicode="&#xcab;" horiz-adv-x="1404" 
d="M750 -132q0 -17 -7 -33.5t-19.5 -29t-30 -20t-37.5 -7.5t-37 8t-30 20.5t-20 28.5t-7 33q0 27 8.5 54t22 52.5t30.5 50t33 46.5q17 -23 34 -46.5t30.5 -49t21.5 -52.5t8 -55zM1065 714q36 -30 75 -67.5t71.5 -84t53.5 -102t21 -121.5q0 -79 -24.5 -143.5t-70 -110
t-110 -70.5t-144.5 -25q-50 0 -95 14t-82 38t-64 56t-40 69q-15 -41 -42.5 -73.5t-64.5 -55.5t-81.5 -35.5t-95.5 -12.5q-55 0 -110 18t-99 56t-71.5 97t-27.5 142q0 74 27.5 128t70 89.5t95 52.5t102.5 17l-16 -128q-21 -3 -47 -12t-49.5 -27.5t-39 -49t-15.5 -76.5
t16.5 -80t42.5 -56t58.5 -32.5t64.5 -10.5q54 0 93 20.5t65.5 53.5t41 75.5t18.5 86.5h128q3 -55 24 -98.5t52 -74t69.5 -47t76.5 -16.5q45 0 84.5 14t69 42.5t46 70.5t16.5 99q0 46 -16.5 86.5t-42.5 74t-57 61t-59 48.5zM64 890v128h870q98 0 144.5 41.5t46.5 105.5
q0 18 -5 36t-13.5 33.5t-19 28.5t-22.5 22l66 83q28 -21 49 -47t34.5 -54t20 -57.5t6.5 -57.5q0 -52 -17.5 -99.5t-54.5 -83.5t-95 -57.5t-139 -21.5h-871zM548 630q0 22 8.5 41.5t23 34t34 23t42.5 8.5q22 0 42 -8.5t35 -23t23.5 -34t8.5 -41.5t-8.5 -41.5t-23.5 -34
t-35 -23t-42 -8.5q-23 0 -42.5 8.5t-34 23t-23 34t-8.5 41.5z" />
    <glyph glyph-name="kn_ra" unicode="&#xcb0;" horiz-adv-x="1259" 
d="M64 890v128h849q98 0 144.5 41.5t46.5 105.5q0 18 -5 36t-13.5 33.5t-19 28.5t-22.5 22l66 83q28 -21 49 -47t34.5 -54t20 -57.5t6.5 -57.5q0 -50 -16.5 -96t-51 -82t-89 -58.5t-129.5 -25.5q44 -33 81.5 -74.5t65 -90.5t43 -105t15.5 -118q0 -115 -43.5 -209.5
t-117 -161.5t-171.5 -104t-206 -37q-107 0 -204 37t-171 104t-118 161.5t-44 209.5q0 64 15.5 120.5t43 105t64.5 89t81 73.5h-204zM194 502q0 -91 35 -162t92.5 -120.5t130.5 -75.5t149 -26q75 0 148 27.5t130.5 78t93 121.5t35.5 157q0 84 -36 155t-93.5 122.5
t-130.5 80.5t-147 29t-147 -29t-130.5 -80.5t-93.5 -122.5t-36 -155z" />
    <glyph glyph-name="kn_rra" unicode="&#xcb1;" horiz-adv-x="1556" 
d="M901 768q0 44 12.5 89.5t39 82.5t67.5 60.5t98 23.5q74 0 133 -31.5t100.5 -88.5t64 -136t22.5 -174q0 -162 -41.5 -277t-103.5 -187.5t-133 -106t-131 -33.5q-45 0 -87 10.5t-78 33.5t-65 60t-48 91q-19 -54 -48 -91t-65 -60t-78 -33.5t-87 -10.5q-60 0 -131 33.5
t-133 106t-103.5 187.5t-41.5 277q0 95 22.5 174t64 136t100.5 88.5t133 31.5q57 0 98 -23.5t67.5 -60.5t39 -82.5t12.5 -89.5q0 -42 -13.5 -82t-38.5 -74h403q-25 34 -38 74t-13 82zM814 354q7 -40 21 -82t39 -76t62.5 -56t92.5 -22q45 0 94 27t90.5 84t68.5 145t28 210
q-35 -39 -77 -55.5t-87 -16.5h-788q-45 0 -88 16.5t-78 55.5q1 -122 28 -210t68.5 -145t90.5 -84t94 -27q55 0 92.5 22t62 56t38.5 76t22 82h126zM354 640q27 0 49 13.5t37.5 33.5t24 42t8.5 39q0 24 -8 47t-23 41t-36.5 29t-48.5 11q-52 0 -87.5 -36.5t-54.5 -97.5
q11 -40 27.5 -64t35.5 -37t39 -17t37 -4zM1150 640q17 0 37 4t39 17t35.5 37t27.5 64q-19 61 -54.5 97.5t-87.5 36.5q-27 0 -48.5 -11t-36.5 -29t-23 -41t-8 -47q0 -17 8.5 -39t24 -42t37.5 -33.5t49 -13.5z" />
    <glyph glyph-name="kn_sa" unicode="&#xcb8;" horiz-adv-x="1442" 
d="M1167 790q71 -92 113 -192.5t42 -191.5q0 -101 -29 -178.5t-79 -130t-117.5 -80t-145.5 -27.5q-60 0 -105.5 19.5t-81.5 52t-65 73.5t-54 84t-49.5 84t-51.5 73.5t-59.5 52t-74.5 19.5q-24 0 -52.5 -8.5t-53.5 -27.5t-41.5 -49t-16.5 -73q0 -31 15.5 -60.5t41.5 -52
t60 -36t70 -13.5l-32 -128q-54 0 -105 21.5t-90.5 60.5t-63.5 92t-24 116q0 69 23.5 122.5t63.5 89.5t92.5 55t110.5 19q61 0 107 -19.5t81.5 -52t63.5 -73.5t52.5 -84t48 -84t51 -73.5t61 -52t78.5 -19.5q65 0 111 22.5t75.5 61.5t43 90.5t13.5 108.5q0 42 -10.5 84
t-29 81.5t-42.5 75t-51 65.5zM64 890v128h993q98 0 144.5 41.5t46.5 105.5q0 18 -5 36t-13.5 33.5t-19 28.5t-22.5 22l66 83q28 -21 49 -47t34.5 -54t20 -57.5t6.5 -57.5q0 -52 -17.5 -99.5t-54.5 -83.5t-95 -57.5t-139 -21.5h-994zM723 630q0 22 8.5 41.5t23 34t34 23
t42.5 8.5q22 0 42 -8.5t35 -23t23.5 -34t8.5 -41.5t-8.5 -41.5t-23.5 -34t-35 -23t-42 -8.5q-23 0 -42.5 8.5t-34 23t-23 34t-8.5 41.5z" />
    <glyph glyph-name="kn_sha" unicode="&#xcb6;" horiz-adv-x="1242" 
d="M64 890v128h829q98 0 144.5 41.5t46.5 105.5q0 18 -5 36t-13.5 33.5t-19 28.5t-22.5 22l66 83q28 -21 49 -47t34.5 -54t20 -57.5t6.5 -57.5q0 -50 -16.5 -96.5t-51.5 -82.5t-89.5 -58t-130.5 -25q48 -34 86.5 -79.5t66 -98t42.5 -110t15 -116.5q0 -90 -24 -161.5
t-65 -126.5t-97 -94.5t-120 -64.5t-133 -37t-137 -12q-55 0 -112 7.5t-110.5 23t-101 40t-82.5 57.5t-55.5 75t-20.5 94q0 60 23 99.5t60.5 65.5t85.5 42.5t98.5 31t98.5 30t85.5 39.5t60.5 61t23 93q0 19 -9.5 42.5t-28 45t-47 36.5t-66.5 17h-8q-31 0 -60.5 -7t-52 -22.5
t-36.5 -40t-14 -58.5q0 -26 11.5 -46.5t22.5 -30.5l-110 -63q-10 9 -19.5 26.5t-16.5 37.5t-11.5 40t-4.5 34q0 70 40 130h-125zM727 749q0 -76 -23 -128t-60.5 -87.5t-85.5 -57.5t-98.5 -37.5t-98.5 -27t-85.5 -26.5t-60.5 -36.5t-23 -55.5q0 -44 35.5 -76.5t89 -54.5
t115 -33t113.5 -11q81 0 161 20t144 63.5t104 113.5t40 171q0 71 -25 136t-67 118t-97.5 91t-116.5 55q19 -32 29 -67t10 -70z" />
    <glyph glyph-name="kn_ssa" unicode="&#xcb7;" horiz-adv-x="1477" 
d="M887 514l264 -235q7 28 7 65q0 46 -16.5 86.5t-42.5 74t-57 61t-59 48.5l82 100q36 -30 75 -67.5t71.5 -84t53.5 -102t21 -121.5q0 -85 -29 -154l136 -120l-67 -75l-126 105q-45 -51 -111.5 -78t-151.5 -27q-50 0 -95 14t-82 38t-64 56t-40 69q-15 -41 -42.5 -73.5
t-64.5 -55.5t-81.5 -35.5t-95.5 -12.5q-55 0 -110 18t-99 56t-71.5 97t-27.5 142q0 74 27.5 128t70 89.5t95 52.5t102.5 17l-16 -128q-21 -3 -47 -12t-49.5 -27.5t-39 -49t-15.5 -76.5t16.5 -80t42.5 -56t58.5 -32.5t64.5 -10.5q54 0 93 20.5t65.5 53.5t41 75.5t18.5 86.5
h128q3 -55 24 -98.5t52 -74t69.5 -47t76.5 -16.5q48 0 88.5 15t69.5 46l-293 246zM64 890v128h870q98 0 144.5 41.5t46.5 105.5q0 18 -5 36t-13.5 33.5t-19 28.5t-22.5 22l66 83q28 -21 49 -47t34.5 -54t20 -57.5t6.5 -57.5q0 -52 -17.5 -99.5t-54.5 -83.5t-95 -57.5
t-139 -21.5h-871zM548 630q0 22 8.5 41.5t23 34t34 23t42.5 8.5q22 0 42 -8.5t35 -23t23.5 -34t8.5 -41.5t-8.5 -41.5t-23.5 -34t-35 -23t-42 -8.5q-23 0 -42.5 8.5t-34 23t-23 34t-8.5 41.5z" />
    <glyph glyph-name="kn_anusvara" unicode="&#xc82;" horiz-adv-x="896" 
d="M64 512q0 79 28 149t76.5 122.5t113.5 82.5t139 30t139 -30t113.5 -82.5t76.5 -122.5t28 -149q0 -80 -28 -149.5t-76.5 -122t-113.5 -82.5t-139 -30t-139 30t-113.5 82.5t-76.5 122t-28 149.5zM191 512q0 -53 17.5 -99.5t48 -81.5t71 -55t87.5 -20q46 0 87 20t71.5 55
t48 81.5t17.5 99.5t-17.5 99.5t-48 81.5t-71.5 55t-87 20q-47 0 -87.5 -20t-71 -55t-48 -81.5t-17.5 -99.5z" />
    <glyph glyph-name="kn_ta" unicode="&#xca4;" horiz-adv-x="1391" 
d="M762 668q-32 0 -71.5 -6t-74.5 -20.5t-59 -39t-24 -61.5q0 -47 44.5 -77t126.5 -30q44 0 77 16.5t55 44t33 65t11 79.5v9.5t-1 9.5q-53 10 -117 10zM64 890v128h915q98 0 144.5 41.5t46.5 105.5q0 18 -5 36t-13.5 33.5t-19 28.5t-22.5 22l66 83q28 -21 49 -47t34.5 -54
t20 -57.5t6.5 -57.5q0 -52 -17.5 -99.5t-54.5 -83.5t-95 -57.5t-139 -21.5h-100q20 -15 48.5 -51t49.5 -86q59 -20 112.5 -51t93.5 -73t63.5 -95.5t23.5 -116.5q0 -104 -48 -184t-127.5 -134t-181.5 -81.5t-210 -27.5q-72 0 -147 11.5t-146.5 36t-134.5 64.5t-110 96.5
t-74.5 132t-27.5 171.5q0 64 17 123t51 117l118 -52q-58 -98 -58 -208q0 -98 46 -167.5t119 -113t164.5 -63.5t182.5 -20q93 0 173 22t139.5 62.5t93 96t33.5 123.5q0 65 -36.5 114t-98.5 80q-1 -69 -26.5 -124.5t-67.5 -94.5t-96.5 -60t-113.5 -21q-57 0 -109.5 15.5
t-92.5 43.5t-63.5 68t-23.5 89q0 61 28.5 108.5t78 79.5t116 49t143.5 17q12 0 24.5 -0.5t25.5 -1.5q-24 32 -56.5 59t-70.5 47h-640z" />
    <glyph glyph-name="kn_tha" unicode="&#xca5;" horiz-adv-x="1514" 
d="M796 319q9 -27 26.5 -62t45.5 -66t66 -52t88 -21q51 0 95.5 20.5t77.5 61t52 101t19 139.5q0 75 -23.5 138t-64 113t-94 87.5t-113.5 62t-122 37t-120 12.5t-120 -12.5t-122 -37t-113.5 -62t-94 -87.5t-64 -113t-23.5 -138q0 -79 19 -139.5t52 -101t77.5 -61t95.5 -20.5
q49 0 87.5 21t66.5 52t45.5 66t26.5 62h134zM823 -132q0 -17 -7 -33.5t-19.5 -29t-30 -20t-37.5 -7.5t-37 8t-30 20.5t-20 28.5t-7 33q0 27 8.5 54t22 52.5t30.5 50t33 46.5q17 -23 34 -46.5t30.5 -49t21.5 -52.5t8 -55zM618 517q0 22 8.5 41.5t23 34t34 23t42.5 8.5
q22 0 42 -8.5t35 -23t23.5 -34t8.5 -41.5t-8.5 -41.5t-23.5 -34t-35 -23t-42 -8.5q-23 0 -42.5 8.5t-34 23t-23 34t-8.5 41.5zM64 890v128h1094q98 0 144.5 41.5t46.5 105.5q0 18 -5 36t-13.5 33.5t-19 28.5t-22.5 22l66 83q28 -21 49 -47t34.5 -54t20 -57.5t6.5 -57.5
q0 -52 -17.5 -99.5t-54.5 -83.5t-95 -57.5t-139 -21.5h-21q58 -38 105.5 -86.5t81 -106t51.5 -122.5t18 -136q0 -99 -27 -181.5t-75.5 -142t-117.5 -92.5t-153 -33q-35 0 -75 8.5t-79 29t-75 55t-63 85.5q-27 -51 -63 -85.5t-75 -55t-79 -29t-75 -8.5q-84 0 -153 33
t-117.5 92.5t-75.5 142t-27 181.5q0 71 18 136t51.5 122.5t80.5 106t105 86.5h-255z" />
    <glyph glyph-name="kn_tta" unicode="&#xc9f;" horiz-adv-x="1462" 
d="M769 354q0 -48 18.5 -90.5t50 -75t74 -51.5t89.5 -19q42 0 81 14t68.5 40.5t47.5 63.5t18 83q0 64 -31 111.5t-76.5 81t-96.5 53.5t-91 31l32 115q22 1 50 6.5t53 18t41.5 32.5t16.5 52q0 28 -14 47t-36 31t-48.5 17t-50.5 5v108q47 0 96.5 -13t89.5 -38.5t65.5 -64.5
t25.5 -91q0 -72 -35.5 -114t-92.5 -59q109 -38 169.5 -122.5t60.5 -209.5q0 -62 -23.5 -121t-67.5 -104.5t-107.5 -73t-144.5 -27.5q-56 0 -102 13t-82.5 37t-64 58t-48.5 76q-41 -83 -113 -133.5t-184 -50.5q-81 0 -144.5 27.5t-107.5 73t-67.5 104.5t-23.5 121
q0 125 60.5 209.5t169.5 122.5q-57 17 -92.5 59t-35.5 114q0 52 25.5 91t65.5 64.5t89.5 38.5t96.5 13v-108q-24 0 -50.5 -5t-48.5 -17t-36 -31t-14 -47q0 -32 16.5 -52t41.5 -32.5t52.5 -18t50.5 -6.5l32 -115q-40 -11 -91 -31t-96.5 -53.5t-76.5 -81t-31 -111.5
q0 -46 18 -83t47.5 -63.5t68.5 -40.5t81 -14q47 0 89.5 19t74.5 51.5t50.5 75t18.5 90.5h129z" />
    <glyph glyph-name="kn_ttha" unicode="&#xca0;" horiz-adv-x="1259" 
d="M64 890v128h870q98 0 144.5 41.5t46.5 105.5q0 18 -5 36t-13.5 33.5t-19 28.5t-22.5 22l66 83q28 -21 49 -47t34.5 -54t20 -57.5t6.5 -57.5q0 -52 -17.5 -99.5t-54.5 -83.5t-95 -57.5t-139 -21.5q43 -34 80.5 -75.5t65 -90.5t43 -104.5t15.5 -117.5q0 -115 -43.5 -209.5
t-117 -161.5t-171.5 -104t-206 -37q-107 0 -204 37t-171 104t-118 161.5t-44 209.5q0 64 15.5 120.5t43 105t64.5 89t81 73.5h-204zM194 502q0 -91 35 -162t92.5 -120.5t130.5 -75.5t149 -26q75 0 148 27.5t130.5 78t93 121.5t35.5 157q0 84 -36 155t-93.5 122.5
t-130.5 80.5t-147 29t-147 -29t-130.5 -80.5t-93.5 -122.5t-36 -155zM492 517q0 22 8.5 41.5t23 34t34 23t42.5 8.5q22 0 42 -8.5t35 -23t23.5 -34t8.5 -41.5t-8.5 -41.5t-23.5 -34t-35 -23t-42 -8.5q-23 0 -42.5 8.5t-34 23t-23 34t-8.5 41.5z" />
    <glyph glyph-name="kn_u" unicode="&#xc89;" horiz-adv-x="2042" 
d="M519 -10q-89 0 -171 40.5t-145 117t-101 187.5t-38 252q0 91 20.5 171t60.5 140t97.5 95t131.5 35q57 0 98 -23.5t67.5 -61t39 -83.5t12.5 -92q0 -51 -17.5 -97.5t-50 -82t-77 -56t-98.5 -20.5q-45 0 -85 15.5t-75 54.5q0 -76 20.5 -158t61.5 -150t103.5 -112t146.5 -44
q65 0 114 32.5t81.5 89t49 131.5t16.5 160q0 50 4.5 106.5t16.5 112t32.5 106t53 88.5t78.5 61t108 23q81 0 137 -44t91 -113t50.5 -153t15.5 -165q0 -43 3 -91.5t11 -97t23 -93t39.5 -78.5t59 -54.5t82.5 -20.5q52 0 91 32.5t65.5 85t40 119t13.5 133.5q0 71 -15.5 136.5
t-43 122t-66 102.5t-83.5 79l85 100q58 -48 104.5 -109.5t79 -132t50 -149t17.5 -159.5q0 -54 -7.5 -111.5t-24 -111.5t-43 -102.5t-65 -84.5t-90 -57t-116.5 -21q-69 0 -120.5 22.5t-89 62t-62.5 92.5t-39.5 113t-20.5 124.5t-6 127.5q0 53 -7 117t-25.5 120t-51.5 93.5
t-84 37.5q-38 0 -65 -17.5t-45 -46.5t-28.5 -67.5t-16 -80.5t-7 -85.5t-1.5 -82.5q0 -59 -8 -121.5t-26 -121.5t-48 -111t-73 -91t-101.5 -62t-133.5 -23zM344 640q27 0 49 11.5t37.5 30t24 41.5t8.5 45q0 26 -8 50t-23 42t-36.5 29t-48.5 11q-52 0 -87.5 -38.5t-54.5 -99.5
q11 -40 27.5 -64t35.5 -37t39 -17t37 -4z" />
    <glyph glyph-name="kn_uu" unicode="&#xc8a;" horiz-adv-x="2496" 
d="M2098 378q-27 0 -49 -11.5t-37.5 -30t-24 -41.5t-8.5 -45q0 -26 8 -50t23 -42t36.5 -29t48.5 -11q52 0 87.5 38.5t54.5 99.5q-11 40 -27.5 64t-35.5 37t-39 17t-37 4zM998 1028q78 0 131.5 -40t86.5 -106.5t47.5 -152t14.5 -176.5q0 -43 1 -91.5t6.5 -97t16.5 -93
t31 -78.5t51 -54.5t76 -20.5q51 0 80.5 32.5t45 89t20 131.5t4.5 160q0 50 6.5 106.5t22 112t40.5 106t62 88.5t87 61t115 23q89 0 168 -40.5t138.5 -117t94 -187.5t34.5 -252q0 -91 -20.5 -171t-60.5 -140t-97.5 -95t-131.5 -35q-57 0 -98 23.5t-67.5 61t-39 83.5t-12.5 92
q0 51 17.5 97.5t50 82t77 56t98.5 20.5q45 0 85 -15.5t75 -54.5q0 51 -7 105t-22.5 105.5t-40 97.5t-59.5 80.5t-80.5 55t-103.5 20.5q-40 0 -70 -17.5t-52.5 -46.5t-38 -67.5t-25 -80.5t-13.5 -85.5t-4 -82.5q0 -59 -2.5 -121.5t-11.5 -121.5t-27 -111t-49.5 -91t-78.5 -62
t-114 -23q-66 0 -114 22.5t-82 62t-55 92.5t-33 113t-16.5 124.5t-4.5 127.5q0 53 -5.5 117t-22 120t-47.5 93.5t-82 37.5t-82.5 -33t-49 -89t-23.5 -131t-6 -160q0 -51 -6.5 -107t-22 -111.5t-40.5 -106t-62 -88.5t-87 -61t-115 -23q-89 0 -168 40.5t-138.5 117t-94 187.5
t-34.5 252q0 91 20.5 171t60.5 140t97.5 95t131.5 35q57 0 98 -23.5t67.5 -61t39 -83.5t12.5 -92q0 -51 -17.5 -97.5t-50 -82t-77 -56t-98.5 -20.5q-45 0 -85 15.5t-75 54.5q0 -51 7 -105t22.5 -105.5t40 -97.5t59.5 -80.5t80.5 -55t103.5 -20.5q39 0 69.5 17.5t53 46.5
t38 67.5t25 80.5t13.5 85.5t4 82.5q0 59 3 121.5t13.5 121.5t30 111t52 91t80.5 62t115 23zM344 640q27 0 49 11.5t37.5 30t24 41.5t8.5 45q0 26 -8 50t-23 42t-36.5 29t-48.5 11q-52 0 -87.5 -38.5t-54.5 -99.5q11 -40 27.5 -64t35.5 -37t39 -17t37 -4z" />
    <glyph glyph-name="kn_va" unicode="&#xcb5;" horiz-adv-x="1442" 
d="M1323 448q0 -108 -28 -193t-79.5 -144t-124 -90t-160.5 -31q-50 0 -94 12.5t-80 36t-62 56t-39 72.5q-15 -41 -42.5 -73.5t-64.5 -55.5t-81.5 -35.5t-95.5 -12.5q-55 0 -110 18t-99 56t-71.5 97t-27.5 142q0 74 27.5 128t70 89.5t95 52.5t102.5 17l-16 -128
q-21 -3 -47 -12t-49.5 -27.5t-39 -49t-15.5 -76.5t16.5 -80t42.5 -56t58.5 -32.5t64.5 -10.5q54 0 93 20.5t65.5 53.5t41 75.5t18.5 86.5h128q3 -55 23 -98.5t50 -74t65.5 -47t70.5 -16.5q68 0 118 27.5t83 73.5t49 105.5t16 123.5q0 39 -9.5 85t-29.5 92.5t-50.5 91.5
t-72 81t-95.5 60.5t-120 31.5h-43v128h242q98 0 144.5 41.5t46.5 105.5q0 18 -5 36t-13.5 33.5t-19 28.5t-22.5 22l66 83q28 -21 49 -47t34.5 -54t20 -57.5t6.5 -57.5q0 -43 -15 -85t-44 -76.5t-72 -59t-100 -31.5q64 -41 108 -98.5t71 -119.5t39 -123.5t12 -110.5z" />
    <glyph glyph-name="kn_visarga" unicode="&#xc83;" horiz-adv-x="630" 
d="M64 800q0 46 17.5 87t48 71.5t71 48t87.5 17.5q46 0 87 -17.5t71.5 -48t48 -71.5t17.5 -87q0 -47 -17.5 -87.5t-48 -71t-71.5 -48t-87 -17.5q-47 0 -87.5 17.5t-71 48t-48 71t-17.5 87.5zM192 800q0 -40 28 -68t68 -28t68 28t28 68t-28 68t-68 28t-68 -28t-28 -68z
M64 225q0 46 17.5 87t48 71.5t71 48t87.5 17.5q46 0 87 -17.5t71.5 -48t48 -71.5t17.5 -87q0 -47 -17.5 -87.5t-48 -71t-71.5 -48t-87 -17.5q-47 0 -87.5 17.5t-71 48t-48 71t-17.5 87.5zM192 225q0 -40 28 -68t68 -28t68 28t28 68t-28 68t-68 28t-68 -28t-28 -68z" />
    <glyph glyph-name="kn_vocalic_l" unicode="&#xc8c;" horiz-adv-x="1842" 
d="M982 0q-116 0 -193.5 21.5t-125 55t-67.5 73.5t-20 78q0 79 33 122.5t87 65.5t123 28.5t141 10.5t141 12t123 32.5t87 72.5t33 132q0 39 -14.5 74t-43 61.5t-70 41.5t-95.5 15q-61 0 -108.5 -29.5t-83.5 -76t-60 -103t-37 -111.5h-128q-8 46 -34.5 102t-68 104.5
t-96.5 81t-121 32.5q-38 0 -72.5 -15t-61 -41.5t-42.5 -61.5t-16 -74t9 -68.5t27 -54.5t44.5 -46.5t62.5 -44.5q0 -1 -5 -9.5t-13.5 -20.5t-19 -25.5t-19.5 -25t-15 -19t-7 -6.5q-97 64 -144.5 145t-47.5 175q0 75 30.5 134.5t78.5 100.5t108 63t120 22q74 0 132.5 -22.5
t103.5 -60t77.5 -88t53.5 -105.5q17 55 50.5 105.5t80 88t103.5 60t122 22.5q78 0 142.5 -25.5t110 -69t70.5 -101.5t25 -124q0 -101 -33 -166t-87 -105t-123 -60t-141 -29.5t-141 -14t-123 -14t-87 -29t-33 -58.5q0 -26 21 -45t58 -31t87.5 -18t108.5 -6q116 0 206.5 25.5
t159 71t115.5 107.5t76.5 134t43 151.5t13.5 159.5q0 60 -6 119h128q9 -60 9 -131q0 -81 -15 -169t-49 -173t-90 -162t-138.5 -135t-194 -92t-255.5 -34z" />
    <glyph glyph-name="kn_vocalic_ll" unicode="&#xce1;" horiz-adv-x="2581" 
d="M1815 1018q156 0 277 -43.5t203.5 -119t125 -177t42.5 -216.5q0 -106 -29 -193t-82 -149t-126.5 -96t-162.5 -34q-79 0 -143.5 22t-110 62t-70 95.5t-24.5 122.5q0 54 18 101.5t51 82.5t79 55.5t103 20.5q60 0 103.5 -22t72 -57t42 -79t13.5 -88t-17 -93.5t-63 -94.5
q106 22 162 109t56 234q0 91 -32.5 169t-96.5 136t-159.5 91t-222.5 33h-107q5 -30 6 -59t1 -63q0 -81 -15 -169.5t-49.5 -174t-90.5 -162.5t-138.5 -135t-193.5 -92.5t-255 -34.5q-116 0 -193.5 21.5t-125 55t-67.5 73.5t-20 78q0 79 33 122.5t87 65.5t123 28.5t141 10.5
t141 12t123 32.5t87 72.5t33 132q0 39 -14.5 74t-43 61.5t-70 41.5t-95.5 15q-61 0 -108.5 -29.5t-83.5 -76t-60 -103t-37 -111.5h-128q-8 46 -34.5 102t-68 104.5t-96.5 81t-121 32.5q-38 0 -72.5 -15t-61 -41.5t-42.5 -61.5t-16 -74t9 -68.5t27 -54.5t44.5 -46.5
t62.5 -44.5q0 -1 -5 -9.5t-13.5 -20.5t-19 -25.5t-19.5 -25t-15 -19t-7 -6.5q-97 64 -144.5 145t-47.5 175q0 75 30.5 134.5t78.5 100.5t108 63t120 22q74 0 132.5 -22.5t103.5 -60t77.5 -88t53.5 -105.5q17 55 50.5 105.5t80 88t103.5 60t122 22.5q78 0 142.5 -25.5
t110 -69t70.5 -101.5t25 -124q0 -101 -33 -166t-87 -105t-123 -60t-141 -29.5t-141 -14t-123 -14t-87 -29t-33 -58.5q0 -26 21 -45t58 -31t87.5 -18t108.5 -6q116 0 206.5 26t159 71.5t115.5 107.5t76.5 134.5t43 152t13.5 160.5q0 15 -0.5 30.5t-1.5 41t-2.5 65t-4.5 101.5
h231zM1843 292q0 -39 13 -69.5t33 -52.5t44.5 -35t48.5 -17q25 14 43 35t30 45t18 48t6 45q0 30 -9.5 54.5t-25 42t-36 27t-42.5 9.5q-25 0 -47 -9t-39 -26t-27 -41.5t-10 -55.5z" />
    <glyph glyph-name="kn_vocalic_r" unicode="&#xc8b;" horiz-adv-x="2072" 
d="M754 900v128h326q92 0 141.5 41.5t49.5 105.5q0 18 -5.5 37t-14.5 36.5t-20 32.5t-22 26l78 75q51 -50 75.5 -106.5t24.5 -113.5q0 -49 -15.5 -94t-48 -80t-83.5 -58.5t-121 -28.5q63 -48 107.5 -107.5t73 -121t41.5 -120t13 -104.5q0 -35 -3.5 -68t-9.5 -63
q8 -41 30.5 -77t53.5 -63t67.5 -43t72.5 -16q68 0 117.5 27.5t81.5 73.5t47 105.5t15 123.5q0 58 -14.5 120.5t-52 126.5t-102.5 127t-167 123l64 102q120 -63 197.5 -139.5t122.5 -156.5t62.5 -158.5t17.5 -144.5q0 -108 -27.5 -193t-78.5 -144t-123 -90t-160 -31
q-43 0 -85 12.5t-79.5 35t-68.5 54t-52 69.5q-51 -79 -132 -125t-186 -46q-43 0 -84.5 12.5t-78.5 35t-67.5 54t-51.5 69.5q-26 -39 -56 -71t-69 -54t-88 -34t-112 -12q-59 0 -112 17.5t-93 50.5t-63 80.5t-23 107.5q0 36 14.5 72.5t43.5 66t72 48t99 18.5q57 0 102.5 -22
t79 -55.5t56 -74t34.5 -77.5q31 43 47.5 101t16.5 128q0 65 -19 140t-56 141q-14 -42 -39.5 -75t-58.5 -55.5t-72 -34t-79 -11.5q-54 0 -98.5 18t-76 49t-49 72t-17.5 87q0 56 19.5 101.5t54 77.5t82 49.5t102.5 17.5q62 0 118.5 -25.5t104.5 -69t86.5 -101t66 -120.5
t42 -127.5t14.5 -123.5q0 -35 -3.5 -74.5t-9.5 -69.5q8 -41 30 -77t52.5 -63t66.5 -43t72 -16q68 0 118 27.5t82.5 73.5t48 105.5t15.5 123.5q0 58 -15.5 125t-56 130t-109.5 115.5t-177 81.5h-114zM320 900q-34 0 -58 -11t-39.5 -29t-23 -40.5t-7.5 -44.5t8 -42.5t23.5 -37
t39.5 -26.5t57 -10q24 0 50 13t47.5 37t35.5 57.5t14 75.5q-32 27 -68.5 42.5t-78.5 15.5zM300 323q-46 0 -77 -23.5t-31 -61.5q0 -32 15 -54.5t39 -37t53.5 -21.5t58.5 -7q69 0 124 29q-23 56 -48 90.5t-49 53.5t-46 25.5t-39 6.5z" />
    <glyph glyph-name="kn_vocalic_rr" unicode="&#xce0;" horiz-adv-x="2606" 
d="M1565 118q53 0 84 32.5t46.5 89t20 131.5t4.5 160q0 50 6.5 106.5t22 112t40.5 106t62 88.5t87 61t115 23q89 0 168 -40.5t138.5 -117t94 -187.5t34.5 -252q0 -91 -20.5 -171t-60.5 -140t-97.5 -95t-131.5 -35q-57 0 -98 23.5t-67.5 61t-39 83.5t-12.5 92q0 51 17.5 97.5
t50 82t77 56t98.5 20.5q45 0 85 -15.5t75 -54.5q0 51 -7 105t-22.5 105.5t-40 97.5t-59.5 80.5t-80.5 55t-103.5 20.5q-40 0 -70 -17.5t-52.5 -46.5t-38 -67.5t-25 -80.5t-13.5 -85.5t-4 -82.5q0 -59 -2.5 -121.5t-11.5 -121.5t-27 -111t-49.5 -91t-78.5 -62t-114 -23
q-43 0 -85 12.5t-79.5 35t-68.5 54t-52 69.5q-51 -79 -132 -125t-186 -46q-43 0 -84.5 12.5t-78.5 35t-67.5 54t-51.5 69.5q-26 -39 -56 -71t-69 -54t-88 -34t-112 -12q-59 0 -112 17.5t-93 50.5t-63 80.5t-23 107.5q0 36 14.5 72.5t43.5 66t72 48t99 18.5q57 0 102.5 -22
t79 -55.5t56 -74t34.5 -77.5q31 43 47.5 101t16.5 128q0 65 -19 140t-56 141q-14 -42 -39.5 -75t-58.5 -55.5t-72 -34t-79 -11.5q-54 0 -98.5 18t-76 49t-49 72t-17.5 87q0 56 19.5 101.5t54 77.5t82 49.5t102.5 17.5q62 0 118.5 -25.5t104.5 -69t86.5 -101t66 -120.5
t42 -127.5t14.5 -123.5q0 -35 -3.5 -74.5t-9.5 -69.5q8 -41 30 -77t52.5 -63t66.5 -43t72 -16q68 0 118 27.5t82.5 73.5t48 105.5t15.5 123.5q0 58 -15.5 125t-56 130t-109.5 115.5t-177 81.5h-114v128h326q92 0 141.5 41.5t49.5 105.5q0 18 -5.5 37t-14.5 36.5t-20 32.5
t-22 26l78 75q51 -50 75.5 -106.5t24.5 -113.5q0 -49 -15.5 -94t-48 -80t-83.5 -58.5t-121 -28.5q63 -48 107.5 -107.5t73 -121t41.5 -120t13 -104.5q0 -35 -3.5 -68t-9.5 -63q8 -41 30.5 -77t53.5 -63t67.5 -43t72.5 -16zM320 900q-34 0 -58 -11t-39.5 -29t-23 -40.5
t-7.5 -44.5t8 -42.5t23.5 -37t39.5 -26.5t57 -10q24 0 50 13t47.5 37t35.5 57.5t14 75.5q-32 27 -68.5 42.5t-78.5 15.5zM2208 378q-27 0 -49 -11.5t-37.5 -30t-24 -41.5t-8.5 -45q0 -26 8 -50t23 -42t36.5 -29t48.5 -11q52 0 87.5 38.5t54.5 99.5q-11 40 -27.5 64t-35.5 37
t-39 17t-37 4zM300 323q-46 0 -77 -23.5t-31 -61.5q0 -32 15 -54.5t39 -37t53.5 -21.5t58.5 -7q69 0 124 29q-23 56 -48 90.5t-49 53.5t-46 25.5t-39 6.5z" />
    <glyph glyph-name="kn_ya" unicode="&#xcaf;" horiz-adv-x="2394" 
d="M1686 448q0 -82 -17 -153q11 -36 33.5 -68.5t52 -56.5t63 -38t66.5 -14q68 0 118 27.5t82.5 73.5t48 105.5t15.5 123.5q0 58 -14.5 120.5t-52 126.5t-102.5 127t-167 123l64 102q120 -63 197.5 -139.5t122.5 -156.5t62.5 -158.5t17.5 -144.5q0 -108 -28 -193t-79.5 -144
t-124 -90t-160.5 -31q-42 0 -82 12t-76 33.5t-66.5 51.5t-52.5 66q-51 -75 -130 -119t-182 -44q-43 0 -85.5 13t-81 36.5t-70 56t-53.5 70.5q-74 -81 -178.5 -128.5t-225.5 -47.5q-74 0 -142.5 18.5t-128 52t-109 80t-84.5 104t-54 123t-19 136.5q0 106 42.5 199.5
t115 163.5t170.5 110t209 40t209 -40t170.5 -110t115 -163.5t42.5 -199.5q0 -62 -14.5 -119.5t-41.5 -108.5q14 -32 38 -60.5t52.5 -50t60.5 -34.5t62 -13q68 0 117.5 27.5t82 73.5t48 105.5t15.5 123.5q0 39 -9.5 85t-29.5 92.5t-50.5 91.5t-72 81t-95.5 60.5t-120 31.5
h-43v128h242q98 0 144.5 41.5t46.5 105.5q0 18 -5 36t-13.5 33.5t-19 28.5t-22.5 22l66 83q28 -21 49 -47t34.5 -54t20 -57.5t6.5 -57.5q0 -43 -15 -85t-44 -76.5t-72 -59t-100 -31.5q64 -41 108 -98.5t71 -119.5t39 -123.5t12 -110.5zM193 502q0 -91 35 -162t92.5 -120.5
t130.5 -75.5t149 -26q75 0 148 27.5t130.5 78t93 121.5t35.5 157q0 84 -36 155t-93.5 122.5t-130.5 80.5t-147 29t-147 -29t-130.5 -80.5t-93.5 -122.5t-36 -155z" />
    <glyph glyph-name="uni2219" unicode="&#x2219;" horiz-adv-x="580" 
d="M393 743v-225h-200v225h200z" />
    <glyph glyph-name="uni25CC" unicode="&#x25cc;" horiz-adv-x="1224" 
d="M1078 781l-102 -72q-51 82 -134 132l72 102q102 -63 164 -162zM740 1021l-21 -123q-45 8 -93 8q-50 0 -93 -8l-23 123q59 14 115 14q57 0 115 -14zM1150 509q0 -56 -12 -115l-125 23q9 43 9 92q0 48 -9 95l125 19q12 -58 12 -114zM1078 238q-63 -100 -164 -165l-72 104
q83 50 134 134zM410 841q-85 -50 -134 -132l-102 72q60 99 163 162zM238 417l-124 -23q-13 56 -13 115q0 60 13 114l124 -19q-10 -47 -10 -95q0 -49 10 -92zM740 -2q-58 -13 -115 -13q-56 0 -115 13l23 125q43 -11 93 -11q48 0 93 11zM410 177l-73 -104q-101 65 -163 165
l102 73q49 -84 134 -134z" />
    <glyph glyph-name="kn_llla" unicode="&#xcde;" horiz-adv-x="1558" 
d="M354 640q27 0 49 13.5t37.5 33.5t24 42t8.5 39q0 24 -8 47t-23 41t-36.5 29t-48.5 11q-52 0 -87.5 -36.5t-54.5 -97.5q11 -40 27.5 -64t35.5 -37t39 -17t37 -4zM752 174q-58 -91 -124 -132.5t-145 -41.5q-41 0 -88 14t-93.5 44t-89.5 77t-76 113t-52.5 152t-19.5 194
q0 95 22.5 174t64 136t100.5 88.5t133 31.5q57 0 98 -23.5t67.5 -60.5t39 -82.5t12.5 -89.5q0 -48 -17.5 -94t-50 -82t-77 -58t-98.5 -22q-45 0 -88 16.5t-78 55.5q1 -81 16.5 -146.5t40 -116t55 -87t62 -60t60.5 -35t50 -11.5q50 0 89.5 21t66.5 53.5t41.5 72.5t14.5 79
h128q0 -39 14.5 -79t41.5 -72.5t66.5 -53.5t89.5 -21q21 0 50 11.5t60.5 35t62 60t55 87t40 116t16.5 146.5q-35 -39 -78 -55.5t-88 -16.5q-54 0 -98.5 22t-77 58t-50 82t-17.5 94q0 44 12.5 89.5t39 82.5t67.5 60.5t98 23.5q74 0 133 -31.5t100.5 -88.5t64 -136t22.5 -174
q0 -108 -19.5 -194t-52.5 -152t-76 -113t-89.5 -77t-93.5 -44t-88 -14q-79 0 -145 41.5t-124 132.5zM1150 640q17 0 37 4t39 17t35.5 37t27.5 64q-19 61 -54.5 97.5t-87.5 36.5q-27 0 -48.5 -11t-36.5 -29t-23 -41t-8 -47q0 -17 8.5 -39t24 -42t37.5 -33.5t49 -13.5z" />
    <glyph glyph-name="kn_nukta" unicode="&#xcbc;" horiz-adv-x="1231" 
d="M1041 781l-102 -72q-51 82 -134 132l72 102q103 -64 164 -162zM703 1021l-21 -123q-23 4 -46 6t-47 2q-47 0 -93 -8l-23 123q61 14 115 14q29 0 57.5 -3.5t57.5 -10.5zM1113 509q0 -57 -12 -115l-125 23q9 43 9 92q0 48 -9 95l125 19q12 -59 12 -114zM1041 238
q-63 -100 -164 -165l-72 104q83 50 134 134zM373 841q-84 -49 -134 -132l-102 72q60 99 163 162zM201 417l-124 -23q-7 28 -10 57t-3 58q0 62 13 114l124 -19q-5 -23 -7.5 -47t-2.5 -48q0 -51 10 -92zM703 -2q-56 -13 -115 -13q-28 0 -57 3t-58 10l23 125q46 -11 93 -11
q46 0 93 11zM373 177l-73 -104q-102 66 -163 165l102 73q50 -86 134 -134zM178 -245q0 22 8 41t22.5 33t33.5 22.5t41 8.5t41 -8.5t33 -22.5t22.5 -33t8.5 -41t-8.5 -41t-22.5 -33.5t-33 -22.5t-41 -8t-41 8t-33.5 22.5t-22.5 33.5t-8 41zM788 -245q0 22 8 41t22.5 33
t33.5 22.5t41 8.5t41 -8.5t33 -22.5t22.5 -33t8.5 -41t-8.5 -41t-22.5 -33.5t-33 -22.5t-41 -8t-41 8t-33.5 22.5t-22.5 33.5t-8 41z" />
    <glyph glyph-name="kn_avagraha" unicode="&#xcbd;" horiz-adv-x="904" 
d="M786 1018v-128h-387q-19 0 -41.5 -4t-42.5 -15.5t-33.5 -33t-13.5 -57.5q0 -56 32.5 -97.5t82 -77t106.5 -68.5t106.5 -72t82 -88t32.5 -117q0 -51 -16 -99.5t-53 -86.5t-96.5 -61t-146.5 -23q-49 0 -98 16.5t-93.5 45.5t-81.5 68.5t-61 86.5l97 73q27 -51 57 -82.5
t62 -49.5t65 -24t66 -6q52 0 85.5 15.5t52 37.5t25.5 46t7 42q0 50 -32.5 88.5t-81.5 72t-106.5 67.5t-106.5 75.5t-81.5 95t-32.5 127.5q0 64 22 108t56.5 72t77.5 40.5t86 12.5h404z" />
    <glyph glyph-name="kn_matra_aa" unicode="&#xcbe;" horiz-adv-x="2131" 
d="M1747 306q0 -44 -17 -93.5t-63 -94.5q106 22 162 109t56 234q0 91 -32.5 169t-96.5 136t-159.5 91t-222.5 33h-395v128h386q156 0 277 -43.5t203.5 -119t125 -177t42.5 -216.5q0 -106 -29 -193t-82 -149t-126.5 -96t-162.5 -34q-79 0 -143.5 22t-110 62t-70 95.5
t-24.5 122.5q0 54 18 101.5t51 82.5t79 55.5t103 20.5q60 0 103.5 -22t72 -57t42 -79t13.5 -88zM1393 292q0 -39 13 -69.5t33 -52.5t44.5 -35t48.5 -17q25 14 43 35t30 45t18 48t6 45q0 30 -9.5 54.5t-25 42t-36 27t-42.5 9.5q-25 0 -47 -9t-39 -26t-27 -41.5t-10 -55.5z
M1041 781l-102 -72q-51 82 -134 132l72 102q103 -64 164 -162zM703 1021l-21 -123q-23 4 -46 6t-47 2q-47 0 -93 -8l-23 123q61 14 115 14q29 0 57.5 -3.5t57.5 -10.5zM1113 509q0 -57 -12 -115l-125 23q9 43 9 92q0 48 -9 95l125 19q12 -59 12 -114zM1041 238
q-63 -100 -164 -165l-72 104q83 50 134 134zM373 841q-84 -49 -134 -132l-102 72q60 99 163 162zM201 417l-124 -23q-7 28 -10 57t-3 58q0 62 13 114l124 -19q-5 -23 -7.5 -47t-2.5 -48q0 -51 10 -92zM703 -2q-56 -13 -115 -13q-28 0 -57 3t-58 10l23 125q46 -11 93 -11
q46 0 93 11zM373 177l-73 -104q-102 66 -163 165l102 73q50 -86 134 -134z" />
    <glyph glyph-name="kn_matra_i" unicode="&#xcbf;" horiz-adv-x="1231" 
d="M549 1124q-54 0 -97.5 15.5t-74.5 42.5t-47.5 62.5t-16.5 75.5q0 45 18 83.5t50.5 66.5t76.5 44t96 16q78 0 136 -27.5t96.5 -72.5t57.5 -102.5t19 -117.5q0 -56 -16.5 -101.5t-43.5 -81t-62.5 -61.5t-73 -43t-75 -25t-69.5 -8v128q50 0 89.5 16.5t66.5 43.5t41.5 62
t14.5 72v5q-32 -44 -81.5 -68.5t-104.5 -24.5zM555 1402q-16 0 -36 -3.5t-37 -12.5t-29 -24t-12 -39q0 -20 9.5 -35t24.5 -25t35 -15.5t41 -5.5q45 0 81 25.5t53 73.5q-24 27 -57 44t-73 17zM1041 238q-63 -100 -164 -165l-72 104q83 50 134 134zM373 177l-73 -104
q-102 66 -163 165l102 73q50 -86 134 -134zM1113 509q0 -57 -12 -115l-125 23q9 43 9 92q0 48 -9 95l125 19q12 -59 12 -114zM703 -2q-56 -13 -115 -13q-28 0 -57 3t-58 10l23 125q46 -11 93 -11q46 0 93 11zM201 417l-124 -23q-7 28 -10 57t-3 58q0 62 13 114l124 -19
q-5 -23 -7.5 -47t-2.5 -48q0 -51 10 -92zM373 841q-84 -49 -134 -132l-102 72q60 99 163 162zM1041 781l-102 -72q-51 82 -134 132l72 102q103 -64 164 -162z" />
    <glyph glyph-name="kn_matra_ii" unicode="&#xcc0;" horiz-adv-x="1862" 
d="M1672 -10q-89 0 -171 40.5t-145 117t-101 187.5t-38 252q0 91 20.5 171t60.5 140t97.5 95t131.5 35q57 0 98 -23.5t67.5 -61t39 -83.5t12.5 -92q0 -51 -17.5 -97.5t-50 -82t-77 -56t-98.5 -20.5q-45 0 -85 15.5t-75 54.5q0 -76 20.5 -158t61.5 -150t103.5 -112t146.5 -44
zM549 1124q-54 0 -97.5 15.5t-74.5 42.5t-47.5 62.5t-16.5 75.5q0 45 18 83.5t50.5 66.5t76.5 44t96 16q78 0 136 -27.5t96.5 -72.5t57.5 -102.5t19 -117.5q0 -56 -16.5 -101.5t-43.5 -81t-62.5 -61.5t-73 -43t-75 -25t-69.5 -8v128q50 0 89.5 16.5t66.5 43.5t41.5 62
t14.5 72v5q-32 -44 -81.5 -68.5t-104.5 -24.5zM1497 640q27 0 49 11.5t37.5 30t24 41.5t8.5 45q0 26 -8 50t-23 42t-36.5 29t-48.5 11q-52 0 -87.5 -38.5t-54.5 -99.5q11 -40 27.5 -64t35.5 -37t39 -17t37 -4zM555 1402q-16 0 -36 -3.5t-37 -12.5t-29 -24t-12 -39
q0 -20 9.5 -35t24.5 -25t35 -15.5t41 -5.5q45 0 81 25.5t53 73.5q-24 27 -57 44t-73 17zM1041 238q-63 -100 -164 -165l-72 104q83 50 134 134zM373 177l-73 -104q-102 66 -163 165l102 73q50 -86 134 -134zM1113 509q0 -57 -12 -115l-125 23q9 43 9 92q0 48 -9 95l125 19
q12 -59 12 -114zM703 -2q-56 -13 -115 -13q-28 0 -57 3t-58 10l23 125q46 -11 93 -11q46 0 93 11zM201 417l-124 -23q-7 28 -10 57t-3 58q0 62 13 114l124 -19q-5 -23 -7.5 -47t-2.5 -48q0 -51 10 -92zM373 841q-84 -49 -134 -132l-102 72q60 99 163 162zM1041 781l-102 -72
q-51 82 -134 132l72 102q103 -64 164 -162z" />
    <glyph glyph-name="kn_matra_u" unicode="&#xcc1;" horiz-adv-x="1822" 
d="M1099 278q12 -35 34.5 -64.5t51 -50.5t61.5 -33t65 -12q68 0 118 26t82.5 70t48.5 102t16 122q0 58 -14.5 122t-52 130t-103 130.5t-167.5 124.5l64 102q120 -63 197.5 -141t123 -160t63 -162t17.5 -146q0 -108 -28 -191.5t-80 -140.5t-124.5 -86.5t-160.5 -29.5
q-83 0 -156 39t-118 111zM1041 781l-102 -72q-51 82 -134 132l72 102q103 -64 164 -162zM703 1021l-21 -123q-23 4 -46 6t-47 2q-47 0 -93 -8l-23 123q61 14 115 14q29 0 57.5 -3.5t57.5 -10.5zM1113 509q0 -57 -12 -115l-125 23q9 43 9 92q0 48 -9 95l125 19
q12 -59 12 -114zM1041 238q-63 -100 -164 -165l-72 104q83 50 134 134zM373 841q-84 -49 -134 -132l-102 72q60 99 163 162zM201 417l-124 -23q-7 28 -10 57t-3 58q0 62 13 114l124 -19q-5 -23 -7.5 -47t-2.5 -48q0 -51 10 -92zM703 -2q-56 -13 -115 -13q-28 0 -57 3t-58 10
l23 125q46 -11 93 -11q46 0 93 11zM373 177l-73 -104q-102 66 -163 165l102 73q50 -86 134 -134z" />
    <glyph glyph-name="kn_matra_uu" unicode="&#xcc2;" horiz-adv-x="2352" 
d="M1954 378q-27 0 -49 -11.5t-37.5 -30t-24 -41.5t-8.5 -45q0 -26 8 -50t23 -42t36.5 -29t48.5 -11q52 0 87.5 38.5t54.5 99.5q-11 40 -27.5 64t-35.5 37t-39 17t-37 4zM1316 118q51 0 80.5 32.5t45 89t20 131.5t4.5 160q0 50 6.5 106.5t22 112t40.5 106t62 88.5t87 61
t115 23q89 0 168 -40.5t138.5 -117t94 -187.5t34.5 -252q0 -91 -20.5 -171t-60.5 -140t-97.5 -95t-131.5 -35q-57 0 -98 23.5t-67.5 61t-39 83.5t-12.5 92q0 51 17.5 97.5t50 82t77 56t98.5 20.5q45 0 85 -15.5t75 -54.5q0 51 -7 105t-22.5 105.5t-40 97.5t-59.5 80.5
t-80.5 55t-103.5 20.5q-40 0 -70 -17.5t-52.5 -46.5t-38 -67.5t-25 -80.5t-13.5 -85.5t-4 -82.5q0 -59 -2.5 -121.5t-11.5 -121.5t-27 -111t-49.5 -91t-78.5 -62t-114 -23q-83 0 -156 39t-118 111l62 138q12 -35 34.5 -64.5t51 -50.5t61.5 -33t65 -12h5zM1041 781l-102 -72
q-51 82 -134 132l72 102q103 -64 164 -162zM703 1021l-21 -123q-23 4 -46 6t-47 2q-47 0 -93 -8l-23 123q61 14 115 14q29 0 57.5 -3.5t57.5 -10.5zM1113 509q0 -57 -12 -115l-125 23q9 43 9 92q0 48 -9 95l125 19q12 -59 12 -114zM1041 238q-63 -100 -164 -165l-72 104
q83 50 134 134zM373 841q-84 -49 -134 -132l-102 72q60 99 163 162zM201 417l-124 -23q-7 28 -10 57t-3 58q0 62 13 114l124 -19q-5 -23 -7.5 -47t-2.5 -48q0 -51 10 -92zM703 -2q-56 -13 -115 -13q-28 0 -57 3t-58 10l23 125q46 -11 93 -11q46 0 93 11zM373 177l-73 -104
q-102 66 -163 165l102 73q50 -86 134 -134z" />
    <glyph glyph-name="kn_matra_e" unicode="&#xcc6;" horiz-adv-x="1282" 
d="M1062 781l-102 -72q-51 82 -134 132l34 49h-501l35 -49q-84 -49 -134 -132l-102 72q37 61 91 109h-185v128h793q49 0 85 14.5t59.5 40t35 61.5t11.5 79q0 42 -14.5 74t-38 53.5t-54 32.5t-63.5 11q-26 0 -51 -7t-44 -21t-30.5 -35t-11.5 -50q0 -33 20 -56.5t49 -23.5
q6 0 12 4q-3 3 -7.5 11t-4.5 17q0 33 20.5 48.5t48.5 15.5q33 0 54 -23t21 -54q0 -39 -34 -66t-93 -27q-35 0 -64.5 13t-50.5 35.5t-33 52t-12 62.5q0 47 19.5 82.5t51 59.5t71 36.5t79.5 12.5q67 0 119 -25.5t86.5 -66t52.5 -90t18 -98.5q0 -43 -12 -88t-37.5 -84.5
t-65 -70.5t-94.5 -46q63 -51 107 -121zM1062 238q-63 -100 -164 -165l-72 104q83 50 134 134zM394 177l-73 -104q-102 66 -163 165l102 73q50 -86 134 -134zM1134 509q0 -57 -12 -115l-125 23q9 43 9 92q0 48 -9 95l125 19q12 -59 12 -114zM724 -2q-56 -13 -115 -13
q-28 0 -57 3t-58 10l23 125q46 -11 93 -11q46 0 93 11zM222 417l-124 -23q-7 28 -10 57t-3 58q0 62 13 114l124 -19q-5 -23 -7.5 -47t-2.5 -48q0 -51 10 -92z" />
    <glyph glyph-name="kn_matra_ee" unicode="&#xcc7;" horiz-adv-x="1843" 
d="M1653 -10q-89 0 -171 40.5t-145 117t-101 187.5t-38 252q0 91 20.5 171t60.5 140t97.5 95t131.5 35q57 0 98 -23.5t67.5 -61t39 -83.5t12.5 -92q0 -51 -17.5 -97.5t-50 -82t-77 -56t-98.5 -20.5q-45 0 -85 15.5t-75 54.5q0 -76 20.5 -158t61.5 -150t103.5 -112t146.5 -44
zM1062 781l-102 -72q-51 82 -134 132l34 49h-501l35 -49q-84 -49 -134 -132l-102 72q37 61 91 109h-185v128h793q49 0 85 14.5t59.5 40t35 61.5t11.5 79q0 42 -14.5 74t-38 53.5t-54 32.5t-63.5 11q-26 0 -51 -7t-44 -21t-30.5 -35t-11.5 -50q0 -33 20 -56.5t49 -23.5
q6 0 12 4q-3 3 -7.5 11t-4.5 17q0 33 20.5 48.5t48.5 15.5q33 0 54 -23t21 -54q0 -39 -34 -66t-93 -27q-35 0 -64.5 13t-50.5 35.5t-33 52t-12 62.5q0 47 19.5 82.5t51 59.5t71 36.5t79.5 12.5q67 0 119 -25.5t86.5 -66t52.5 -90t18 -98.5q0 -43 -12 -88t-37.5 -84.5
t-65 -70.5t-94.5 -46q63 -51 107 -121zM1478 640q27 0 49 11.5t37.5 30t24 41.5t8.5 45q0 26 -8 50t-23 42t-36.5 29t-48.5 11q-52 0 -87.5 -38.5t-54.5 -99.5q11 -40 27.5 -64t35.5 -37t39 -17t37 -4zM1062 238q-63 -100 -164 -165l-72 104q83 50 134 134zM394 177
l-73 -104q-102 66 -163 165l102 73q50 -86 134 -134zM1134 509q0 -57 -12 -115l-125 23q9 43 9 92q0 48 -9 95l125 19q12 -59 12 -114zM724 -2q-56 -13 -115 -13q-28 0 -57 3t-58 10l23 125q46 -11 93 -11q46 0 93 11zM222 417l-124 -23q-7 28 -10 57t-3 58q0 62 13 114
l124 -19q-5 -23 -7.5 -47t-2.5 -48q0 -51 10 -92z" />
    <glyph glyph-name="kn_ai_length_mark" unicode="&#xcd6;" horiz-adv-x="745" 
d="M72 -523q-20 0 -38 3q21 -19 46 -32t50.5 -20.5t50 -10.5t44.5 -3q69 0 120 23t85.5 64t51.5 97.5t17 124.5q0 67 -29 126.5t-75.5 103t-105.5 69t-119 25.5v128q34 0 76.5 12.5t80 38.5t62.5 66t25 94q0 44 -16.5 78.5t-45 60t-67.5 42.5t-84 25l27 95q63 -13 118.5 -38
t97 -63t65 -90t23.5 -119q0 -58 -17.5 -101.5t-46.5 -75t-66.5 -53t-77.5 -35.5q60 -16 115 -52.5t97 -88t66.5 -115.5t24.5 -135q0 -92 -28.5 -170t-81 -134.5t-126 -88.5t-163.5 -32q-95 0 -168 27t-122.5 75t-75.5 113t-26 142q0 57 18.5 108t52 90t80.5 62t103 23
q51 0 93 -19t72 -51.5t46.5 -76.5t16.5 -93q0 -53 -20 -94t-54 -69t-78.5 -42t-93.5 -14zM-36 -347q0 -28 5 -56q24 -9 50 -14t48 -5t44.5 7.5t39.5 22.5t28 36t11 48q0 29 -9.5 50.5t-24 36t-32.5 22t-35 7.5q-27 0 -49.5 -10.5t-39.5 -31t-26.5 -49t-9.5 -64.5z" />
    <glyph glyph-name="kn_length_mark" unicode="&#xcd5;" horiz-adv-x="645" 
d="M455 -10q-89 0 -171 40.5t-145 117t-101 187.5t-38 252q0 91 20.5 171t60.5 140t97.5 95t131.5 35q57 0 98 -23.5t67.5 -61t39 -83.5t12.5 -92q0 -51 -17.5 -97.5t-50 -82t-77 -56t-98.5 -20.5q-45 0 -85 15.5t-75 54.5q0 -76 20.5 -158t61.5 -150t103.5 -112t146.5 -44z
M280 640q27 0 49 11.5t37.5 30t24 41.5t8.5 45q0 26 -8 50t-23 42t-36.5 29t-48.5 11q-52 0 -87.5 -38.5t-54.5 -99.5q11 -40 27.5 -64t35.5 -37t39 -17t37 -4z" />
    <glyph glyph-name="kn_matra_ai" unicode="&#xcc8;" horiz-adv-x="2002" 
d="M1062 781l-102 -72q-51 82 -134 132l34 49h-501l35 -49q-84 -49 -134 -132l-102 72q37 61 91 109h-185v128h793q49 0 85 14.5t59.5 40t35 61.5t11.5 79q0 42 -14.5 74t-38 53.5t-54 32.5t-63.5 11q-26 0 -51 -7t-44 -21t-30.5 -35t-11.5 -50q0 -33 20 -56.5t49 -23.5
q6 0 12 4q-3 3 -7.5 11t-4.5 17q0 33 20.5 48.5t48.5 15.5q33 0 54 -23t21 -54q0 -39 -34 -66t-93 -27q-35 0 -64.5 13t-50.5 35.5t-33 52t-12 62.5q0 47 19.5 82.5t51 59.5t71 36.5t79.5 12.5q67 0 119 -25.5t86.5 -66t52.5 -90t18 -98.5q0 -43 -12 -88t-37.5 -84.5
t-65 -70.5t-94.5 -46q63 -51 107 -121zM1062 238q-63 -100 -164 -165l-72 104q83 50 134 134zM394 177l-73 -104q-102 66 -163 165l102 73q50 -86 134 -134zM1134 509q0 -57 -12 -115l-125 23q9 43 9 92q0 48 -9 95l125 19q12 -59 12 -114zM724 -2q-56 -13 -115 -13
q-28 0 -57 3t-58 10l23 125q46 -11 93 -11q46 0 93 11zM222 417l-124 -23q-7 28 -10 57t-3 58q0 62 13 114l124 -19q-5 -23 -7.5 -47t-2.5 -48q0 -51 10 -92zM1122 -523q-20 0 -38 3q21 -19 46 -32t50.5 -20.5t50 -10.5t44.5 -3q69 0 120 23t85.5 64t51.5 97.5t17 124.5
q0 67 -29 126.5t-75.5 103t-105.5 69t-119 25.5v128q34 0 76.5 12.5t80 38.5t62.5 66t25 94q0 44 -16.5 78.5t-45 60t-67.5 42.5t-84 25l27 95q63 -13 118.5 -38t97 -63t65 -90t23.5 -119q0 -58 -17.5 -101.5t-46.5 -75t-66.5 -53t-77.5 -35.5q60 -16 115 -52.5t97 -88
t66.5 -115.5t24.5 -135q0 -92 -28.5 -170t-81 -134.5t-126 -88.5t-163.5 -32q-95 0 -168 27t-122.5 75t-75.5 113t-26 142q0 57 18.5 108t52 90t80.5 62t103 23q51 0 93 -19t72 -51.5t46.5 -76.5t16.5 -93q0 -53 -20 -94t-54 -69t-78.5 -42t-93.5 -14zM1014 -347
q0 -28 5 -56q24 -9 50 -14t48 -5t44.5 7.5t39.5 22.5t28 36t11 48q0 29 -9.5 50.5t-24 36t-32.5 22t-35 7.5q-27 0 -49.5 -10.5t-39.5 -31t-26.5 -49t-9.5 -64.5z" />
    <glyph glyph-name="kn_matra_oo" unicode="&#xccb;" horiz-adv-x="2979" 
d="M1370 118q51 0 80.5 32.5t45 89t20 131.5t4.5 160q0 50 6.5 106.5t22 112t40.5 106t62 88.5t87 61t115 23q89 0 168 -40.5t138.5 -117t94 -187.5t34.5 -252q0 -91 -20.5 -171t-60.5 -140t-97.5 -95t-131.5 -35q-57 0 -98 23.5t-67.5 61t-39 83.5t-12.5 92q0 51 17.5 97.5
t50 82t77 56t98.5 20.5q45 0 85 -15.5t75 -54.5q0 51 -7 105t-22.5 105.5t-40 97.5t-59.5 80.5t-80.5 55t-103.5 20.5q-40 0 -70 -17.5t-52.5 -46.5t-38 -67.5t-25 -80.5t-13.5 -85.5t-4 -82.5q0 -59 -2.5 -121.5t-11.5 -121.5t-27 -111t-49.5 -91t-78.5 -62t-114 -23
q-83 0 -156 39t-118 111l62 138q12 -35 34.5 -64.5t51 -50.5t61.5 -33t65 -12h5zM2789 -10q-89 0 -171 40.5t-145 117t-101 187.5t-38 252q0 91 20.5 171t60.5 140t97.5 95t131.5 35q57 0 98 -23.5t67.5 -61t39 -83.5t12.5 -92q0 -51 -17.5 -97.5t-50 -82t-77 -56
t-98.5 -20.5q-45 0 -85 15.5t-75 54.5q0 -76 20.5 -158t61.5 -150t103.5 -112t146.5 -44zM1062 781l-102 -72q-51 82 -134 132l34 49h-501l35 -49q-84 -49 -134 -132l-102 72q37 61 91 109h-185v128h793q49 0 85 14.5t59.5 40t35 61.5t11.5 79q0 42 -14.5 74t-38 53.5
t-54 32.5t-63.5 11q-26 0 -51 -7t-44 -21t-30.5 -35t-11.5 -50q0 -33 20 -56.5t49 -23.5q6 0 12 4q-3 3 -7.5 11t-4.5 17q0 33 20.5 48.5t48.5 15.5q33 0 54 -23t21 -54q0 -39 -34 -66t-93 -27q-35 0 -64.5 13t-50.5 35.5t-33 52t-12 62.5q0 47 19.5 82.5t51 59.5t71 36.5
t79.5 12.5q67 0 119 -25.5t86.5 -66t52.5 -90t18 -98.5q0 -43 -12 -88t-37.5 -84.5t-65 -70.5t-94.5 -46q63 -51 107 -121zM2008 378q-27 0 -49 -11.5t-37.5 -30t-24 -41.5t-8.5 -45q0 -26 8 -50t23 -42t36.5 -29t48.5 -11q52 0 87.5 38.5t54.5 99.5q-11 40 -27.5 64
t-35.5 37t-39 17t-37 4zM2614 640q27 0 49 11.5t37.5 30t24 41.5t8.5 45q0 26 -8 50t-23 42t-36.5 29t-48.5 11q-52 0 -87.5 -38.5t-54.5 -99.5q11 -40 27.5 -64t35.5 -37t39 -17t37 -4zM1062 238q-63 -100 -164 -165l-72 104q83 50 134 134zM394 177l-73 -104
q-102 66 -163 165l102 73q50 -86 134 -134zM1134 509q0 -57 -12 -115l-125 23q9 43 9 92q0 48 -9 95l125 19q12 -59 12 -114zM724 -2q-56 -13 -115 -13q-28 0 -57 3t-58 10l23 125q46 -11 93 -11q46 0 93 11zM222 417l-124 -23q-7 28 -10 57t-3 58q0 62 13 114l124 -19
q-5 -23 -7.5 -47t-2.5 -48q0 -51 10 -92z" />
    <glyph glyph-name="kn_matra_au" unicode="&#xccc;" horiz-adv-x="1916" 
d="M1041 781l-102 -72q-51 82 -134 132l41 59h-346v128h449q18 0 30.5 6.5t20 16.5t10.5 22t3 24q0 14 -3.5 28t-11.5 25.5t-20 18.5t-29 7h-885v128h1255q122 0 212 -33.5t149.5 -90.5t88.5 -133t29 -161q0 -75 -22 -143t-64 -119.5t-101.5 -82t-134.5 -30.5
q-47 0 -93.5 14.5t-84 44.5t-60.5 75t-23 106q0 48 16 86t42 65t59.5 41t68.5 14q29 0 53 -9t40.5 -23.5t25.5 -33.5t9 -38q0 -31 -21 -54t-54 -23q-28 0 -48.5 15.5t-20.5 48.5q0 9 4.5 17t7.5 11q-6 4 -12 4q-29 0 -49 -28.5t-20 -73.5q0 -32 13.5 -56.5t34.5 -41
t47.5 -25t52.5 -8.5q57 0 96.5 20t63.5 54t35 80t11 97q0 64 -22.5 116.5t-67 90t-110 58.5t-151.5 21h-215q17 -23 27 -48.5t10 -48.5q0 -39 -16.5 -72t-43.5 -56.5t-61.5 -37t-70.5 -13.5h-12q62 -51 104 -119zM1041 238q-63 -100 -164 -165l-72 104q83 50 134 134z
M373 177l-73 -104q-102 66 -163 165l102 73q50 -86 134 -134zM1113 509q0 -57 -12 -115l-125 23q9 43 9 92q0 48 -9 95l125 19q12 -59 12 -114zM703 -2q-56 -13 -115 -13q-28 0 -57 3t-58 10l23 125q46 -11 93 -11q46 0 93 11zM201 417l-124 -23q-7 28 -10 57t-3 58
q0 62 13 114l124 -19q-5 -23 -7.5 -47t-2.5 -48q0 -51 10 -92zM373 841q-84 -49 -134 -132l-102 72q60 99 163 162z" />
    <glyph glyph-name="kn_virama" unicode="&#xccd;" horiz-adv-x="1831" 
d="M1042 781l-102 -72q-51 82 -134 132l34 49h-501l35 -49q-84 -49 -134 -132l-102 72q37 61 91 109h-165v128h1089q15 70 48 120t76.5 81.5t92.5 46t94 14.5q46 0 85 -14t70 -35t54.5 -47t39.5 -50l-82 -66q-12 15 -29.5 30.5t-40 27.5t-49 19.5t-56.5 7.5q-22 0 -47 -7
t-48.5 -23t-43.5 -42t-32 -63h81q42 0 88.5 -12.5t85.5 -40t65 -72.5t26 -110q0 -45 -18.5 -83.5t-50 -66t-72.5 -43t-86 -15.5q-63 0 -110 26.5t-79 70.5t-49.5 100.5t-20.5 117.5h-195q52 -47 92 -109zM1405 695q50 0 74 25.5t24 65.5q0 49 -42 76.5t-112 27.5h-76
q5 -105 41.5 -150t90.5 -45zM1042 238q-63 -100 -164 -165l-72 104q83 50 134 134zM374 177l-73 -104q-102 66 -163 165l102 73q50 -86 134 -134zM1114 509q0 -57 -12 -115l-125 23q9 43 9 92q0 48 -9 95l125 19q12 -59 12 -114zM704 -2q-56 -13 -115 -13q-28 0 -57 3
t-58 10l23 125q46 -11 93 -11q46 0 93 11zM202 417l-124 -23q-7 28 -10 57t-3 58q0 62 13 114l124 -19q-5 -23 -7.5 -47t-2.5 -48q0 -51 10 -92z" />
    <glyph glyph-name="kn_reph" horiz-adv-x="925" 
d="M807 890h-390q-53 0 -95 -11t-71 -31t-44 -47.5t-15 -60.5q0 -38 15.5 -70t42 -55.5t62 -36.5t75.5 -13h163v-128h-164q-91 0 -142.5 -41.5t-51.5 -107.5q0 -43 25.5 -73.5t64 -49.5t84.5 -28t87 -9v-128q-40 0 -84 5t-87 17.5t-82.5 33t-69.5 51.5t-48 74t-18 99
q0 46 16.5 84t41.5 66.5t54 46.5t55 24q-26 8 -55 27t-54 50t-41.5 73t-16.5 96t22 103t64 86.5t103 59.5t138 22h416v-128z" />
    <glyph glyph-name="kn_ka.vattu" horiz-adv-x="404" 
d="M-289 -424q0 59 27 110.5t75 89.5h-102v81h297q19 50 19 135q0 94 -51 193l78 41q29 -55 44.5 -114t15.5 -119q0 -87 -12 -136h297v-81h-103q48 -38 75.5 -89t27.5 -111q0 -58 -27 -109t-74 -89t-109.5 -60t-134.5 -22q-71 0 -133.5 22t-109 60t-73.5 89t-27 109z
M-190 -423q0 -37 19 -70t52 -57.5t77.5 -39t95.5 -14.5t95.5 14.5t77.5 39t52.5 57.5t19.5 70t-19.5 70t-52.5 57.5t-77.5 38.5t-95.5 14t-95.5 -14t-77.5 -38.5t-52 -57.5t-19 -70z" />
    <glyph glyph-name="kn_kha.vattu" horiz-adv-x="282" 
d="M-509 -333q-6 21 -6 43q0 39 16 71t45 54.5t69 35t87 12.5q62 0 116 -21.5t94.5 -61t64 -94.5t23.5 -121q0 -54 -14 -97.5t-40 -77.5q18 -11 37 -17.5t40 -6.5q58 0 92 28.5t51 69.5t21.5 87t4.5 81q0 15 -6 63.5t-27.5 116t-63.5 145t-114 151.5l68 78q54 -54 97 -119.5
t73 -137.5t46.5 -148t16.5 -149q0 -182 -65.5 -269t-188.5 -87q-43 0 -79 15.5t-68 38.5q-42 -26 -93 -40t-111 -14q-36 0 -77 9.5t-76 30t-58 54t-23 81.5q0 43 18 71t44 43.5t55 21.5t52 6q42 0 77 -11.5t65 -30t55.5 -41.5t49.5 -46l15 -15q36 47 36 118q0 53 -20 92
t-50 64.5t-65.5 38t-66.5 12.5q-38 0 -63.5 -7.5t-41.5 -19.5t-22.5 -27.5t-6.5 -31.5q0 -5 2 -15zM-387 -476q-12 0 -26 -2t-26.5 -8.5t-20.5 -18t-8 -29.5q0 -24 17.5 -39.5t41.5 -24.5t49 -12.5t39 -3.5q73 0 128 28q-23 21 -45 41t-46 35t-49.5 24.5t-53.5 9.5z" />
    <glyph glyph-name="kn_ga.vattu" 
d="M-465 -212q-37 0 -77 -11.5t-73 -37.5t-54 -68.5t-21 -105.5q0 -69 29 -140t82 -129l-69 -58q-71 85 -101.5 168t-30.5 160q0 81 28 140t72.5 96.5t101 55.5t113.5 18t113.5 -18t101 -55.5t72.5 -96.5t28 -140q0 -77 -30.5 -160t-101.5 -168l-69 58q53 58 82 129t29 140
q0 63 -21 105.5t-54 68.5t-73 37.5t-77 11.5z" />
    <glyph glyph-name="kn_gha.vattu" horiz-adv-x="245" 
d="M155 -445q0 110 -31.5 199t-78 160t-100.5 125t-99 93l57 70q20 -14 41.5 -25.5t45.5 -11.5q23 0 42.5 16t19.5 45q0 28 -17 49.5t-33 32.5l50 60q35 -25 58 -62t23 -77q0 -56 -34 -93.5t-89 -46.5q52 -53 95.5 -113t74.5 -127.5t48 -141t17 -152.5q0 -121 -57 -190
t-160 -69q-71 0 -117.5 34.5t-63.5 89.5q-22 -57 -66.5 -90.5t-119.5 -33.5q-38 0 -75.5 12t-67 37.5t-48 65.5t-18.5 97q0 52 19.5 91t49.5 65t66.5 39t71.5 13l-11 -90q-15 -2 -33 -9.5t-34.5 -21.5t-27.5 -36.5t-11 -54.5q0 -31 11.5 -53.5t28.5 -36.5t38 -21t41 -7
q39 0 65 14t41.5 37.5t23.5 53t11 60.5h90q2 -38 14.5 -68.5t31.5 -52t43 -33t50 -11.5q24 0 46.5 10t40 31t27.5 52.5t10 75.5zM-87 -789q0 -25 -18.5 -44t-47.5 -19q-14 0 -26 5.5t-21 14.5t-14 20t-5 23q0 19 6 37.5t15.5 36.5t21.5 35t23 33q24 -32 45 -67t21 -75z" />
    <glyph glyph-name="kn_nga.vattu" 
d="M-304 -258q0 39 -25.5 55t-62.5 16q-38 0 -80 -18.5t-80 -57.5q0 -51 -22 -81.5t-54.5 -49t-70.5 -28.5t-70.5 -21.5t-54.5 -28t-22 -46.5q0 -26 12.5 -44.5t31.5 -30t41 -16.5t42 -5q62 0 104.5 34t47.5 111h90q3 -31 13.5 -57.5t28.5 -46t43 -30.5t57 -11
q19 0 39.5 5.5t37.5 17.5t28.5 31t11.5 46q0 30 -9.5 48.5t-23.5 29.5t-30.5 15.5t-31.5 6.5l-11 90q35 0 70 -10t63 -32.5t45.5 -59t17.5 -88.5t-17.5 -88.5t-46.5 -59t-65.5 -32.5t-75.5 -10q-72 0 -119.5 33.5t-69.5 90.5q-18 -57 -67.5 -90.5t-129.5 -33.5q-29 0 -66 8
t-70 28t-56 54t-23 86q0 49 21.5 78.5t54 48t70 30t70 23.5t54 29.5t21.5 48.5q0 21 -7.5 35t-20.5 23t-29 13t-32 4q-30 0 -50 -9.5t-33 -23.5t-20.5 -31t-10.5 -32q-24 8 -42 15q-16 6 -28.5 10.5t-12.5 5.5q9 33 26 62.5t41.5 52t56.5 35.5t71 13q54 0 94.5 -19t63.5 -55
q15 13 34 26t43 23.5t52 17.5t61 7q41 0 72 -11.5t51.5 -31t31 -45t10.5 -53.5zM-500 -344q0 54 54 54q55 0 55 -54q0 -53 -55 -53q-54 0 -54 53z" />
    <glyph glyph-name="kn_ca.vattu" 
d="M-434 -414v90h98q16 9 35 22t35 31.5t27 42t11 52.5q0 15 -6.5 28.5t-16 24.5t-21.5 20.5t-23 15.5l59 58q9 -6 25.5 -20t32.5 -34t28 -44t12 -49q0 -28 -7.5 -51.5t-18.5 -42t-25.5 -32.5t-27.5 -22h89v-90h-23q11 -20 17 -44.5t6 -55.5q0 -53 -17.5 -89t-46.5 -58.5
t-65.5 -32.5t-75.5 -10q-72 0 -119.5 33.5t-69.5 90.5q-18 -57 -67 -90.5t-130 -33.5q-29 0 -66 8t-70 28t-56 54t-23 86q0 49 21.5 78.5t54 48t70 30t70 23.5t54 29.5t21.5 48.5q0 21 -7.5 35t-20.5 23t-29 13t-32 4q-29 0 -49.5 -9.5t-34 -23.5t-20.5 -31t-10 -32
q-24 7 -42 15q-16 6 -28.5 10.5t-12.5 5.5q9 33 26 62.5t41.5 52t56.5 35.5t71 13q84 0 133 -44t49 -122q0 -51 -22 -81.5t-54.5 -49t-70.5 -28.5t-70.5 -21.5t-54.5 -28t-22 -46.5q0 -26 12.5 -44.5t31.5 -30t41 -16.5t42 -5q62 0 104.5 34t47.5 111h90q3 -31 13.5 -57.5
t28.5 -46t43 -30.5t57 -11q19 0 39.5 5.5t37.5 17.5t28.5 31t11.5 46q0 30 -9.5 48.5t-23.5 29.5t-30.5 15.5t-31.5 6.5h-121z" />
    <glyph glyph-name="kn_cha.vattu" 
d="M-128 -419q0 -56 -12.5 -107t-39 -91t-66.5 -63.5t-94 -23.5q-25 0 -49 7.5t-44 19.5t-35.5 28.5t-22.5 34.5q-16 -39 -50 -64.5t-80 -25.5q-57 0 -99 27.5t-70 69.5t-41.5 93.5t-13.5 99.5q0 39 8 89t28 94.5t53.5 75.5t85.5 31q58 0 96 -36t38 -98q0 -38 -10.5 -66
t-29 -47t-44 -28t-54.5 -9q-19 0 -41.5 10.5t-34.5 30.5q-1 -4 -3 -18.5t-2 -34.5q0 -29 7 -63t22.5 -63t40 -48.5t59.5 -19.5q22 0 38.5 9.5t28 25t17.5 34.5t6 38v17h90v-17q0 -21 8 -40t22.5 -34t34 -24t43.5 -9q37 0 60.5 20t37 49.5t18 63t4.5 61.5q0 27 -7.5 59
t-24 62.5t-41.5 56t-61 38.5l27 80q45 -12 81.5 -43t62 -71.5t39.5 -88t14 -92.5zM-626 -257q0 29 -14.5 41t-34.5 12q-15 0 -27 -7t-20 -17.5t-13 -23t-6 -23.5q4 -19 17.5 -31t38.5 -12q19 0 39 16t20 45zM-437 -790q0 -20 -15.5 -35.5t-38.5 -15.5t-38 16t-15 35
q0 31 17.5 60t35.5 55q20 -26 37 -54.5t17 -60.5z" />
    <glyph glyph-name="kn_ja.vattu" 
d="M-719 -704q-29 0 -66 8t-70 28t-56 54t-23 86q0 49 21.5 78.5t54 48t70 30t70 23.5t54 29.5t21.5 48.5q0 21 -7.5 35t-20.5 23t-29 13t-32 4q-30 0 -50 -9.5t-33 -23.5t-20.5 -31t-10.5 -32q-24 8 -42 15q-16 6 -28.5 10.5t-12.5 5.5q9 33 26 62.5t41.5 52t56.5 35.5
t71 13q73 0 120.5 -34.5t58.5 -97.5q17 -4 34.5 -6.5t34.5 -2.5q23 0 44 5t37.5 16t26.5 29t10 45q0 15 -3 32l95 29q2 -14 3 -26.5t1 -24.5q0 -50 -16.5 -86.5t-44 -59.5t-64.5 -34t-78 -11q-40 0 -84 11q-11 -36 -37 -57.5t-57.5 -35t-65.5 -22.5t-62.5 -20t-46.5 -26.5
t-18 -43.5q0 -26 12.5 -44.5t31.5 -30t41 -16.5t42 -5q62 0 104.5 34t47.5 111h90q3 -31 13.5 -57.5t28.5 -46t43 -30.5t57 -11q19 0 39.5 5.5t37.5 17.5t28.5 31t11.5 46q0 30 -9.5 48.5t-23.5 29.5t-30.5 15.5t-31.5 6.5l-11 90q35 0 70 -10t63 -32.5t45.5 -59t17.5 -88.5
t-17.5 -88.5t-46.5 -59t-65.5 -32.5t-75.5 -10q-72 0 -119.5 33.5t-69.5 90.5q-18 -57 -67.5 -90.5t-129.5 -33.5z" />
    <glyph glyph-name="kn_jha.vattu" 
d="M-1366 -414q0 60 20.5 113t56.5 92t83.5 62t101.5 23t101.5 -23t83 -62t56 -92t20.5 -113q0 -40 -11 -81q23 -51 62.5 -85t85.5 -34q25 0 48.5 11.5t41 32.5t28 50.5t10.5 66.5q0 49 -14 87.5t-35 67.5t-46 50t-47 34l40 90q41 -24 76.5 -55.5t61 -72t40 -90.5t14.5 -111
q0 -25 -3 -47q23 -50 61.5 -82t83.5 -32q25 0 48.5 11.5t41 32.5t28 50.5t10.5 66.5q0 49 -14 87.5t-35 67.5t-46 50t-47 34l40 90q41 -24 76.5 -55.5t61 -72t40 -90.5t14.5 -111q0 -48 -14 -93.5t-42 -80.5t-69.5 -56t-95.5 -21q-29 0 -55 9t-48.5 23.5t-41 33.5t-31.5 40
q-27 -47 -72.5 -76.5t-111.5 -29.5q-31 0 -59 10.5t-51.5 27t-42.5 38t-31 44.5q-35 -55 -90 -87.5t-121 -32.5q-54 0 -101.5 23t-83.5 62t-56.5 92t-20.5 113zM-1276 -414q0 -41 13.5 -77.5t37 -63.5t55 -43t66.5 -16t66 16t54.5 43t37 63.5t13.5 77.5t-13.5 77.5t-37 63.5
t-54.5 43t-66 16t-66.5 -16t-55 -43t-37 -63.5t-13.5 -77.5zM-471 -790q0 -20 -15.5 -35.5t-38.5 -15.5t-38 16t-15 35q0 31 17.5 60t35.5 55q20 -26 37 -54.5t17 -60.5z" />
    <glyph glyph-name="kn_nya.vattu" 
d="M-688 -704q-36 0 -69 10.5t-58 30t-40 48.5t-15 66t15.5 64t41 44.5t58.5 26t68 8.5q94 0 170 -50q12 40 12 80q0 75 -34 118.5t-92 43.5q-45 0 -74.5 -28t-29.5 -82h-90q0 51 -28.5 80.5t-74.5 29.5q-45 0 -70 -28t-25 -66q0 -42 21.5 -72t53.5 -53l-43 -74
q-52 30 -87 80.5t-35 114.5q0 41 14.5 75.5t39 59.5t58.5 39t73 14q31 0 54 -7t40.5 -19t30 -28.5t23.5 -35.5q21 42 57.5 66t90.5 24q52 0 91.5 -21t67.5 -56q31 41 70 59t83 18q46 0 81.5 -16t60 -43.5t37.5 -63.5t13 -76q0 -120 -99 -190l-60 77q31 22 48 51t17 69
q0 17 -5.5 35t-17.5 33t-30.5 24.5t-44.5 9.5q-40 0 -66 -22.5t-42 -51.5q7 -21 10 -43t3 -45q0 -74 -29 -143q32 -37 54 -83t33 -102h-80q-10 30 -22 57t-29 50q-36 -48 -87 -77.5t-113 -29.5zM-688 -496q-18 0 -34.5 -3.5t-29 -11t-20.5 -19t-8 -26.5q0 -28 24.5 -43
t67.5 -15t77.5 23t58.5 58q-56 37 -136 37z" />
    <glyph glyph-name="kn_tta.vattu" horiz-adv-x="166" 
d="M76 -510q0 46 -34 79t-99 33v94q133 0 133 123q0 30 -8 55t-19.5 45.5t-24 35t-21.5 23.5l73 51q13 -18 29 -42.5t29.5 -53t22.5 -60t9 -64.5q0 -30 -7.5 -55.5t-20 -45.5t-29 -35.5t-33.5 -25.5q20 -10 36.5 -27.5t28.5 -38.5t18.5 -44.5t6.5 -44.5q0 -41 -12.5 -76.5
t-37.5 -62t-62 -42t-86 -15.5q-35 0 -67 9.5t-57.5 26.5t-44.5 39.5t-28 48.5q-22 -57 -64.5 -90.5t-114.5 -33.5q-39 0 -77.5 12.5t-69 39t-50 68t-19.5 99.5q0 52 19.5 90t49.5 62.5t66.5 36.5t71.5 12l-11 -90q-15 -2 -33 -8t-34.5 -19.5t-27.5 -34.5t-11 -53t12 -55.5
t30 -39t39.5 -23t41.5 -7.5q38 0 63 14t40.5 37.5t23 53t10.5 60.5h90q2 -38 14.5 -68.5t32.5 -52t46.5 -33t56.5 -11.5q29 0 49.5 10t34 25t20 33.5t6.5 35.5z" />
    <glyph glyph-name="kn_ttha.vattu" 
d="M-128 -414q0 -64 -25 -118.5t-66.5 -94t-95.5 -62t-111 -22.5q-64 0 -118.5 25t-94 66t-62 95t-22.5 111q0 64 24.5 118.5t66 94.5t95 62.5t111.5 22.5q64 0 118.5 -25t94.5 -66.5t62.5 -95t22.5 -111.5zM-633 -413q0 -43 16.5 -80.5t45 -66t66 -45t80.5 -16.5t80.5 16.5
t65.5 45t44.5 66t16.5 80.5t-16.5 80.5t-44.5 65.5t-65.5 44.5t-80.5 16.5t-80.5 -16.5t-66 -44.5t-45 -65.5t-16.5 -80.5zM-489 -404q0 -26 19 -45t45 -19t44.5 19t18.5 45t-18.5 45t-44.5 19t-45 -19t-19 -45z" />
    <glyph glyph-name="kn_dda.vattu" 
d="M-128 -511q0 -44 -18 -80t-47.5 -61t-67 -38.5t-76.5 -13.5q-45 0 -87 17.5t-67 52.5q-50 -70 -151 -70q-47 0 -84 19t-63 50.5t-40 72.5t-14 85q0 78 29.5 143t79.5 111.5t116.5 72.5t140.5 26q55 0 105.5 -15t89 -44.5t61 -72t22.5 -96.5q71 -48 71 -159zM-218 -505
q0 23 -4 41t-18 33q-17 -18 -35 -23t-32 -5q-35 0 -61.5 21.5t-26.5 59.5t22.5 59.5t54.5 21.5q10 0 19 -2.5t16 -4.5q-7 28 -29 46t-50 27.5t-58.5 13t-54.5 3.5q-57 0 -108 -18.5t-88.5 -52t-59.5 -81.5t-22 -106q0 -29 7 -54.5t21 -45t34.5 -31t48.5 -11.5q20 0 39 7.5
t34 20.5t24 31.5t9 39.5v17h90v-17q0 -22 8.5 -40.5t23.5 -31.5t35 -20t43 -7q22 0 43.5 8.5t38 23t26.5 34.5t10 43z" />
    <glyph glyph-name="kn_ddha.vattu" 
d="M-128 -511q0 -44 -18 -80t-47.5 -61t-67 -38.5t-76.5 -13.5q-45 0 -87 17.5t-67 52.5q-50 -70 -151 -70q-47 0 -84 19t-63 50.5t-40 72.5t-14 85q0 78 29.5 143t79.5 111.5t116.5 72.5t140.5 26q55 0 105.5 -15t89 -44.5t61 -72t22.5 -96.5q71 -48 71 -159zM-218 -505
q0 23 -4 41t-18 33q-17 -18 -35 -23t-32 -5q-35 0 -61.5 21.5t-26.5 59.5t22.5 59.5t54.5 21.5q10 0 19 -2.5t16 -4.5q-7 28 -29 46t-50 27.5t-58.5 13t-54.5 3.5q-57 0 -108 -18.5t-88.5 -52t-59.5 -81.5t-22 -106q0 -29 7 -54.5t21 -45t34.5 -31t48.5 -11.5q20 0 39 7.5
t34 20.5t24 31.5t9 39.5v17h90v-17q0 -22 8.5 -40.5t23.5 -31.5t35 -20t43 -7q22 0 43.5 8.5t38 23t26.5 34.5t10 43zM-437 -790q0 -20 -15.5 -35.5t-38.5 -15.5t-38 16t-15 35q0 31 17.5 60t35.5 55q20 -26 37 -54.5t17 -60.5z" />
    <glyph glyph-name="kn_nna.vattu" 
d="M-128 -435q0 -53 -9 -101.5t-30.5 -85.5t-57 -59.5t-87.5 -22.5q-29 0 -54 11t-43 29t-28.5 41.5t-10.5 49.5q0 28 9 53t25 44t38.5 30t49.5 11q31 0 59 -14t49 -52v50q0 30 -6.5 71t-22 78t-41.5 62.5t-65 25.5q-46 0 -76.5 -33.5t-35.5 -81.5h-90q-8 54 -40.5 84.5
t-83.5 30.5q-44 0 -72.5 -22t-28.5 -66q0 -36 22 -54t52 -18h40v-90h-40q-29 0 -51.5 -22t-22.5 -56q0 -32 19.5 -52t57.5 -20q29 0 52.5 20t34.5 50l69 -45q-8 -26 -23 -47t-36 -36t-45.5 -23.5t-51.5 -8.5q-32 0 -62.5 10t-53.5 29t-37 47t-14 65q0 51 23 85.5t57 48.5
q-34 16 -57 46.5t-23 79.5q0 41 15.5 72.5t41.5 53t61.5 32.5t75.5 11q51 0 94.5 -22.5t71.5 -67.5q10 22 27.5 39t39 28.5t44.5 17t45 5.5q61 0 104 -29.5t70 -75.5t39.5 -100.5t12.5 -105.5zM-242 -581q-4 11 -10.5 22.5t-15.5 21.5t-21 16t-27 6q-22 0 -37 -13t-15 -39
q0 -23 16 -35t35 -12q26 0 43 7.5t32 25.5z" />
    <glyph glyph-name="kn_ta.vattu" 
d="M-470 -415q0 39 14.5 71t40 55t59.5 36t73 13t72.5 -14.5t59 -39.5t40 -58.5t14.5 -71.5t-14.5 -71.5t-40 -58.5t-59 -39.5t-72.5 -14.5h-707v90h561q-20 23 -30.5 50t-10.5 53zM-380 -424q0 -20 7.5 -37t21 -29.5t31 -20t37.5 -7.5t37.5 7.5t30.5 20t20.5 29.5t7.5 37
q0 19 -7.5 36.5t-20.5 30t-30.5 20t-37.5 7.5t-37.5 -7.5t-31 -20t-21 -30t-7.5 -36.5z" />
    <glyph glyph-name="kn_tha.vattu" 
d="M-441 -510q0 -20 8 -39t22 -33.5t33.5 -23t42.5 -8.5q51 0 84 38.5t33 104.5q0 55 -19.5 102t-55 81.5t-85 54t-108.5 19.5t-107.5 -19.5t-84 -54t-55 -81.5t-19.5 -102q0 -66 32 -104.5t83 -38.5q23 0 42.5 8.5t33.5 23t22 33.5t8 39v21h90v-21zM-543 -362q0 24 17 41
t40 17q24 0 41 -17t17 -41q0 -23 -17 -40t-41 -17q-23 0 -40 17t-17 40zM-486 -614q-23 -47 -59.5 -68.5t-91.5 -21.5q-51 0 -89.5 19.5t-64 51.5t-38.5 73t-13 84q0 76 26.5 140.5t73.5 111.5t113 73.5t144 26.5t144 -26.5t113 -73.5t73.5 -111.5t26.5 -140.5
q0 -43 -13 -84t-39.5 -73t-65 -51.5t-89.5 -19.5q-55 0 -91.5 21.5t-59.5 68.5zM-432 -790q0 -20 -15.5 -35.5t-38.5 -15.5t-38 16t-15 35q0 31 17.5 60t35.5 55q20 -26 37 -54.5t17 -60.5z" />
    <glyph glyph-name="kn_da.vattu" 
d="M-441 -510q0 -20 8 -39t22 -33.5t33.5 -23t42.5 -8.5q51 0 84 38.5t33 104.5q0 55 -19.5 102t-55 81.5t-85 54t-108.5 19.5t-107.5 -19.5t-84 -54t-55 -81.5t-19.5 -102q0 -66 32 -104.5t83 -38.5q23 0 42.5 8.5t33.5 23t22 33.5t8 39v21h90v-21zM-486 -614
q-23 -47 -59.5 -68.5t-91.5 -21.5q-51 0 -89.5 19.5t-64 51.5t-38.5 73t-13 84q0 76 26.5 140.5t73.5 111.5t113 73.5t144 26.5t144 -26.5t113 -73.5t73.5 -111.5t26.5 -140.5q0 -43 -13 -84t-39.5 -73t-65 -51.5t-89.5 -19.5q-55 0 -91.5 21.5t-59.5 68.5z" />
    <glyph glyph-name="kn_dha.vattu" 
d="M-441 -510q0 -20 8 -39t22 -33.5t33.5 -23t42.5 -8.5q51 0 84 38.5t33 104.5q0 55 -19.5 102t-55 81.5t-85 54t-108.5 19.5t-107.5 -19.5t-84 -54t-55 -81.5t-19.5 -102q0 -66 32 -104.5t83 -38.5q23 0 42.5 8.5t33.5 23t22 33.5t8 39v21h90v-21zM-486 -614
q-23 -47 -59.5 -68.5t-91.5 -21.5q-51 0 -89.5 19.5t-64 51.5t-38.5 73t-13 84q0 76 26.5 140.5t73.5 111.5t113 73.5t144 26.5t144 -26.5t113 -73.5t73.5 -111.5t26.5 -140.5q0 -43 -13 -84t-39.5 -73t-65 -51.5t-89.5 -19.5q-55 0 -91.5 21.5t-59.5 68.5zM-432 -790
q0 -20 -15.5 -35.5t-38.5 -15.5t-38 16t-15 35q0 31 17.5 60t35.5 55q20 -26 37 -54.5t17 -60.5z" />
    <glyph glyph-name="kn_na.vattu" 
d="M-21 -828q-26 71 -59.5 156t-80.5 162q-54 -64 -126 -102.5t-164 -38.5q-48 0 -90.5 16t-74.5 44.5t-50.5 68.5t-18.5 87q0 52 19.5 92.5t52 69t75 43.5t89.5 15q85 0 154 -38.5t126 -101.5q40 81 59.5 174t19.5 181h90q0 -55 -6.5 -112t-20 -112.5t-34 -108.5
t-47.5 -100q30 -44 55.5 -92t46.5 -95t37.5 -92t28.5 -83zM-452 -305q-30 0 -56 -7.5t-45.5 -23.5t-30.5 -39.5t-11 -54.5q0 -34 14.5 -58.5t37 -40.5t49.5 -24t51 -8q72 0 128.5 35t98.5 93q-47 57 -104.5 92.5t-131.5 35.5z" />
    <glyph glyph-name="kn_pa.vattu" horiz-adv-x="215" 
d="M-1 -704q-71 0 -118 34.5t-64 89.5q-22 -57 -66.5 -90.5t-119.5 -33.5q-38 0 -75.5 12t-67 37.5t-48 65.5t-18.5 97q0 52 19.5 91t49.5 65t66.5 39t71.5 13l-11 -90q-15 -2 -33 -9.5t-34.5 -21.5t-27.5 -36.5t-11 -54.5q0 -31 11.5 -53.5t28.5 -36.5t38 -21t41 -7
q39 0 65 14t41.5 37.5t23.5 53t11 60.5h90q2 -38 14.5 -68.5t31.5 -52t43 -33t50 -11.5q24 0 47 9t41 29t28.5 50.5t10.5 74.5q0 68 -21 125.5t-53 105t-70 84.5t-72 65l67 61q40 -29 82 -75t77 -103.5t57.5 -123.5t22.5 -135q0 -121 -58.5 -189t-160.5 -68z" />
    <glyph glyph-name="kn_pha.vattu" horiz-adv-x="215" 
d="M-117 -789q0 -25 -18.5 -44t-47.5 -19q-14 0 -26 5.5t-21 14.5t-14 20t-5 23q0 19 6 37.5t15.5 36.5t21.5 35t23 33q24 -32 45 -67t21 -75zM-1 -704q-71 0 -118 34.5t-64 89.5q-22 -57 -66.5 -90.5t-119.5 -33.5q-38 0 -75.5 12t-67 37.5t-48 65.5t-18.5 97q0 52 19.5 91
t49.5 65t66.5 39t71.5 13l-11 -90q-15 -2 -33 -9.5t-34.5 -21.5t-27.5 -36.5t-11 -54.5q0 -31 11.5 -53.5t28.5 -36.5t38 -21t41 -7q39 0 65 14t41.5 37.5t23.5 53t11 60.5h90q2 -38 14.5 -68.5t31.5 -52t43 -33t50 -11.5q24 0 47 9t41 29t28.5 50.5t10.5 74.5
q0 68 -21 125.5t-53 105t-70 84.5t-72 65l67 61q40 -29 82 -75t77 -103.5t57.5 -123.5t22.5 -135q0 -121 -58.5 -189t-160.5 -68z" />
    <glyph glyph-name="kn_ba.vattu" horiz-adv-x="213" 
d="M-6 -614q24 0 47.5 9t41.5 29t29 50.5t11 74.5q0 68 -21 125.5t-53 105t-70 84.5t-72 65l67 61q40 -29 82 -75t77 -103.5t57.5 -123.5t22.5 -135q0 -121 -57 -189t-160 -68q-72 0 -119.5 33.5t-69.5 90.5q-18 -57 -67.5 -90.5t-129.5 -33.5q-29 0 -66 8t-70 28t-56 54
t-23 86q0 49 21.5 78.5t54 48t70 30t70 23.5t54 29.5t21.5 48.5q0 21 -7.5 35t-20.5 23t-29 13t-32 4q-30 0 -50 -9.5t-33 -23.5t-20.5 -31t-10.5 -32q-24 8 -42 15q-16 6 -28.5 10.5t-12.5 5.5q9 33 26 62.5t41.5 52t56.5 35.5t71 13q83 0 132.5 -44t49.5 -122
q0 -51 -22 -81.5t-54.5 -49t-70.5 -28.5t-70.5 -21.5t-54.5 -28t-22 -46.5q0 -26 12.5 -44.5t31.5 -30t41 -16.5t42 -5q62 0 104.5 34t47.5 111h90q3 -31 13.5 -57.5t28.5 -46t43 -30.5t57 -11z" />
    <glyph glyph-name="kn_bha.vattu" horiz-adv-x="213" 
d="M-6 -614q24 0 47.5 9t41.5 29t29 50.5t11 74.5q0 68 -21 125.5t-53 105t-70 84.5t-72 65l67 61q40 -29 82 -75t77 -103.5t57.5 -123.5t22.5 -135q0 -121 -57 -189t-160 -68q-72 0 -119.5 33.5t-69.5 90.5q-18 -57 -67.5 -90.5t-129.5 -33.5q-29 0 -66 8t-70 28t-56 54
t-23 86q0 49 21.5 78.5t54 48t70 30t70 23.5t54 29.5t21.5 48.5q0 21 -7.5 35t-20.5 23t-29 13t-32 4q-30 0 -50 -9.5t-33 -23.5t-20.5 -31t-10.5 -32q-24 8 -42 15q-16 6 -28.5 10.5t-12.5 5.5q9 33 26 62.5t41.5 52t56.5 35.5t71 13q83 0 132.5 -44t49.5 -122
q0 -51 -22 -81.5t-54.5 -49t-70.5 -28.5t-70.5 -21.5t-54.5 -28t-22 -46.5q0 -26 12.5 -44.5t31.5 -30t41 -16.5t42 -5q62 0 104.5 34t47.5 111h90q3 -31 13.5 -57.5t28.5 -46t43 -30.5t57 -11zM-127 -789q0 -25 -18.5 -44t-47.5 -19q-14 0 -26 5.5t-21 14.5t-14 20t-5 23
q0 19 6 37.5t15.5 36.5t21.5 35t23 33q24 -32 45 -67t21 -75z" />
    <glyph glyph-name="kn_ma.vattu" horiz-adv-x="383" 
d="M-179 -359q0 -53 20 -99.5t56.5 -81t86.5 -54.5t110 -20q64 0 116 27t89 72t58.5 104t26.5 124l87 -29q-9 -74 -34.5 -144t-70.5 -124t-112 -87t-158 -33q-86 0 -153.5 27t-114.5 74t-72 110t-25 135q0 48 11.5 89.5t32.5 76.5t50 62.5t63 47.5q17 51 34.5 98.5
t17.5 101.5q0 19 -3 39t-7 38.5t-9 33.5t-9 24l89 36q11 -30 20 -64.5t9 -66.5q0 -58 -12.5 -103t-26.5 -86l-4 -12q18 5 36.5 6.5t38.5 1.5q52 0 95.5 -15t75.5 -41t50 -62t18 -79q0 -44 -15 -78t-42.5 -57.5t-66 -36t-85.5 -12.5q-36 0 -74.5 12.5t-70 37.5t-53.5 63.5
t-25 91.5q-23 -29 -35.5 -65.5t-12.5 -82.5zM-42 -188q0 -32 11 -57.5t30 -43.5t45 -27.5t57 -9.5q18 0 37.5 6t35 18t26 30t10.5 42t-11.5 44t-31 33.5t-47 21t-58.5 7.5q-56 0 -101 -19q-3 -21 -3 -45z" />
    <glyph glyph-name="kn_ya.vattu" horiz-adv-x="321" 
d="M11 -729q-45 0 -98 8.5t-98.5 30.5t-76 59.5t-30.5 94.5q0 41 16 67.5t39.5 44.5t51 30.5t51 27t39.5 33.5t16 50q0 21 -6.5 34t-16 21t-22 11t-24.5 3q-26 0 -44.5 -8.5t-30.5 -21.5t-19 -29t-10 -31q-24 8 -42 15q-16 6 -28.5 10.5t-12.5 5.5q19 66 67.5 107.5
t119.5 41.5q72 0 115.5 -41.5t43.5 -110.5q0 -43 -16 -71t-39.5 -47.5t-51 -33.5t-51 -28.5t-39.5 -32.5t-16 -46q0 -26 17.5 -45.5t46.5 -32.5t68 -19.5t81 -6.5q57 0 98.5 13.5t68.5 37t40 55.5t13 70q0 47 -18.5 95.5t-47 97.5t-61 99t-61 99t-47 96.5t-18.5 93.5
q0 49 17 87.5t44.5 64t64 39t75.5 13.5q58 0 112.5 -30t90.5 -95l-72 -46q-30 46 -62.5 63.5t-67.5 17.5q-28 0 -49 -9.5t-35 -25.5t-21 -36.5t-7 -42.5q0 -41 18.5 -85.5t47 -92t61 -96.5t61 -99.5t47 -101.5t18.5 -102q0 -50 -16 -98.5t-52.5 -86.5t-95.5 -61.5
t-146 -23.5z" />
    <glyph glyph-name="kn_ra.vattu" horiz-adv-x="291" 
d="M186 147q0 -167 -28.5 -288.5t-90.5 -200.5t-160.5 -117t-237.5 -38q-84 0 -161 15t-162 47l31 84q31 -12 68 -22.5t75 -18t76 -11.5t73 -4q97 0 166.5 20.5t117 57.5t76 87.5t44 109.5t20 125.5t4.5 134.5q0 49 -6 141t-26 221l87 29q6 -42 12.5 -91t11 -99t7.5 -97.5
t3 -84.5z" />
    <glyph glyph-name="kn_rra.vattu" 
d="M-437 -258q0 62 38 98t96 36q52 0 85.5 -31t53.5 -75.5t28 -94.5t8 -89q0 -48 -13.5 -99.5t-41.5 -93.5t-70 -69.5t-99 -27.5q-46 0 -80 25.5t-50 64.5q-16 -39 -50 -64.5t-80 -25.5q-57 0 -99 27.5t-70 69.5t-41.5 93.5t-13.5 99.5q0 39 8 89t28 94.5t53.5 75.5t85.5 31
q58 0 96 -36t38 -98q0 -26 -11.5 -49t-25.5 -35h159q-13 14 -22.5 36t-9.5 48zM-437 -507q0 -19 6 -38t17.5 -34.5t28 -25t38.5 -9.5q35 0 59.5 19.5t40 48.5t22.5 63t7 63q0 20 -2 34.5t-3 18.5q-12 -20 -34.5 -30.5t-41.5 -10.5h-366q-19 0 -41.5 10.5t-34.5 30.5
q-1 -4 -3 -18.5t-2 -34.5q0 -29 7 -63t22.5 -63t40 -48.5t59.5 -19.5q22 0 38.5 9.5t28 25t17.5 34.5t6 38v17h90v-17zM-347 -257q0 -29 20 -45t39 -16q25 0 38.5 12t17.5 31q-1 11 -6 23.5t-13 23t-20 17.5t-27 7q-20 0 -34.5 -12t-14.5 -41zM-617 -257q0 29 -14.5 41
t-34.5 12q-15 0 -27 -7t-20 -17.5t-13 -23t-6 -23.5q4 -19 17.5 -31t38.5 -12q19 0 39 16t20 45z" />
    <glyph glyph-name="kn_la.vattu" 
d="M-557 -356v14q0 37 -12 61.5t-30.5 39.5t-40.5 21t-41 6q-21 0 -43 -7.5t-40.5 -24t-30 -44t-11.5 -66.5q0 -34 8.5 -61t23.5 -48t35.5 -36.5t43.5 -26.5l-24 -82q-34 11 -66 32t-56.5 52.5t-39.5 74t-15 95.5q0 48 15.5 90t44.5 73.5t70 50t91 18.5q24 0 48 -7
t45.5 -19.5t39.5 -31t30 -40.5q12 22 30 40.5t39.5 31t45.5 19.5t48 7q50 0 91 -18.5t70 -50t44.5 -73.5t15.5 -90q0 -53 -15 -95.5t-40 -74t-56.5 -52.5t-65.5 -32l-24 82q23 11 43.5 26.5t35.5 36.5t23.5 48t8.5 61q0 39 -11.5 66.5t-30 44t-40.5 24t-43 7.5q-19 0 -41 -6
t-40.5 -21t-30.5 -39.5t-12 -61.5v-14h-90z" />
    <glyph glyph-name="kn_lla.vattu" horiz-adv-x="216" 
d="M-176 -258q0 -27 -10.5 -48t-28.5 -37t-42 -25t-51 -12q35 -11 75 -17.5t81 -14.5q43 24 91.5 44t90 44t69 57t27.5 85t-21.5 100.5t-55 91.5t-74 80.5t-78.5 67.5l55 64q70 -53 120.5 -108t82 -108t46.5 -101.5t15 -86.5q0 -61 -23.5 -103.5t-60.5 -73t-81.5 -51
t-86.5 -38.5q33 -18 53.5 -46.5t20.5 -74.5q0 -28 -13 -52.5t-34 -43t-47.5 -29t-54.5 -10.5t-54.5 10t-47.5 27.5t-33.5 42.5t-12.5 55t8.5 53.5t23.5 43.5q-47 9 -94 20t-85 32t-62 55t-24 87q0 37 13.5 66t36 48.5t52.5 29.5t62 10q35 0 63.5 -12t48 -31t30 -43t10.5 -48
zM-329 -204q-11 0 -23.5 -3t-23.5 -11.5t-18.5 -23.5t-7.5 -39q0 -2 0.5 -4t0.5 -4q15 -17 35.5 -24.5t36.5 -7.5q33 0 50 18.5t17 35.5q0 29 -20 46t-47 17zM-45 -563q0 28 -23 44t-60 26q-22 -14 -35 -30.5t-13 -39.5q0 -22 18 -40t47 -18q27 0 46.5 16t19.5 42z" />
    <glyph glyph-name="kn_va.vattu" horiz-adv-x="119" 
d="M0 -452q0 41 -15 79t-40 70t-56.5 55t-64.5 34h-146v90h282q46 0 72.5 22.5t26.5 50.5q0 31 -21.5 49.5t-60.5 32.5l23 64q22 -7 48 -19.5t48.5 -32t37.5 -48t15 -66.5q0 -36 -13.5 -61.5t-36 -43t-52 -26.5t-60.5 -12q103 -113 103 -233q0 -121 -58.5 -189t-160.5 -68
q-71 0 -118 34.5t-64 89.5q-22 -57 -66.5 -90.5t-119.5 -33.5q-38 0 -75.5 12t-67 37.5t-48 65.5t-18.5 97q0 52 19.5 91t49.5 65t66.5 39t71.5 13l-11 -90q-15 -2 -33 -9.5t-34.5 -21.5t-27.5 -36.5t-11 -54.5q0 -31 11.5 -53.5t28.5 -36.5t38 -21t41 -7q39 0 65 14
t41.5 37.5t23.5 53t11 60.5h90q2 -38 14.5 -68.5t31.5 -52t43 -33t50 -11.5q24 0 47 9t41 28.5t28.5 50t10.5 74.5z" />
    <glyph glyph-name="kn_sha.vattu" horiz-adv-x="173" 
d="M-161 -214q-42 0 -70 -25t-28 -75h-90q0 91 50.5 140.5t137.5 49.5q29 0 57.5 -5.5t55.5 -16.5q17 46 17 101q0 21 -0.5 39t-2.5 36.5t-6 39.5t-10 48l85 37q11 -57 17 -108.5t6 -93.5q0 -38 -8.5 -73t-22.5 -67q65 -46 105.5 -118t40.5 -158q0 -54 -22.5 -98.5t-62 -76
t-94.5 -49t-120 -17.5q-50 0 -91 11.5t-70 34t-45.5 56.5t-16.5 79q0 28 12.5 52.5t33.5 47t48.5 44.5t56 45.5t56.5 50t51 57.5q-35 12 -70 12zM-259 -530q0 -20 11 -36t29 -26.5t41 -16t47 -5.5q48 0 87 10.5t67.5 30t44 48.5t15.5 67q0 57 -28 107.5t-73 85.5
q-35 -49 -77 -89.5t-78.5 -73t-61 -58t-24.5 -44.5z" />
    <glyph glyph-name="kn_ssa.vattu" horiz-adv-x="215" 
d="M-75 -10q38 -29 85 -71.5t89.5 -95t74 -113t39.5 -124.5l112 -290l-76 -27l-70 127q-27 -48 -72.5 -74t-108.5 -26q-71 0 -117.5 34.5t-63.5 89.5q-22 -57 -66.5 -90.5t-119.5 -33.5q-38 0 -75.5 12t-67 37.5t-48 65.5t-18.5 97q0 52 19.5 91t49.5 65t66.5 39t71.5 13
l-11 -90q-15 -2 -33 -9.5t-34.5 -21.5t-27.5 -36.5t-11 -54.5q0 -31 11.5 -53.5t28.5 -36.5t38 -21t41 -7q39 0 65 14t41.5 37.5t23.5 53t11 60.5h90q2 -38 14.5 -68.5t31.5 -52t43 -33t50 -11.5q24 0 46.5 9t40 29t27.5 50.5t10 74.5q0 63 -27.5 120t-67.5 105.5t-85 87.5
t-79 67z" />
    <glyph glyph-name="kn_sa.vattu" horiz-adv-x="170" 
d="M51 22q27 -53 49 -107.5t37.5 -107.5t24 -103t8.5 -93q0 -77 -16.5 -136t-46 -98.5t-71 -60t-91.5 -20.5q-47 0 -81 21t-58 55.5t-41 78.5t-31 90t-27 90t-29 78.5t-38 55.5t-53 21q-25 0 -48.5 -9.5t-41.5 -30t-29 -54t-11 -81.5q0 -30 7.5 -65t21 -71t33 -71t43.5 -64
l-67 -62q-21 24 -43.5 61t-41.5 81.5t-31 93.5t-12 97q0 57 15 106t43.5 84t69.5 55t92 20q50 0 85 -21t60 -55.5t42 -78.5t30.5 -90t26 -90t28.5 -78.5t37 -55.5t53 -21q58 0 94.5 53t36.5 149q0 49 -9 100t-24 100t-35 95t-42 86z" />
    <glyph glyph-name="kn_ha.vattu" 
d="M-984 -369q0 51 18.5 95.5t51 77.5t75.5 52.5t92 19.5q60 0 109.5 -27.5t81.5 -73.5q32 46 82.5 73.5t109.5 27.5q49 0 92 -19.5t75 -52.5t50.5 -77.5t18.5 -95.5t-18.5 -95.5t-50.5 -77.5t-75 -52.5t-92 -19.5q-59 0 -109.5 27.5t-82.5 74.5q-32 -47 -81.5 -74.5
t-109.5 -27.5q-49 0 -92 19.5t-75.5 52.5t-51 77.5t-18.5 95.5zM-511 -369q0 -32 11.5 -60.5t31.5 -49.5t47 -33t57 -12t57 12t46.5 33t31 49.5t11.5 60.5t-11.5 60.5t-31 49.5t-46.5 33t-57 12t-56 -11.5t-46 -31.5t-32 -47t-13 -58v-7zM-894 -369q0 -32 11.5 -60.5
t31.5 -49.5t47 -33t57 -12t57 12t46.5 33t31 49.5t11.5 60.5t-11.5 60.5t-31 49.5t-46.5 33t-57 12t-57 -12t-47 -33t-31.5 -49.5t-11.5 -60.5z" />
    <glyph glyph-name="kn_llla.vattu" 
d="M-437 -507q0 -19 6 -38t17.5 -34.5t28 -25t38.5 -9.5q35 0 59.5 19.5t40 48.5t22.5 63t7 63q0 20 -2 34.5t-3 18.5q-12 -20 -34.5 -30.5t-41.5 -10.5q-29 0 -54.5 9t-44 28t-29 47t-10.5 66q0 62 38 98t96 36q52 0 85.5 -31t53.5 -75.5t28 -94.5t8 -89q0 -48 -13.5 -99.5
t-41.5 -93.5t-70 -69.5t-99 -27.5q-46 0 -80 25.5t-50 64.5q-16 -39 -50 -64.5t-80 -25.5q-57 0 -99 27.5t-70 69.5t-41.5 93.5t-13.5 99.5q0 39 8 89t28 94.5t53.5 75.5t85.5 31q58 0 96 -36t38 -98q0 -38 -10.5 -66t-29 -47t-44 -28t-54.5 -9q-19 0 -41.5 10.5t-34.5 30.5
q-1 -4 -3 -18.5t-2 -34.5q0 -29 7 -63t22.5 -63t40 -48.5t59.5 -19.5q22 0 38.5 9.5t28 25t17.5 34.5t6 38v17h90v-17zM-617 -257q0 29 -14.5 41t-34.5 12q-15 0 -27 -7t-20 -17.5t-13 -23t-6 -23.5q4 -19 17.5 -31t38.5 -12q19 0 39 16t20 45zM-347 -257q0 -29 20 -45
t39 -16q25 0 38.5 12t17.5 31q-1 11 -6 23.5t-13 23t-20 17.5t-27 7q-20 0 -34.5 -12t-14.5 -41z" />
    <glyph glyph-name="kn_kssa.vattu" horiz-adv-x="404" 
d="M-289 -424q0 59 27 110.5t75 89.5h-102v81h297q19 50 19 135q0 94 -51 193l78 41q29 -55 44.5 -114t15.5 -119q0 -87 -12 -136h297v-81h-103q48 -38 75.5 -89t27.5 -111q0 -58 -27 -109t-74 -89t-109.5 -60t-134.5 -22q-71 0 -133.5 22t-109 60t-73.5 89t-27 109z
M-190 -423q0 -37 19 -70t52 -57.5t77.5 -39t95.5 -14.5t95.5 14.5t77.5 39t52.5 57.5t19.5 70t-19.5 70t-52.5 57.5t-77.5 38.5t-95.5 14t-95.5 -14t-77.5 -38.5t-52 -57.5t-19 -70zM362 -738q0 -44 -10 -74.5t-27.5 -50.5t-40 -29t-46.5 -9q-26 0 -50 11.5t-43 33t-31.5 52
t-14.5 68.5h-90q-3 -31 -11 -60.5t-23.5 -53t-41.5 -37.5t-65 -14q-20 0 -41 7t-38 21t-28.5 36.5t-11.5 53.5q0 27 7 47l-84 34q-13 -37 -13 -77q0 -57 18.5 -97t48 -65.5t67 -37.5t75.5 -12q75 0 119.5 33.5t66.5 90.5q17 -55 63.5 -89.5t117.5 -34.5q63 0 108.5 26
t72.5 74l70 -127l76 27l-112 290z" />
    <glyph glyph-name="kn_ka.vattu.2" horiz-adv-x="325" 
d="M0 -680q0 48 21.5 88.5t59.5 71.5h-81v65h237q16 39 16 108q0 74 -41 154l62 33q23 -45 35.5 -92t12.5 -95q0 -69 -9 -108h237v-65h-82q38 -31 60 -71.5t22 -88.5q0 -47 -21.5 -87.5t-59 -71t-88 -48t-107.5 -17.5t-107 17.5t-87 48t-58.5 71t-21.5 87.5zM79 -679
q0 -30 15.5 -56.5t41.5 -46t61.5 -31t76.5 -11.5q40 0 76 11.5t62.5 31t42 46t15.5 56.5t-15.5 56t-42 45.5t-62.5 31t-76 11.5q-41 0 -76.5 -11.5t-61.5 -31t-41.5 -45.5t-15.5 -56z" />
    <glyph glyph-name="kn_kha.vattu.2" horiz-adv-x="446" 
d="M39 -607q-5 18 -5 34q0 31 13 56.5t36 43.5t55 28t70 10q49 0 92.5 -17t76 -48.5t51 -75.5t18.5 -97q0 -43 -11.5 -77.5t-32.5 -62.5q14 -8 29.5 -13.5t32.5 -5.5q47 0 74 22.5t41 55.5t17.5 70t3.5 65q0 12 -5 51t-22 92.5t-50.5 115.5t-91.5 121l54 63
q43 -43 77.5 -95.5t59 -110.5t37.5 -118.5t13 -118.5q0 -146 -52 -215.5t-152 -69.5q-35 0 -63 12t-54 31q-68 -43 -163 -43q-29 0 -62 7.5t-61 24t-46.5 43t-18.5 65.5q0 35 14.5 57t35.5 34.5t44.5 17t41.5 4.5q34 0 61.5 -9t51 -24t44 -33.5t39.5 -36.5l12 -12
q30 39 30 95q0 42 -16 73t-40 51.5t-52.5 30.5t-53.5 10q-30 0 -50.5 -6t-33 -16t-18 -22t-5.5 -25q0 -4 2 -12zM136 -722q-9 0 -20.5 -1.5t-21 -6.5t-16 -14t-6.5 -24q0 -20 14 -32t33 -19.5t39 -10t31 -2.5q58 0 102 22q-36 34 -73 61t-82 27z" />
    <glyph glyph-name="kn_ga.vattu.2" horiz-adv-x="252" 
d="M252 -511q-30 0 -61.5 -9t-58 -30t-43.5 -55t-17 -84q0 -56 23.5 -112.5t65.5 -102.5l-55 -47q-57 69 -81.5 135t-24.5 128q0 65 22 112t58 77t81 44.5t91 14.5t91 -14.5t81 -44.5t58 -77t22 -112q0 -62 -24.5 -128t-81.5 -135l-55 47q42 46 65.5 102.5t23.5 112.5
q0 50 -17 84t-43.5 55t-58 30t-61.5 9z" />
    <glyph glyph-name="kn_gha.vattu.2" horiz-adv-x="316" 
d="M562 -697q0 88 -25 159t-62.5 128t-80.5 100t-79 75l45 56q16 -11 33 -20.5t37 -9.5q19 0 34.5 13t15.5 36q0 22 -14 39t-26 26l40 48q28 -20 46 -49.5t18 -61.5q0 -45 -27 -74.5t-71 -37.5q84 -84 136 -192.5t52 -234.5q0 -97 -46 -152t-128 -55q-57 0 -93.5 27.5
t-50.5 71.5q-18 -46 -53.5 -72.5t-95.5 -26.5q-30 0 -60 9.5t-54 30t-38.5 52.5t-14.5 77q0 42 15.5 73.5t39.5 52t53 31t57 10.5l-9 -72q-12 -2 -26.5 -7.5t-27 -17.5t-21.5 -30t-9 -43t9 -42.5t23 -29t30.5 -17t32.5 -5.5q31 0 51.5 11.5t33.5 30t19 42t9 48.5h72
q1 -31 11 -55.5t25.5 -41.5t34.5 -26t40 -9q39 0 69 32.5t30 102.5zM368 -972q0 -20 -14.5 -35.5t-37.5 -15.5t-38 16t-15 35q0 30 17.5 59t35.5 54q19 -25 35.5 -53t16.5 -60z" />
    <glyph glyph-name="kn_nga.vattu.2" horiz-adv-x="331" 
d="M504 -547q0 31 -20.5 43.5t-50.5 12.5q-31 0 -64.5 -14t-63.5 -45q0 -41 -17.5 -65.5t-43.5 -39.5t-56.5 -23.5t-56.5 -17.5t-43.5 -22t-17.5 -37q0 -21 10 -35.5t25 -24t33 -13.5t34 -4q49 0 83.5 27t37.5 89h72q5 -50 34 -83t80 -33q15 0 31.5 4t30.5 13.5t23 25
t9 37.5q0 24 -7.5 38.5t-19 23.5t-24.5 12.5t-25 5.5l-9 72q28 0 56 -8t50.5 -26t36.5 -47t14 -71t-14 -71t-37 -47t-52.5 -26t-60.5 -8q-57 0 -95.5 26.5t-56.5 72.5q-14 -45 -53.5 -72t-103.5 -27q-23 0 -52.5 6.5t-56 22t-45 43t-18.5 69.5q0 39 17.5 62.5t43 38.5t56 24
t56 19t43 24t17.5 38q0 33 -22.5 46.5t-49.5 13.5q-24 0 -40 -7.5t-26.5 -19t-16 -25t-8.5 -25.5q-19 7 -33 12q-13 5 -23 8.5t-10 4.5q7 26 20.5 49.5t33 41.5t45 28.5t57.5 10.5q88 0 125 -59q24 21 61.5 40t91.5 19q33 0 57.5 -9t41 -24.5t25 -36t8.5 -42.5zM347 -616
q0 43 43 43q44 0 44 -43t-44 -43q-43 0 -43 43z" />
    <glyph glyph-name="kn_ca.vattu.2" horiz-adv-x="331" 
d="M400 -672v72h78q13 7 28.5 17.5t28.5 25.5t21.5 33.5t8.5 41.5q0 24 -18 42.5t-36 28.5l47 47q7 -5 20.5 -16.5t26.5 -27t22.5 -34.5t9.5 -40q0 -45 -21 -75t-43 -43h72v-72h-19q19 -33 19 -80q0 -42 -14 -71t-37 -47t-52.5 -26t-60.5 -8q-58 0 -96 26.5t-56 72.5
q-14 -46 -53.5 -72.5t-103.5 -26.5q-23 0 -52.5 6.5t-56 22t-45 43t-18.5 69.5q0 39 17.5 62.5t43 38.5t56 24t56 19t43 24t17.5 38q0 33 -22.5 46.5t-49.5 13.5q-23 0 -39.5 -7.5t-27 -19t-16 -25t-8.5 -25.5q-20 6 -33 12q-13 5 -23 8.5t-10 4.5q7 26 20.5 49.5t33.5 41.5
t45.5 28.5t56.5 10.5q67 0 106 -34.5t39 -97.5q0 -41 -17.5 -65.5t-43.5 -39t-56.5 -23t-56.5 -17.5t-43.5 -22t-17.5 -37q0 -21 10 -35.5t25 -24t33 -13.5t34 -4q50 0 83.5 26.5t37.5 89.5h72q5 -51 34 -83.5t80 -32.5q15 0 31.5 4.5t30.5 14t23 24.5t9 37q0 24 -7.5 39
t-19 23.5t-24.5 12t-25 5.5h-97z" />
    <glyph glyph-name="kn_cha.vattu.2" horiz-adv-x="283" 
d="M574 -676q0 -45 -10.5 -86t-31.5 -72.5t-53 -50.5t-75 -19q-20 0 -39.5 6t-35.5 15.5t-28 22.5t-18 28q-13 -32 -40 -52t-64 -20q-45 0 -79 22t-56 55.5t-33 74.5t-11 80q0 31 6.5 71t22.5 76t43 60.5t68 24.5q47 0 77 -29t30 -78q0 -61 -31.5 -90.5t-78.5 -29.5
q-15 0 -33 8t-28 24q-1 -3 -2.5 -14t-1.5 -28q0 -23 5.5 -50.5t18 -50.5t32 -38.5t47.5 -15.5q18 0 31.5 7.5t22.5 20t13.5 27.5t4.5 30v14h72v-14q0 -17 6.5 -32t18 -27t27.5 -19t35 -7q30 0 48.5 16t29 39.5t14.5 50.5t4 49t-6 47.5t-19.5 50t-34 44.5t-48.5 31l22 64
q36 -10 65.5 -34.5t50 -57t31.5 -70.5t11 -74zM175 -547q0 24 -11 33.5t-28 9.5q-24 0 -37.5 -19.5t-15.5 -37.5q3 -15 14 -24.5t31 -9.5q15 0 31 12.5t16 35.5zM326 -973q0 -17 -12 -29t-31 -12q-18 0 -30 13t-12 28q0 25 14 48.5t28 43.5q16 -20 29.5 -43t13.5 -49z" />
    <glyph glyph-name="kn_ja.vattu.2" horiz-adv-x="331" 
d="M172 -904q-23 0 -52.5 6.5t-56 22t-45 43t-18.5 69.5q0 39 17.5 62.5t43 38.5t56 24t56 19t43 24t17.5 38q0 33 -22.5 46.5t-49.5 13.5q-24 0 -40 -7.5t-26.5 -19t-16 -25t-8.5 -25.5q-19 7 -33 12q-13 5 -23 8.5t-10 4.5q7 26 20.5 49.5t33 41.5t45 28.5t57.5 10.5
q59 0 96.5 -27.5t46.5 -77.5q13 -3 27 -5t28 -2q18 0 35.5 4t30.5 13t21 23.5t8 35.5q0 11 -3 25l76 23q2 -11 2.5 -21t0.5 -19q0 -41 -13 -69.5t-35.5 -47.5t-51.5 -27.5t-62 -8.5q-35 0 -68 9q-9 -29 -29.5 -46t-46 -28t-52.5 -18.5t-49.5 -16t-37 -21t-14.5 -34.5
q0 -21 10 -35.5t25 -24t33 -13.5t34 -4q49 0 83.5 27t37.5 89h72q5 -50 34 -83t80 -33q15 0 31.5 4t30.5 13.5t23 25t9 37.5q0 24 -7.5 38.5t-19 23.5t-24.5 12.5t-25 5.5l-9 72q28 0 56 -8t50.5 -26t36.5 -47t14 -71t-14 -71t-37 -47t-52.5 -26t-60.5 -8q-57 0 -95.5 26.5
t-56.5 72.5q-14 -45 -53.5 -72t-103.5 -27z" />
    <glyph glyph-name="kn_jha.vattu.2" horiz-adv-x="549" 
d="M0 -672q0 48 16.5 90t45 73.5t67 50t81.5 18.5t81 -18.5t66.5 -50t45 -73.5t16.5 -90q0 -35 -9 -66q18 -41 49.5 -67.5t68.5 -26.5q21 0 39.5 9t32.5 26t22.5 40.5t8.5 53.5q0 39 -11.5 70t-28.5 54t-37 39.5t-37 27.5l32 72q33 -19 61 -44.5t49 -57.5t32.5 -72t11.5 -89
q0 -20 -3 -38q18 -40 49 -65.5t67 -25.5q21 0 39.5 9t32.5 26t22.5 40.5t8.5 53.5q0 39 -11.5 70t-28.5 54t-37 39.5t-37 27.5l32 72q33 -19 61 -44.5t49 -57.5t32.5 -72t11.5 -89q0 -39 -11.5 -75.5t-33.5 -64t-55.5 -44.5t-76.5 -17q-47 0 -83.5 25.5t-57.5 58.5
q-22 -37 -58.5 -60.5t-88.5 -23.5q-25 0 -47.5 8t-41.5 21.5t-34 30.5t-25 35q-29 -43 -72.5 -69t-95.5 -26q-43 0 -81.5 18t-67 49.5t-45 74t-16.5 90.5zM72 -672q0 -33 11 -62t30 -51t44 -34.5t53 -12.5t53 12.5t43.5 34.5t29.5 51t11 62t-11 62t-29.5 51t-43.5 34.5
t-53 12.5t-53 -12.5t-44 -34.5t-30 -51t-11 -62zM716 -973q0 -17 -12 -29t-31 -12q-18 0 -30 13t-12 28q0 25 14 48.5t28 43.5q16 -20 29.5 -43t13.5 -49z" />
    <glyph glyph-name="kn_nya.vattu.2" horiz-adv-x="385" 
d="M340 -904q-29 0 -55.5 8.5t-46.5 24t-32 38.5t-12 53t12.5 51.5t33 35.5t46.5 20.5t54 6.5q74 0 136 -40q5 16 7.5 32t2.5 32q0 60 -27 95t-74 35q-35 0 -59 -22.5t-24 -65.5h-72q0 40 -23 64t-59 24t-56 -22.5t-20 -52.5q0 -34 17 -58t43 -42l-35 -60q-42 24 -69.5 64.5
t-27.5 91.5q0 33 11.5 60.5t31 48t46.5 31.5t59 11q50 0 75.5 -20.5t42.5 -51.5q17 33 46.5 52.5t71.5 19.5t73 -17t54 -45q25 32 56.5 47t66.5 15q37 0 65.5 -13t48 -35t30 -51t10.5 -60q0 -96 -80 -152l-48 61q25 17 38.5 40.5t13.5 55.5q0 13 -4.5 27.5t-13.5 26.5
t-24 20t-36 8q-32 0 -53.5 -18t-33.5 -41q11 -36 11 -71q0 -59 -23 -114q25 -29 42.5 -66t26.5 -82h-64q-8 24 -18 45.5t-23 39.5q-29 -38 -69.5 -61.5t-89.5 -23.5zM340 -738q-29 0 -51.5 -11.5t-22.5 -36.5q0 -22 19.5 -34t54.5 -12q34 0 61 18t47 46q-22 14 -48.5 22
t-59.5 8z" />
    <glyph glyph-name="kn_tta.vattu.2" horiz-adv-x="319" 
d="M560 -749q0 37 -27.5 63.5t-79.5 26.5v75q107 0 107 98q0 24 -6.5 44t-16 36.5t-19.5 28t-17 18.5l59 41q11 -14 23.5 -33.5t23.5 -42.5t18 -48.5t7 -51.5q0 -49 -22 -80.5t-50 -48.5q16 -8 29 -22t22.5 -31t15 -35.5t5.5 -35.5q0 -33 -10 -61.5t-30 -49.5t-50 -33.5
t-69 -12.5q-57 0 -99.5 28.5t-57.5 70.5q-17 -46 -51.5 -72.5t-91.5 -26.5q-31 0 -62 10t-55.5 31t-40 54t-15.5 80q0 42 15.5 72t39.5 50t53 29.5t57 9.5l-8 -72q-12 -2 -27 -7t-27.5 -15.5t-21.5 -27.5t-9 -42q0 -26 9.5 -45t24 -31t31.5 -18t33 -6q30 0 50 11.5t32.5 30
t18.5 42t9 48.5h72q4 -62 38 -97t82 -35q23 0 39.5 8t27.5 20t16 26.5t5 28.5z" />
    <glyph glyph-name="kn_ttha.vattu.2" horiz-adv-x="237" 
d="M476 -672q0 -51 -20 -94.5t-53.5 -75.5t-76.5 -50t-89 -18q-51 0 -94.5 20t-75 53t-49.5 76t-18 89q0 51 19.5 94.5t52.5 75.5t76 50t89 18q51 0 95 -20t76 -53t50 -76t18 -89zM72 -671q0 -35 13 -65t35.5 -53t53 -36t64.5 -13t64.5 13t53 36t35.5 53t13 65q0 34 -13 64
t-35.5 52.5t-53 35.5t-64.5 13t-64.5 -13t-53 -35.5t-35.5 -52.5t-13 -64zM187 -664q0 -21 15 -36t36 -15t35.5 15t14.5 36t-14.5 36t-35.5 15t-36 -15t-15 -36z" />
    <glyph glyph-name="kn_dda.vattu.2" horiz-adv-x="281" 
d="M572 -750q0 -35 -14.5 -63.5t-38.5 -48.5t-54 -31t-61 -11q-36 0 -69.5 14t-53.5 42q-20 -29 -50.5 -42.5t-70.5 -13.5q-38 0 -67.5 15t-50 40t-31.5 58t-11 68q0 63 23.5 115t63.5 89.5t93 58t112 20.5q45 0 85 -12.5t71 -35.5t49 -57.5t18 -77.5q57 -37 57 -127z
M500 -745q0 19 -3.5 33t-14.5 26q-14 -14 -28 -18t-26 -4q-28 0 -49 17.5t-21 47.5t18 47t44 17q8 0 15 -1.5t13 -3.5q-6 23 -23.5 37t-40 22t-47 10.5t-43.5 2.5q-46 0 -86.5 -15t-70.5 -42t-47.5 -65t-17.5 -85q0 -23 5.5 -43t16.5 -36t27.5 -25t38.5 -9q16 0 31.5 6
t27.5 16.5t19 25t7 31.5v14h72v-14q0 -35 26 -57t62 -22q18 0 35 6.5t30.5 18t21.5 27.5t8 35z" />
    <glyph glyph-name="kn_ddha.vattu.2" horiz-adv-x="281" 
d="M572 -750q0 -35 -14.5 -63.5t-38.5 -48.5t-54 -31t-61 -11q-36 0 -69.5 14t-53.5 42q-20 -29 -50.5 -42.5t-70.5 -13.5q-38 0 -67.5 15t-50 40t-31.5 58t-11 68q0 63 23.5 115t63.5 89.5t93 58t112 20.5q45 0 85 -12.5t71 -35.5t49 -57.5t18 -77.5q57 -37 57 -127z
M500 -745q0 19 -3.5 33t-14.5 26q-14 -14 -28 -18t-26 -4q-28 0 -49 17.5t-21 47.5t18 47t44 17q8 0 15 -1.5t13 -3.5q-6 23 -23.5 37t-40 22t-47 10.5t-43.5 2.5q-46 0 -86.5 -15t-70.5 -42t-47.5 -65t-17.5 -85q0 -23 5.5 -43t16.5 -36t27.5 -25t38.5 -9q16 0 31.5 6
t27.5 16.5t19 25t7 31.5v14h72v-14q0 -35 26 -57t62 -22q18 0 35 6.5t30.5 18t21.5 27.5t8 35zM324 -973q0 -17 -12 -29t-31 -12q-18 0 -30 13t-12 28q0 25 14 48.5t28 43.5q16 -20 29.5 -43t13.5 -49z" />
    <glyph glyph-name="kn_nna.vattu.2" horiz-adv-x="288" 
d="M594 -689q0 -42 -7.5 -81t-24.5 -68.5t-45.5 -47.5t-70.5 -18q-23 0 -42.5 8.5t-34 23t-23 33.5t-8.5 40q0 22 7 42t20 35t31 24t39 9q25 0 47.5 -11.5t39.5 -41.5v40q0 24 -5 57t-17.5 62.5t-33.5 50t-52 20.5q-37 0 -61.5 -27t-28.5 -65h-72q-7 43 -32.5 67.5
t-66.5 24.5q-35 0 -58 -18t-23 -53q0 -29 17.5 -43t41.5 -14h32v-72h-32q-23 0 -41 -18t-18 -45q0 -25 16 -41t46 -16q23 0 41.5 16t27.5 40l55 -36q-12 -42 -47 -67t-77 -25q-26 0 -50 8t-43 23t-30 37.5t-11 52.5q0 40 18.5 68t45.5 39q-27 13 -45.5 37.5t-18.5 63.5
q0 33 12.5 58t33.5 42t49 26t60 9q42 0 76 -18t57 -54q8 18 22 31.5t31 22.5t35.5 13.5t36.5 4.5q49 0 83 -23.5t56 -60.5t32 -81t10 -84zM502 -806q-6 17 -20 35t-39 18q-17 0 -29 -10.5t-12 -31.5q0 -18 12.5 -27.5t27.5 -9.5q21 0 34.5 6t25.5 20z" />
    <glyph glyph-name="kn_ta.vattu.2" horiz-adv-x="488" 
d="M416 -673q0 31 12 56.5t32 44t47.5 29t58.5 10.5t58 -11.5t47 -31.5t31.5 -47t11.5 -57q0 -31 -11.5 -57.5t-31.5 -46.5t-47 -31.5t-58 -11.5h-566v72h449q-17 18 -25 40t-8 42zM488 -680q0 -32 23 -53.5t55 -21.5t54 21.5t22 53.5q0 31 -22 53t-54 22t-55 -22t-23 -53z
" />
    <glyph glyph-name="kn_tha.vattu.2" horiz-adv-x="285" 
d="M321 -749q0 -16 6.5 -31t17.5 -26.5t27 -18.5t34 -7q41 0 67.5 30.5t26.5 83.5q0 44 -15.5 82t-44 65.5t-68 43t-87.5 15.5q-47 0 -86 -15.5t-67.5 -43t-44 -65.5t-15.5 -82q0 -53 25.5 -83.5t66.5 -30.5q18 0 34 7t27 18.5t17.5 26.5t6.5 31v17h72v-17zM240 -631
q0 20 13 33.5t32 13.5q20 0 33.5 -13.5t13.5 -33.5q0 -18 -13.5 -31.5t-33.5 -13.5q-19 0 -32 13.5t-13 31.5zM285 -832q-19 -38 -47.5 -55t-73.5 -17q-41 0 -71.5 15.5t-51 41t-31 58.5t-10.5 67q0 61 21 113t59 89.5t90.5 58.5t115.5 21t115.5 -21t90.5 -58.5t59 -89.5
t21 -113q0 -34 -10.5 -67t-31.5 -58.5t-52 -41t-72 -15.5q-44 0 -73 17t-48 55zM328 -973q0 -17 -12 -29t-31 -12q-18 0 -30 13t-12 28q0 25 14 48.5t28 43.5q16 -20 29.5 -43t13.5 -49z" />
    <glyph glyph-name="kn_da.vattu.2" horiz-adv-x="285" 
d="M321 -749q0 -16 6.5 -31t17.5 -26.5t27 -18.5t34 -7q41 0 67.5 30.5t26.5 83.5q0 44 -15.5 82t-44 65.5t-68 43t-87.5 15.5q-47 0 -86 -15.5t-67.5 -43t-44 -65.5t-15.5 -82q0 -53 25.5 -83.5t66.5 -30.5q18 0 34 7t27 18.5t17.5 26.5t6.5 31v17h72v-17zM285 -832
q-19 -38 -47.5 -55t-73.5 -17q-41 0 -71.5 15.5t-51 41t-31 58.5t-10.5 67q0 61 21 113t59 89.5t90.5 58.5t115.5 21t115.5 -21t90.5 -58.5t59 -89.5t21 -113q0 -34 -10.5 -67t-31.5 -58.5t-52 -41t-72 -15.5q-44 0 -73 17t-48 55z" />
    <glyph glyph-name="kn_dha.vattu.2" horiz-adv-x="285" 
d="M321 -749q0 -16 6.5 -31t17.5 -26.5t27 -18.5t34 -7q41 0 67.5 30.5t26.5 83.5q0 44 -15.5 82t-44 65.5t-68 43t-87.5 15.5q-47 0 -86 -15.5t-67.5 -43t-44 -65.5t-15.5 -82q0 -53 25.5 -83.5t66.5 -30.5q18 0 34 7t27 18.5t17.5 26.5t6.5 31v17h72v-17zM285 -832
q-19 -38 -47.5 -55t-73.5 -17q-41 0 -71.5 15.5t-51 41t-31 58.5t-10.5 67q0 61 21 113t59 89.5t90.5 58.5t115.5 21t115.5 -21t90.5 -58.5t59 -89.5t21 -113q0 -34 -10.5 -67t-31.5 -58.5t-52 -41t-72 -15.5q-44 0 -73 17t-48 55zM328 -973q0 -17 -12 -29t-31 -12
q-18 0 -30 13t-12 28q0 25 14 48.5t28 43.5q16 -20 29.5 -43t13.5 -49z" />
    <glyph glyph-name="kn_na.vattu.2" horiz-adv-x="270" 
d="M531 -1003q-20 57 -47 124.5t-65 129.5q-43 -51 -101 -82t-131 -31q-38 0 -72 13t-59.5 36t-40.5 54.5t-15 69.5q0 41 15.5 74t42 55.5t60.5 34.5t71 12q68 0 123 -31t100 -82q32 65 48 140t16 145h72q0 -88 -21 -179.5t-66 -167.5q24 -35 44.5 -73.5t37 -76t30 -73.5
t23.5 -66zM186 -585q-47 0 -80.5 -25t-33.5 -75q0 -27 11.5 -47t29.5 -32.5t39.5 -19t41.5 -6.5q57 0 102 28t79 75q-37 46 -83.5 74t-105.5 28z" />
    <glyph glyph-name="kn_pa.vattu.2" horiz-adv-x="319" 
d="M461 -904q-57 0 -94 27.5t-51 71.5q-18 -46 -53.5 -72.5t-95.5 -26.5q-30 0 -60 9.5t-54 30t-38.5 52.5t-14.5 77q0 42 15.5 73.5t39.5 52t53 31t57 10.5l-9 -72q-12 -2 -26.5 -7.5t-27 -17.5t-21.5 -30t-9 -43t9 -42.5t23 -29t30.5 -17t32.5 -5.5q31 0 51.5 11.5
t33.5 30t19 42t9 48.5h72q1 -31 11 -55.5t25.5 -41.5t34.5 -26t40 -9q19 0 37.5 7t32.5 23t22.5 40.5t8.5 59.5q0 55 -17 101t-42.5 83.5t-55.5 67.5t-57 52l53 49q32 -23 66 -60t61.5 -83t45.5 -99t18 -108q0 -97 -46.5 -151t-128.5 -54z" />
    <glyph glyph-name="kn_pha.vattu.2" horiz-adv-x="316" 
d="M368 -972q0 -20 -14.5 -35.5t-37.5 -15.5t-38 16t-15 35q0 30 17.5 59t35.5 54q19 -25 35.5 -53t16.5 -60zM461 -904q-57 0 -94 27.5t-51 71.5q-18 -46 -53.5 -72.5t-95.5 -26.5q-30 0 -60 9.5t-54 30t-38.5 52.5t-14.5 77q0 42 15.5 73.5t39.5 52t53 31t57 10.5l-9 -72
q-12 -2 -26.5 -7.5t-27 -17.5t-21.5 -30t-9 -43t9 -42.5t23 -29t30.5 -17t32.5 -5.5q31 0 51.5 11.5t33.5 30t19 42t9 48.5h72q1 -31 11 -55.5t25.5 -41.5t34.5 -26t40 -9q19 0 37.5 7t32.5 23t22.5 40.5t8.5 59.5q0 55 -17 101t-42.5 83.5t-55.5 67.5t-57 52l53 49
q32 -23 66 -60t61.5 -83t45.5 -99t18 -108q0 -97 -46.5 -151t-128.5 -54z" />
    <glyph glyph-name="kn_ba.vattu.2" horiz-adv-x="331" 
d="M479 -832q19 0 38 7t33 23t23 40.5t9 59.5q0 55 -17 101t-42.5 83.5t-55.5 67.5t-57 52l53 49q32 -23 66 -60t61.5 -83t45.5 -99t18 -108q0 -97 -45.5 -151t-127.5 -54q-57 0 -95.5 26.5t-55.5 72.5q-15 -45 -54.5 -72t-103.5 -27q-23 0 -52.5 6.5t-56 22t-45 43
t-18.5 69.5q0 39 17.5 62.5t43 38.5t56 24t56 19t43 23.5t17.5 38.5q0 33 -22.5 46.5t-48.5 13.5q-24 0 -40.5 -7.5t-27 -19t-16 -25t-8.5 -25.5q-19 7 -33 12q-13 5 -23 8.5t-10 4.5q7 26 20.5 49.5t33 41.5t45 28.5t57.5 10.5q66 0 106 -35t40 -97q0 -41 -17.5 -65.5
t-43.5 -39t-57 -23t-57 -17.5t-43.5 -22t-17.5 -37q0 -21 10 -35.5t25 -24t33 -13.5t34 -4q50 0 84 27t38 89h72q5 -50 33.5 -83t79.5 -33z" />
    <glyph glyph-name="kn_bha.vattu.2" horiz-adv-x="330" 
d="M479 -832q19 0 38 7t33 23t23 40.5t9 59.5q0 55 -17 101t-42.5 83.5t-55.5 67.5t-57 52l53 49q32 -23 66 -60t61.5 -83t45.5 -99t18 -108q0 -97 -45.5 -151t-127.5 -54q-57 0 -95.5 26.5t-55.5 72.5q-15 -45 -54.5 -72t-103.5 -27q-23 0 -52.5 6.5t-56 22t-45 43
t-18.5 69.5q0 39 17.5 62.5t43 38.5t56 24t56 19t43 23.5t17.5 38.5q0 33 -22.5 46.5t-48.5 13.5q-24 0 -40.5 -7.5t-27 -19t-16 -25t-8.5 -25.5q-19 7 -33 12q-13 5 -23 8.5t-10 4.5q7 26 20.5 49.5t33 41.5t45 28.5t57.5 10.5q66 0 106 -35t40 -97q0 -41 -17.5 -65.5
t-43.5 -39t-57 -23t-57 -17.5t-43.5 -22t-17.5 -37q0 -21 10 -35.5t25 -24t33 -13.5t34 -4q50 0 84 27t38 89h72q5 -50 33.5 -83t79.5 -33zM382 -972q0 -20 -14.5 -35.5t-37.5 -15.5t-38 16t-15 35q0 30 17.5 59t35.5 54q19 -25 35.5 -53t16.5 -60z" />
    <glyph glyph-name="kn_ma.vattu.2" horiz-adv-x="267" 
d="M72 -628q0 -42 16 -79.5t45 -65t69 -43.5t88 -16q52 0 93.5 21.5t71 57.5t47 83.5t20.5 98.5l70 -23q-8 -59 -28 -115t-56 -99.5t-89.5 -69.5t-126.5 -26q-69 0 -123 21.5t-91.5 59t-57.5 88t-20 108.5q0 76 35 132t90 88q13 41 27.5 78.5t14.5 81.5q0 15 -2.5 31.5
t-5.5 31t-7 26.5t-7 19l71 29q9 -24 16 -51.5t7 -53.5q0 -46 -10 -81t-21 -67l-4 -12q30 6 61 6q41 0 76 -12t60.5 -33t40 -50t14.5 -63q0 -69 -46 -108t-121 -39q-29 0 -60 10t-56.5 30t-43 50.5t-20.5 72.5q-17 -23 -27 -52t-10 -65zM181 -491q0 -51 32.5 -81t82.5 -30
q14 0 29.5 5t28 14.5t21 24t8.5 33.5q0 39 -33.5 62t-84.5 23q-45 0 -82 -15q-1 -11 -1.5 -19.5t-0.5 -16.5z" />
    <glyph glyph-name="kn_ya.vattu.2" horiz-adv-x="250" 
d="M277 -924q-36 0 -78.5 7t-79 24.5t-61 47t-24.5 75.5q0 33 12.5 54t31.5 35.5t41.5 24.5t41.5 21.5t31.5 27t12.5 40.5q0 33 -18 44t-37 11q-21 0 -35.5 -7t-24.5 -17.5t-15.5 -23t-8.5 -24.5q-19 7 -33 12q-13 5 -23 8.5t-10 4.5q15 53 54 86t96 33t92 -33t35 -89
q0 -34 -12.5 -56.5t-31.5 -38t-41.5 -27t-41.5 -23t-31.5 -26t-12.5 -36.5q0 -21 14 -36.5t37.5 -26t54.5 -15.5t65 -5q91 0 133.5 40t42.5 101q0 37 -15 76t-37.5 78t-49 79t-49 79t-37.5 77.5t-15 74.5q0 40 13.5 70.5t36 51.5t51.5 31.5t60 10.5q47 0 90.5 -24.5
t72.5 -75.5l-58 -37q-24 37 -49.5 51t-54.5 14q-45 0 -67.5 -28t-22.5 -64q0 -33 15 -68.5t37.5 -73.5t49 -77t49 -79.5t37.5 -81t15 -81.5q0 -40 -12.5 -79t-42 -69.5t-77 -49t-116.5 -18.5z" />
    <glyph glyph-name="kn_ra.vattu.2" horiz-adv-x="243" 
d="M187 -223q0 -134 -23 -231.5t-72.5 -160.5t-128 -93.5t-190.5 -30.5q-67 0 -128.5 12t-129.5 38l25 67q25 -9 54.5 -17.5t60 -14.5t61 -9.5t57.5 -3.5q78 0 133.5 16.5t93.5 46t61 70t35 88t16 100t4 107.5q0 39 -4.5 113t-21.5 177l70 23q5 -33 10 -72.5t8.5 -79.5
t6 -77.5t2.5 -67.5z" />
    <glyph glyph-name="kn_rra.vattu.2" horiz-adv-x="283" 
d="M319 -547q0 49 30.5 78t77.5 29q41 0 68 -24.5t43 -60.5t22.5 -76t6.5 -71q0 -39 -11 -80t-33.5 -74.5t-56 -55.5t-79.5 -22q-36 0 -63.5 20t-40.5 52q-12 -32 -39.5 -52t-64.5 -20q-45 0 -79 22t-56 55.5t-33 74.5t-11 80q0 31 6.5 71t22.5 76t43 60.5t68 24.5
q47 0 77 -29t30 -78q0 -21 -9 -39.5t-20 -28.5h127q-11 12 -18.5 29.5t-7.5 38.5zM319 -747q0 -15 5 -30t14 -27.5t22.5 -20t30.5 -7.5q28 0 48 15.5t32.5 38.5t18 50.5t5.5 50.5q0 17 -2 28t-2 14q-10 -16 -28 -24t-33 -8h-293q-15 0 -33 8t-28 24q-1 -3 -2.5 -14t-1.5 -28
q0 -23 5.5 -50.5t18 -50.5t32 -38.5t47.5 -15.5q18 0 31.5 7.5t22.5 20t13.5 27.5t4.5 30v14h72v-14zM391 -547q0 -23 16.5 -35.5t31.5 -12.5q20 0 30.5 9.5t13.5 24.5q-2 18 -15 37.5t-37 19.5q-17 0 -28.5 -9.5t-11.5 -33.5zM175 -547q0 24 -11 33.5t-28 9.5
q-24 0 -37.5 -19.5t-15.5 -37.5q3 -15 14 -24.5t31 -9.5q15 0 31 12.5t16 35.5z" />
    <glyph glyph-name="kn_la.vattu.2" horiz-adv-x="307" 
d="M271 -626v11q0 30 -9.5 49.5t-24.5 31.5t-32.5 17t-32.5 5q-17 0 -34.5 -6t-32 -19.5t-24 -35.5t-9.5 -53q0 -54 25.5 -86.5t63.5 -50.5l-19 -66q-27 9 -52.5 26t-45.5 42t-32 59t-12 76q0 39 12.5 72.5t36 59t56 40t72.5 14.5q38 0 75 -21.5t55 -57.5q19 36 56 57.5
t75 21.5q40 0 72.5 -14.5t56 -40t36 -59t12.5 -72.5q0 -42 -12 -76t-32 -59t-45.5 -42t-52.5 -26l-19 66q37 18 63 50.5t26 86.5q0 31 -9.5 53t-24 35.5t-32.5 19.5t-34 6q-15 0 -32.5 -5t-32.5 -17t-25 -31.5t-10 -49.5v-11h-72z" />
    <glyph glyph-name="kn_lla.vattu.2" horiz-adv-x="294" 
d="M253 -547q0 -43 -31.5 -68.5t-73.5 -30.5q28 -8 60.5 -13t64.5 -11q34 19 73 34.5t72 35t55 46t22 67.5q0 42 -17.5 80.5t-44 73t-59 64.5t-62.5 54l44 52q56 -42 96 -86.5t65.5 -87t37.5 -81t12 -69.5q0 -49 -19 -83t-48.5 -58t-65 -40.5t-69.5 -30.5q26 -14 42.5 -37
t16.5 -60q0 -22 -10.5 -41.5t-27 -34.5t-38 -23.5t-43.5 -8.5q-23 0 -44 8t-37.5 22t-26.5 34t-10 44q0 46 25 77q-37 7 -75 16t-68.5 26t-49.5 44t-19 70q0 30 11 53t29 38.5t42 23.5t50 8q28 0 50.5 -9.5t38 -24.5t24 -34.5t8.5 -38.5zM131 -504q-9 0 -19 -2.5t-19 -9.5
t-15 -19t-6 -31v-5q13 -14 29 -20.5t30 -6.5q26 0 39.5 14.5t13.5 28.5q0 24 -15.5 37.5t-37.5 13.5zM358 -791q0 23 -19 35.5t-48 20.5q-17 -11 -27.5 -24.5t-10.5 -31.5t14.5 -32.5t37.5 -14.5q22 0 37.5 13t15.5 34z" />
    <glyph glyph-name="kn_va.vattu.2" horiz-adv-x="307" 
d="M565 -703q0 33 -12 63.5t-32 56t-45 44t-52 27.5h-117v72h226q37 0 58 18t21 40q0 25 -17 40t-48 26l18 51q18 -5 38.5 -15t38.5 -26t30 -38.5t12 -53.5q0 -29 -10.5 -49.5t-28.5 -34t-41.5 -21t-48.5 -9.5q82 -91 82 -187q0 -97 -46.5 -151t-128.5 -54q-57 0 -94.5 27.5
t-51.5 71.5q-17 -46 -53 -72.5t-96 -26.5q-30 0 -60 9.5t-53.5 30t-38.5 52.5t-15 77q0 42 15.5 73.5t39.5 52t53.5 31t57.5 10.5l-9 -72q-12 -2 -26.5 -7.5t-27.5 -17.5t-22 -30t-9 -43t9 -42.5t23 -29t31 -17t32 -5.5q31 0 52 11.5t33.5 30t19 42t8.5 48.5h72
q4 -62 37 -97t74 -35q19 0 37.5 7t33 23t23 40t8.5 59z" />
    <glyph glyph-name="kn_sha.vattu.2" horiz-adv-x="254" 
d="M150 -512q-33 0 -55.5 -20t-22.5 -60h-72q0 73 40.5 112.5t109.5 39.5q46 0 90 -18q14 37 14 81q0 17 -0.5 31.5t-2 29t-4.5 31t-8 38.5l68 30q9 -45 13.5 -86.5t4.5 -75.5q0 -30 -7 -57.5t-18 -53.5q51 -37 84 -94.5t33 -126.5q0 -44 -18 -79.5t-49.5 -60.5t-75.5 -39
t-96 -14q-79 0 -128.5 36t-49.5 109q0 34 22 61.5t53.5 54t67 55.5t63.5 67q-27 9 -56 9zM72 -765q0 -16 8.5 -28.5t23 -21t32.5 -13t38 -4.5q77 0 124 32.5t47 92.5q0 45 -22.5 85.5t-58.5 68.5q-28 -39 -61.5 -71.5t-62.5 -58.5t-48.5 -46t-19.5 -36z" />
    <glyph glyph-name="kn_ssa.vattu.2" horiz-adv-x="316" 
d="M402 -349q31 -23 68.5 -57t71.5 -76t59 -90.5t31 -99.5l90 -232l-61 -22l-56 102q-22 -38 -58 -59t-87 -21q-57 0 -93.5 27.5t-50.5 71.5q-18 -46 -53.5 -72.5t-95.5 -26.5q-30 0 -60 9.5t-54 30t-38.5 52.5t-14.5 77q0 42 15.5 73.5t39.5 52t53 31t57 10.5l-9 -72
q-12 -2 -26.5 -7.5t-27 -17.5t-21.5 -30t-9 -43t9 -42.5t23 -29t30.5 -17t32.5 -5.5q31 0 51.5 11.5t33.5 30t19 42t9 48.5h72q1 -31 11 -55.5t25.5 -41.5t34.5 -26t40 -9q19 0 37 7t32 23t22 40.5t8 59.5q0 51 -22 96.5t-54 84t-68 70t-63 53.5z" />
    <glyph glyph-name="kn_sa.vattu.2" horiz-adv-x="322" 
d="M547 -323q21 -42 38.5 -86t30 -86.5t19.5 -82.5t7 -74q0 -62 -13 -109t-37 -78.5t-57 -48t-73 -16.5q-51 0 -82.5 29t-52 72.5t-34.5 94.5t-29 94.5t-35 72.5t-53 29q-20 0 -39 -7.5t-33.5 -24t-23 -43.5t-8.5 -65q0 -24 6 -52t16.5 -57t26 -57t35.5 -51l-54 -50
q-17 19 -35 49t-33 65.5t-24.5 75t-9.5 77.5q0 46 12 84.5t34.5 67t55.5 44.5t74 16q53 0 85.5 -29t53.5 -72.5t34.5 -94.5t28 -94.5t34 -72.5t53.5 -29q47 0 76 42.5t29 118.5q0 40 -7 80.5t-19 80t-28 76t-34 68.5z" />
    <glyph glyph-name="kn_ha.vattu.2" horiz-adv-x="346" 
d="M0 -636q0 40 15 76t40.5 62.5t60 42t73.5 15.5q48 0 87.5 -22t65.5 -59q26 37 66 59t88 22q39 0 73.5 -15.5t60 -42t40.5 -62.5t15 -76q0 -41 -15 -76.5t-40.5 -62t-60 -42t-73.5 -15.5q-48 0 -88 22t-66 59q-26 -37 -65.5 -59t-87.5 -22q-39 0 -73.5 15.5t-60 42
t-40.5 62t-15 76.5zM378 -636q0 -26 9.5 -48.5t25.5 -39.5t37.5 -26.5t45.5 -9.5t45.5 9.5t37.5 26.5t25 39.5t9 48.5t-9 48.5t-25 39.5t-37.5 26.5t-45.5 9.5t-45 -9t-36.5 -25t-25.5 -38t-11 -47v-5zM72 -636q0 -26 9.5 -48.5t25 -39.5t37 -26.5t45.5 -9.5t45.5 9.5
t37.5 26.5t25 39.5t9 48.5t-9 48.5t-25 39.5t-37.5 26.5t-45.5 9.5t-45.5 -9.5t-37 -26.5t-25 -39.5t-9.5 -48.5z" />
    <glyph glyph-name="kn_llla.vattu.2" horiz-adv-x="283" 
d="M319 -746q0 -15 5 -30t14 -27.5t22.5 -20t30.5 -7.5q28 0 48 15.5t32.5 38.5t18 50.5t5.5 50.5q0 17 -2 28t-2 14q-10 -16 -28 -24t-33 -8q-48 0 -79.5 29.5t-31.5 90.5q0 49 30.5 78t77.5 29q41 0 68 -24.5t43 -60.5t22.5 -76t6.5 -71q0 -39 -11 -80t-33.5 -74.5
t-56 -55.5t-79.5 -22q-36 0 -63.5 20t-40.5 52q-12 -32 -39.5 -52t-64.5 -20q-45 0 -79 22t-56 55.5t-33 74.5t-11 80q0 31 6.5 71t22.5 76t43 60.5t68 24.5q47 0 77 -29t30 -78q0 -61 -31.5 -90.5t-78.5 -29.5q-15 0 -33 8t-28 24q-1 -3 -2.5 -14t-1.5 -28q0 -23 5.5 -50.5
t18 -50.5t32 -38.5t47.5 -15.5q18 0 31.5 7.5t22.5 20t13.5 27.5t4.5 30v14h72v-14zM175 -546q0 24 -11 33.5t-28 9.5q-24 0 -37.5 -19.5t-15.5 -37.5q3 -15 14 -24.5t31 -9.5q15 0 31 12.5t16 35.5zM391 -546q0 -23 16.5 -35.5t31.5 -12.5q20 0 30.5 9.5t13.5 24.5
q-2 18 -15 37.5t-37 19.5q-17 0 -28.5 -9.5t-11.5 -33.5z" />
    <glyph glyph-name="kn_ka.nukta" horiz-adv-x="1226" 
d="M145 -245q0 22 8 41t22.5 33t33.5 22.5t41 8.5t41 -8.5t33 -22.5t22.5 -33t8.5 -41t-8.5 -41t-22.5 -33.5t-33 -22.5t-41 -8t-41 8t-33.5 22.5t-22.5 33.5t-8 41zM755 -245q0 22 8 41t22.5 33t33.5 22.5t41 8.5t41 -8.5t33 -22.5t22.5 -33t8.5 -41t-8.5 -41t-22.5 -33.5
t-33 -22.5t-41 -8t-41 8t-33.5 22.5t-22.5 33.5t-8 41zM64 890v128h727q92 0 141.5 41.5t49.5 105.5q0 18 -5.5 37t-14.5 36.5t-20 32.5t-22 26l78 75q51 -50 75.5 -106.5t24.5 -113.5q0 -52 -17.5 -99.5t-54.5 -83.5t-95 -57.5t-139 -21.5h-172v-99h427v-87h-187
q86 -56 136.5 -137t50.5 -177q0 -83 -38.5 -156t-105.5 -127t-156.5 -85.5t-191.5 -31.5t-191.5 31.5t-156 85.5t-105 127t-38.5 156q0 96 50 177t135 137h-185v87h428v99h-428zM192 390q0 -57 28.5 -106.5t77.5 -86t115.5 -58t141.5 -21.5t141.5 21.5t116 58t78 86
t28.5 106.5t-28.5 106.5t-78 86.5t-116 58.5t-141.5 21.5t-141.5 -21.5t-115.5 -58.5t-77.5 -86.5t-28.5 -106.5z" />
    <glyph glyph-name="kn_kha.nukta" horiz-adv-x="1633" 
d="M344 -245q0 22 8 41t22.5 33t33.5 22.5t41 8.5t41 -8.5t33 -22.5t22.5 -33t8.5 -41t-8.5 -41t-22.5 -33.5t-33 -22.5t-41 -8t-41 8t-33.5 22.5t-22.5 33.5t-8 41zM954 -245q0 22 8 41t22.5 33t33.5 22.5t41 8.5t41 -8.5t33 -22.5t22.5 -33t8.5 -41t-8.5 -41t-22.5 -33.5
t-33 -22.5t-41 -8t-41 8t-33.5 22.5t-22.5 33.5t-8 41zM355 -10q-52 0 -104 13.5t-93.5 42t-67.5 71t-26 101.5q0 55 24.5 97t64.5 70.5t91.5 43t104.5 14.5q45 0 87.5 -11.5t84 -30.5t81 -44.5t78.5 -52.5q37 58 55.5 122.5t18.5 126.5q0 75 -28.5 143t-82.5 118
q-3 -70 -28.5 -118.5t-64.5 -79t-86.5 -44t-93.5 -13.5q-54 0 -99 17.5t-78 48t-51 71t-18 86.5q0 56 19.5 101.5t57 77.5t90.5 49.5t121 17.5q93 0 178.5 -38t150 -102t103 -149.5t38.5 -179.5q0 -98 -25.5 -180.5t-70.5 -149.5q67 -46 134 -78.5t138 -32.5q84 0 144.5 36
t99 92.5t57 126.5t18.5 139q0 24 -3.5 56.5t-15 70.5t-33 79t-57 83t-87.5 82.5t-124 76.5l64 103q67 -33 135 -85t123.5 -122.5t90.5 -159t35 -193.5q0 -107 -30 -200.5t-87.5 -163t-140.5 -109.5t-189 -40q-51 0 -96.5 13t-86.5 35t-80 49.5t-76 57.5q-75 -75 -169.5 -115
t-194.5 -40zM348 325q-73 0 -114.5 -28.5t-41.5 -75.5q0 -27 16.5 -46.5t40 -32t50 -18.5t47.5 -6q85 0 152 29.5t117 77.5q-59 42 -124 71t-143 29zM412 900q-41 0 -71 -10.5t-50 -27.5t-29.5 -39t-9.5 -44t8.5 -42t24 -35t38.5 -24t53 -9q34 0 63 12.5t50 35t32.5 55
t11.5 71.5q0 18 -3 38q-55 19 -118 19z" />
    <glyph glyph-name="kn_ga.nukta" horiz-adv-x="1320" 
d="M162 -245q0 22 8 41t22.5 33t33.5 22.5t41 8.5t41 -8.5t33 -22.5t22.5 -33t8.5 -41t-8.5 -41t-22.5 -33.5t-33 -22.5t-41 -8t-41 8t-33.5 22.5t-22.5 33.5t-8 41zM772 -245q0 22 8 41t22.5 33t33.5 22.5t41 8.5t41 -8.5t33 -22.5t22.5 -33t8.5 -41t-8.5 -41t-22.5 -33.5
t-33 -22.5t-41 -8t-41 8t-33.5 22.5t-22.5 33.5t-8 41zM64 890v128h821q92 0 141.5 41.5t49.5 105.5q0 18 -5.5 37t-14.5 36.5t-20 32.5t-22 26l78 75q51 -50 75.5 -106.5t24.5 -113.5q0 -51 -17 -98t-53 -83t-92.5 -58t-134.5 -23q42 -38 76 -84.5t58.5 -100t38 -113.5
t13.5 -124q0 -110 -43.5 -228.5t-144.5 -239.5l-96 83q81 86 118.5 185.5t37.5 198.5q0 85 -25.5 161.5t-74.5 134.5t-119.5 92.5t-161.5 34.5t-162 -34.5t-119.5 -92.5t-73.5 -134.5t-25 -161.5q0 -99 37.5 -198.5t118.5 -185.5l-95 -83q-101 121 -145 240t-44 229
q0 129 51 237t134 184h-185z" />
    <glyph glyph-name="kn_gha.nukta" horiz-adv-x="1521" 
d="M246 -245q0 22 8 41t22.5 33t33.5 22.5t41 8.5t41 -8.5t33 -22.5t22.5 -33t8.5 -41t-8.5 -41t-22.5 -33.5t-33 -22.5t-41 -8t-41 8t-33.5 22.5t-22.5 33.5t-8 41zM856 -245q0 22 8 41t22.5 33t33.5 22.5t41 8.5t41 -8.5t33 -22.5t22.5 -33t8.5 -41t-8.5 -41t-22.5 -33.5
t-33 -22.5t-41 -8t-41 8t-33.5 22.5t-22.5 33.5t-8 41zM1065 714q28 -19 58.5 -36t65.5 -17q34 0 61 22.5t27 64.5q0 20 -7 38t-17.5 33t-23 27t-23.5 20l71 85q51 -35 83.5 -88t32.5 -110q0 -39 -12.5 -73t-36 -59.5t-56 -43t-71.5 -23.5q30 -45 49.5 -98.5t19.5 -116.5
q0 -79 -24.5 -143.5t-70 -110t-110 -70.5t-144.5 -25q-50 0 -95 14t-82 38t-64 56t-40 69q-15 -41 -42.5 -73.5t-64.5 -55.5t-81.5 -35.5t-95.5 -12.5q-55 0 -110 18t-99 56t-71.5 97t-27.5 142q0 74 27.5 128t70 89.5t95 52.5t102.5 17l-16 -128q-21 -3 -47 -12
t-49.5 -27.5t-39 -49t-15.5 -76.5t16.5 -80t42.5 -56t58.5 -32.5t64.5 -10.5q54 0 93 20.5t65.5 53.5t41 75.5t18.5 86.5h128q3 -55 24 -98.5t52 -74t69.5 -47t76.5 -16.5q45 0 84.5 14t69 42.5t46 70.5t16.5 99q0 46 -16.5 86.5t-42.5 74t-57 61t-59 48.5zM64 890v128h870
q98 0 144.5 41.5t46.5 105.5q0 18 -5 36t-13.5 33.5t-19 28.5t-22.5 22l66 83q28 -21 49 -47t34.5 -54t20 -57.5t6.5 -57.5q0 -52 -17.5 -99.5t-54.5 -83.5t-95 -57.5t-139 -21.5h-871zM750 -132q0 -17 -7 -33.5t-19.5 -29t-30 -20t-37.5 -7.5t-37 8t-30 20.5t-20 28.5
t-7 33q0 27 8.5 54t22 52.5t30.5 50t33 46.5q17 -23 34 -46.5t30.5 -49t21.5 -52.5t8 -55zM548 630q0 22 8.5 41.5t23 34t34 23t42.5 8.5q22 0 42 -8.5t35 -23t23.5 -34t8.5 -41.5t-8.5 -41.5t-23.5 -34t-35 -23t-42 -8.5q-23 0 -42.5 8.5t-34 23t-23 34t-8.5 41.5z" />
    <glyph glyph-name="kn_nga.nukta" horiz-adv-x="1403" 
d="M273 -245q0 22 8 41t22.5 33t33.5 22.5t41 8.5t41 -8.5t33 -22.5t22.5 -33t8.5 -41t-8.5 -41t-22.5 -33.5t-33 -22.5t-41 -8t-41 8t-33.5 22.5t-22.5 33.5t-8 41zM883 -245q0 22 8 41t22.5 33t33.5 22.5t41 8.5t41 -8.5t33 -22.5t22.5 -33t8.5 -41t-8.5 -41t-22.5 -33.5
t-33 -22.5t-41 -8t-41 8t-33.5 22.5t-22.5 33.5t-8 41zM381 -10q-51 0 -106.5 14.5t-102.5 49t-77.5 91.5t-30.5 142q0 70 33 121.5t83 92t108 73t108 64t83 65.5t33 78q0 30 -13 50.5t-33.5 33.5t-45.5 19t-49 6q-42 0 -73.5 -13.5t-53 -34t-34.5 -45t-18 -46.5l-60 22
q-23 8 -41 15t-18 8q13 47 38 89t62 74t85 50.5t108 18.5q88 0 151 -34t95 -97q25 27 54 50.5t63 41.5t72 28.5t81 10.5q59 0 105 -16.5t78 -44.5t49 -64t17 -76q0 -15 -2.5 -33t-7.5 -36t-12 -34t-16 -26l-92 44q12 30 12 57q0 28 -12 47t-31.5 31t-45 17.5t-51.5 5.5
t-54.5 -8t-58.5 -26t-60.5 -47t-60.5 -71q-4 -48 -25.5 -85t-53.5 -67.5t-72 -55t-81 -47t-79.5 -44t-68.5 -46t-48.5 -53.5t-18.5 -65q0 -47 19.5 -79t49.5 -51.5t66.5 -28t69.5 -8.5q38 0 76.5 16.5t69.5 47t52 74t24 98.5h128q4 -44 18.5 -86.5t41 -75.5t65.5 -53.5
t93 -20.5q32 0 64.5 10.5t58.5 32.5t42.5 56t16.5 80t-15.5 76.5t-39 49t-49.5 27.5t-47 12l-16 128q50 0 102.5 -17t95 -52.5t70 -89.5t27.5 -128q0 -83 -27.5 -142t-71.5 -97t-99 -56t-110 -18q-51 0 -96 12.5t-81.5 35.5t-64 55.5t-42.5 73.5q-13 -40 -42 -72.5
t-68.5 -56t-88.5 -36t-103 -12.5zM700 562q0 38 26.5 64.5t64.5 26.5q19 0 36 -7t29.5 -19.5t20 -29t7.5 -35.5q0 -18 -7.5 -34.5t-20 -29t-29.5 -19.5t-36 -7q-38 0 -64.5 26.5t-26.5 63.5z" />
    <glyph glyph-name="kn_ca.nukta" horiz-adv-x="1470" 
d="M273 -245q0 22 8 41t22.5 33t33.5 22.5t41 8.5t41 -8.5t33 -22.5t22.5 -33t8.5 -41t-8.5 -41t-22.5 -33.5t-33 -22.5t-41 -8t-41 8t-33.5 22.5t-22.5 33.5t-8 41zM883 -245q0 22 8 41t22.5 33t33.5 22.5t41 8.5t41 -8.5t33 -22.5t22.5 -33t8.5 -41t-8.5 -41t-22.5 -33.5
t-33 -22.5t-41 -8t-41 8t-33.5 22.5t-22.5 33.5t-8 41zM1275 638v-127h-64q29 -40 46.5 -89.5t17.5 -108.5q0 -83 -27.5 -144t-71.5 -100.5t-99 -59t-110 -19.5q-51 0 -96 12.5t-81.5 35.5t-64 55.5t-42.5 73.5q-13 -40 -42 -72.5t-68.5 -56t-88.5 -36t-103 -12.5
q-51 0 -106.5 14.5t-102.5 49t-77.5 91.5t-30.5 142q0 70 33 121.5t83 92t108 73t108 64t83 65.5t33 78q0 30 -13 50.5t-33.5 33.5t-45.5 19t-49 6q-42 0 -73.5 -13.5t-53 -34t-34.5 -45t-18 -46.5l-60 22q-23 8 -41 15t-18 8q13 47 38 89t62 74t85 50.5t108 18.5
q63 0 113.5 -17.5t86 -51t55 -82t19.5 -109.5q0 -51 -19.5 -91t-51 -72t-71.5 -58t-82 -49t-82.5 -45t-72 -47t-50.5 -54.5t-19 -66.5q0 -47 19.5 -79t49.5 -51.5t66.5 -28t69.5 -8.5q38 0 76.5 16.5t69.5 47t52 74t24 98.5h128q4 -44 18.5 -86.5t41 -75.5t65.5 -53.5
t93 -20.5q32 0 64.5 12t58.5 36.5t42.5 62t16.5 88.5q0 43 -11.5 76t-27.5 57t-33.5 39.5t-29.5 21.5h-237v127h241q11 3 27.5 12t32.5 24.5t27 37t11 49.5q0 30 -12.5 53t-29.5 39t-34.5 25.5t-28.5 11.5h-234v128h256q30 2 59 13.5t52 30.5t37 45t14 58q0 18 -5 36
t-13.5 33.5t-19 28.5t-22.5 22l66 83q28 -21 49 -47t34.5 -54t20 -57.5t6.5 -57.5q0 -68 -30.5 -128.5t-97.5 -95.5q28 -29 44.5 -65t16.5 -88q0 -22 -6 -43.5t-15 -39.5t-20.5 -32t-22.5 -22h64z" />
    <glyph glyph-name="kn_cha.nukta" horiz-adv-x="1648" 
d="M409 -245q0 22 8 41t22.5 33t33.5 22.5t41 8.5t41 -8.5t33 -22.5t22.5 -33t8.5 -41t-8.5 -41t-22.5 -33.5t-33 -22.5t-41 -8t-41 8t-33.5 22.5t-22.5 33.5t-8 41zM1019 -245q0 22 8 41t22.5 33t33.5 22.5t41 8.5t41 -8.5t33 -22.5t22.5 -33t8.5 -41t-8.5 -41t-22.5 -33.5
t-33 -22.5t-41 -8t-41 8t-33.5 22.5t-22.5 33.5t-8 41zM1519 448q0 -108 -28 -193t-79.5 -144t-124 -90t-160.5 -31q-50 0 -96.5 13.5t-87 37.5t-72.5 58t-53 75q-29 -45 -66.5 -79.5t-79.5 -58t-85 -35t-82 -11.5q-77 0 -155.5 28.5t-142 88.5t-103.5 152.5t-40 219.5
q0 115 29 215t78.5 174t115 117t137.5 43q60 0 102.5 -25t70 -62.5t40 -81.5t12.5 -81q0 -48 -17.5 -94t-50 -82t-77 -58t-98.5 -22t-106 24.5t-87 83.5q-9 -40 -15 -75.5t-6 -75.5q0 -98 29.5 -166.5t74.5 -112t99 -63t103 -19.5q50 0 96.5 22.5t82 57t56.5 76t21 80.5h128
q0 -47 22 -89.5t57.5 -75t78.5 -52t85 -19.5q68 0 118 27.5t83 73.5t49 105.5t16 123.5q0 39 -9.5 85t-29.5 92.5t-50.5 91.5t-72 81t-95.5 60.5t-120 31.5h-43v128h242q98 0 144.5 41.5t46.5 105.5q0 18 -5 36t-13.5 33.5t-19 28.5t-22.5 22l66 83q28 -21 49 -47t34.5 -54
t20 -57.5t6.5 -57.5q0 -43 -15 -85t-44 -76.5t-72 -59t-100 -31.5q64 -41 108 -98.5t71 -119.5t39 -123.5t12 -110.5zM402 650q27 0 49 13.5t37.5 33.5t24 42t8.5 39q0 24 -8 47t-23 41t-36.5 29t-48.5 11q-40 0 -76.5 -37t-65.5 -97q11 -40 27.5 -64t35.5 -37t39 -17t37 -4
zM913 -132q0 -17 -7 -33.5t-19.5 -29t-30 -20t-37.5 -7.5t-37 8t-30 20.5t-20 28.5t-7 33q0 27 8.5 54t22 52.5t30.5 50t33 46.5q17 -23 34 -46.5t30.5 -49t21.5 -52.5t8 -55z" />
    <glyph glyph-name="kn_ja.nukta" horiz-adv-x="1403" 
d="M319 -245q0 22 8 41t22.5 33t33.5 22.5t41 8.5t41 -8.5t33 -22.5t22.5 -33t8.5 -41t-8.5 -41t-22.5 -33.5t-33 -22.5t-41 -8t-41 8t-33.5 22.5t-22.5 33.5t-8 41zM929 -245q0 22 8 41t22.5 33t33.5 22.5t41 8.5t41 -8.5t33 -22.5t22.5 -33t8.5 -41t-8.5 -41t-22.5 -33.5
t-33 -22.5t-41 -8t-41 8t-33.5 22.5t-22.5 33.5t-8 41zM381 -10q-51 0 -106.5 14.5t-102.5 49t-77.5 91.5t-30.5 142q0 70 33 121.5t83 92t108 73t108 64t83 65.5t33 78q0 30 -13 50.5t-33.5 33.5t-45.5 19t-49 6q-42 0 -73.5 -13.5t-53 -34t-34.5 -45t-18 -46.5l-60 22
q-23 8 -41 15t-18 8q13 47 38 89t62 74t85 50.5t108 18.5q97 0 163 -40.5t94 -115.5q60 -51 122.5 -80t134.5 -29q48 0 80.5 26t32.5 66q0 21 -8.5 40.5t-19.5 30.5l92 53q29 -27 47 -66.5t18 -75.5q0 -40 -18 -75t-49.5 -61t-75.5 -41t-95 -15q-75 0 -136.5 23.5
t-111.5 57.5q-11 -59 -48 -101t-86.5 -75.5t-104 -61.5t-100 -57.5t-75.5 -64t-30 -81.5t19.5 -79t49.5 -51.5t66.5 -28t69.5 -8.5q38 0 76.5 16.5t69.5 47t52 74t24 98.5h128q4 -44 18.5 -86.5t41 -75.5t65.5 -53.5t93 -20.5q32 0 64.5 10.5t58.5 32.5t42.5 56t16.5 80
t-15.5 76.5t-39 49t-49.5 27.5t-47 12l-16 128q50 0 102.5 -17t95 -52.5t70 -89.5t27.5 -128q0 -83 -27.5 -142t-71.5 -97t-99 -56t-110 -18q-51 0 -96 12.5t-81.5 35.5t-64 55.5t-42.5 73.5q-13 -40 -42 -72.5t-68.5 -56t-88.5 -36t-103 -12.5z" />
    <glyph glyph-name="kn_jha.nukta" horiz-adv-x="2404" 
d="M191 -245q0 22 8 41t22.5 33t33.5 22.5t41 8.5t41 -8.5t33 -22.5t22.5 -33t8.5 -41t-8.5 -41t-22.5 -33.5t-33 -22.5t-41 -8t-41 8t-33.5 22.5t-22.5 33.5t-8 41zM801 -245q0 22 8 41t22.5 33t33.5 22.5t41 8.5t41 -8.5t33 -22.5t22.5 -33t8.5 -41t-8.5 -41t-22.5 -33.5
t-33 -22.5t-41 -8t-41 8t-33.5 22.5t-22.5 33.5t-8 41zM64 504q0 116 49.5 215.5t134.5 170.5h-184v128h779q98 0 144.5 41.5t46.5 105.5q0 18 -5 36t-13.5 33.5t-19 28.5t-22.5 22l66 83q28 -21 49 -47t34.5 -54t20 -57.5t6.5 -57.5q0 -43 -12 -83.5t-37.5 -74t-65 -58
t-93.5 -36.5q90 -71 143 -173t53 -223q0 -62 -14.5 -119.5t-41.5 -108.5q14 -32 37.5 -60.5t52 -50t60 -34.5t61.5 -13q68 0 118 27.5t82.5 73.5t48.5 105.5t16 123.5q0 58 -14.5 120.5t-52 126.5t-102.5 127t-167 123l64 102q120 -63 197.5 -139.5t122.5 -156.5
t62.5 -158.5t17.5 -144.5q0 -82 -17 -153q11 -36 33.5 -68.5t51.5 -56.5t62.5 -38t66.5 -14q68 0 118 27.5t82.5 73.5t48.5 105.5t16 123.5q0 58 -14.5 120.5t-52 126.5t-102.5 127t-167 123l64 102q120 -63 197.5 -139.5t122.5 -156.5t62.5 -158.5t17.5 -144.5
q0 -108 -28 -193t-80 -144t-124.5 -90t-160.5 -31q-42 0 -82 12t-75.5 33.5t-66 51.5t-52.5 66q-51 -75 -131 -119t-183 -44q-43 0 -85.5 13t-80 36.5t-69 56t-53.5 70.5q-74 -81 -178.5 -128.5t-225.5 -47.5q-74 0 -142.5 18.5t-128 52t-109 80t-84.5 104t-54 123
t-19 136.5zM193 502q0 -91 35 -162t92.5 -120.5t130.5 -75.5t149 -26q75 0 148 27.5t130.5 78t93 121.5t35.5 157q0 84 -36 155t-93.5 122.5t-130.5 80.5t-147 29t-147 -29t-130.5 -80.5t-93.5 -122.5t-36 -155zM1701 -132q0 -17 -7 -33.5t-19.5 -29t-30 -20t-37.5 -7.5
t-37 8t-30 20.5t-20 28.5t-7 33q0 27 8.5 54t22 52.5t30.5 50t33 46.5q17 -23 34 -46.5t30.5 -49t21.5 -52.5t8 -55z" />
    <glyph glyph-name="kn_nya.nukta" horiz-adv-x="2136" 
d="M530 -245q0 22 8 41t22.5 33t33.5 22.5t41 8.5t41 -8.5t33 -22.5t22.5 -33t8.5 -41t-8.5 -41t-22.5 -33.5t-33 -22.5t-41 -8t-41 8t-33.5 22.5t-22.5 33.5t-8 41zM1140 -245q0 22 8 41t22.5 33t33.5 22.5t41 8.5t41 -8.5t33 -22.5t22.5 -33t8.5 -41t-8.5 -41t-22.5 -33.5
t-33 -22.5t-41 -8t-41 8t-33.5 22.5t-22.5 33.5t-8 41zM1685 900q-24 0 -50.5 -5t-55 -19t-59 -38.5t-64.5 -63.5q8 -29 12 -59.5t4 -62.5q0 -53 -12 -108.5t-35 -110.5t-56.5 -107.5t-76.5 -100.5q17 -35 27 -74t10 -81q0 -38 -9 -79t-24.5 -80t-37.5 -74.5t-48 -62.5
l-107 70q21 25 40 51.5t34 54t24 56t9 57.5q0 21 -2.5 40.5t-7.5 36.5q-41 -32 -83.5 -59t-90.5 -47.5t-102.5 -32t-119.5 -11.5q-72 0 -129 18.5t-97 50.5t-61.5 75t-21.5 93q0 48 16.5 85t44 64.5t62 46.5t71 30.5t71 16.5t61.5 5q118 0 220 -39t173 -107q58 67 93.5 151
t35.5 183q0 54 -17 97.5t-47 74t-71 47t-89 16.5q-61 0 -108.5 -30t-82.5 -76.5t-59 -103.5t-37 -112h-128q-8 46 -31.5 102.5t-63 105.5t-95 82.5t-127.5 33.5q-46 0 -82 -17.5t-61 -45t-38.5 -62.5t-13.5 -71q0 -69 35.5 -118.5t107.5 -95.5l-79 -106q-97 64 -144.5 142.5
t-47.5 177.5q0 75 27 135t71.5 102t103 64.5t121.5 22.5q77 0 138.5 -24t108.5 -63t80 -89.5t54 -103.5q17 55 50.5 106t79.5 89.5t102.5 61.5t121.5 23q91 0 163 -37t118 -103q27 28 59 53.5t67.5 45t74 30.5t80.5 11q63 0 121.5 -22.5t103.5 -64.5t72 -102t27 -135
q0 -99 -47.5 -177.5t-144.5 -142.5l-79 106q72 46 107.5 95.5t35.5 118.5q0 36 -13.5 71t-38.5 62.5t-61 45t-82 17.5zM818 118q81 0 160 37t154 96q-33 30 -74.5 49t-83.5 29.5t-81.5 14t-68.5 3.5q-32 0 -67 -8.5t-64 -24.5t-48 -38t-19 -49q0 -26 18 -46t46 -34t62 -21.5
t66 -7.5z" />
    <glyph glyph-name="kn_tta.nukta" horiz-adv-x="1472" 
d="M294 -245q0 22 8 41t22.5 33t33.5 22.5t41 8.5t41 -8.5t33 -22.5t22.5 -33t8.5 -41t-8.5 -41t-22.5 -33.5t-33 -22.5t-41 -8t-41 8t-33.5 22.5t-22.5 33.5t-8 41zM904 -245q0 22 8 41t22.5 33t33.5 22.5t41 8.5t41 -8.5t33 -22.5t22.5 -33t8.5 -41t-8.5 -41t-22.5 -33.5
t-33 -22.5t-41 -8t-41 8t-33.5 22.5t-22.5 33.5t-8 41zM769 354q0 -48 18.5 -90.5t50 -75t74 -51.5t89.5 -19q42 0 81 14t68.5 40.5t47.5 63.5t18 83q0 64 -31 111.5t-76.5 81t-96.5 53.5t-91 31l32 115q22 1 50 6.5t53 18t41.5 32.5t16.5 52q0 28 -14 47t-36 31t-48.5 17
t-50.5 5v108q47 0 96.5 -13t89.5 -38.5t65.5 -64.5t25.5 -91q0 -72 -35.5 -114t-92.5 -59q109 -38 169.5 -122.5t60.5 -209.5q0 -62 -23.5 -121t-67.5 -104.5t-107.5 -73t-144.5 -27.5q-56 0 -102 13t-82.5 37t-64 58t-48.5 76q-41 -83 -113 -133.5t-184 -50.5
q-81 0 -144.5 27.5t-107.5 73t-67.5 104.5t-23.5 121q0 125 60.5 209.5t169.5 122.5q-57 17 -92.5 59t-35.5 114q0 52 25.5 91t65.5 64.5t89.5 38.5t96.5 13v-108q-24 0 -50.5 -5t-48.5 -17t-36 -31t-14 -47q0 -32 16.5 -52t41.5 -32.5t52.5 -18t50.5 -6.5l32 -115
q-40 -11 -91 -31t-96.5 -53.5t-76.5 -81t-31 -111.5q0 -46 18 -83t47.5 -63.5t68.5 -40.5t81 -14q47 0 89.5 19t74.5 51.5t50.5 75t18.5 90.5h129z" />
    <glyph glyph-name="kn_ttha.nukta" horiz-adv-x="1369" 
d="M191 -245q0 22 8 41t22.5 33t33.5 22.5t41 8.5t41 -8.5t33 -22.5t22.5 -33t8.5 -41t-8.5 -41t-22.5 -33.5t-33 -22.5t-41 -8t-41 8t-33.5 22.5t-22.5 33.5t-8 41zM801 -245q0 22 8 41t22.5 33t33.5 22.5t41 8.5t41 -8.5t33 -22.5t22.5 -33t8.5 -41t-8.5 -41t-22.5 -33.5
t-33 -22.5t-41 -8t-41 8t-33.5 22.5t-22.5 33.5t-8 41zM64 890v128h870q98 0 144.5 41.5t46.5 105.5q0 18 -5 36t-13.5 33.5t-19 28.5t-22.5 22l66 83q28 -21 49 -47t34.5 -54t20 -57.5t6.5 -57.5q0 -52 -17.5 -99.5t-54.5 -83.5t-95 -57.5t-139 -21.5q43 -34 80.5 -75.5
t65 -90.5t43 -104.5t15.5 -117.5q0 -115 -43.5 -209.5t-117 -161.5t-171.5 -104t-206 -37q-107 0 -204 37t-171 104t-118 161.5t-44 209.5q0 64 15.5 120.5t43 105t64.5 89t81 73.5h-204zM194 502q0 -91 35 -162t92.5 -120.5t130.5 -75.5t149 -26q75 0 148 27.5t130.5 78
t93 121.5t35.5 157q0 84 -36 155t-93.5 122.5t-130.5 80.5t-147 29t-147 -29t-130.5 -80.5t-93.5 -122.5t-36 -155zM492 517q0 22 8.5 41.5t23 34t34 23t42.5 8.5q22 0 42 -8.5t35 -23t23.5 -34t8.5 -41.5t-8.5 -41.5t-23.5 -34t-35 -23t-42 -8.5q-23 0 -42.5 8.5t-34 23
t-23 34t-8.5 41.5z" />
    <glyph glyph-name="kn_dda.nukta" horiz-adv-x="1487" 
d="M281 -245q0 22 8 41t22.5 33t33.5 22.5t41 8.5t41 -8.5t33 -22.5t22.5 -33t8.5 -41t-8.5 -41t-22.5 -33.5t-33 -22.5t-41 -8t-41 8t-33.5 22.5t-22.5 33.5t-8 41zM891 -245q0 22 8 41t22.5 33t33.5 22.5t41 8.5t41 -8.5t33 -22.5t22.5 -33t8.5 -41t-8.5 -41t-22.5 -33.5
t-33 -22.5t-41 -8t-41 8t-33.5 22.5t-22.5 33.5t-8 41zM691 890q-90 0 -179 -28.5t-160.5 -88t-115.5 -151.5t-44 -218q0 -56 13.5 -107.5t41 -91t71 -63.5t103.5 -24q50 0 87 21t62 52t39 66t18 63h128q3 -36 18 -72t41 -65t62.5 -47t83.5 -18q43 0 81.5 15.5t68 41.5
t46.5 61t17 74q0 57 -19 100.5t-45 63.5q-17 -29 -50 -48t-76 -19q-28 0 -51.5 9.5t-41 26.5t-27.5 40.5t-10 52.5q0 24 9.5 47t28 41t45 28.5t59.5 10.5q19 0 39 -3q-8 58 -43.5 101t-85 71.5t-106.5 43t-108 14.5zM64 890v128h988q98 0 144.5 41.5t46.5 105.5q0 18 -5 36
t-13.5 33.5t-19 28.5t-22.5 22l66 83q28 -21 49 -47t34.5 -54t20 -57.5t6.5 -57.5q0 -52 -17.5 -99.5t-54.5 -83.5t-95 -57.5t-139 -21.5h-21q54 -48 86 -109.5t32 -135.5v-16.5t-2 -17.5q33 -24 59.5 -57.5t45 -73t28.5 -82.5t10 -87q0 -75 -29 -134.5t-76 -101
t-108.5 -63.5t-125.5 -22q-37 0 -75.5 10t-74 30.5t-64.5 52t-47 73.5q-42 -83 -114.5 -124.5t-155.5 -41.5q-98 0 -165.5 39.5t-110.5 101t-62 136t-19 145.5q0 76 17 145.5t48.5 130t75.5 111.5t98 91h-239z" />
    <glyph glyph-name="kn_ddha.nukta" horiz-adv-x="1487" 
d="M281 -245q0 22 8 41t22.5 33t33.5 22.5t41 8.5t41 -8.5t33 -22.5t22.5 -33t8.5 -41t-8.5 -41t-22.5 -33.5t-33 -22.5t-41 -8t-41 8t-33.5 22.5t-22.5 33.5t-8 41zM891 -245q0 22 8 41t22.5 33t33.5 22.5t41 8.5t41 -8.5t33 -22.5t22.5 -33t8.5 -41t-8.5 -41t-22.5 -33.5
t-33 -22.5t-41 -8t-41 8t-33.5 22.5t-22.5 33.5t-8 41zM785 -132q0 -17 -7 -33.5t-19.5 -29t-30 -20t-37.5 -7.5t-37 8t-30 20.5t-20 28.5t-7 33q0 27 8.5 54t22 52.5t30.5 50t33 46.5q17 -23 34 -46.5t30.5 -49t21.5 -52.5t8 -55zM691 890q-90 0 -179 -28.5t-160.5 -88
t-115.5 -151.5t-44 -218q0 -56 13.5 -107.5t41 -91t71 -63.5t103.5 -24q50 0 87 21t62 52t39 66t18 63h128q3 -36 18 -72t41 -65t62.5 -47t83.5 -18q43 0 81.5 15.5t68 41.5t46.5 61t17 74q0 57 -19 100.5t-45 63.5q-17 -29 -50 -48t-76 -19q-28 0 -51.5 9.5t-41 26.5
t-27.5 40.5t-10 52.5q0 24 9.5 47t28 41t45 28.5t59.5 10.5q19 0 39 -3q-8 58 -43.5 101t-85 71.5t-106.5 43t-108 14.5zM64 890v128h988q98 0 144.5 41.5t46.5 105.5q0 18 -5 36t-13.5 33.5t-19 28.5t-22.5 22l66 83q28 -21 49 -47t34.5 -54t20 -57.5t6.5 -57.5
q0 -52 -17.5 -99.5t-54.5 -83.5t-95 -57.5t-139 -21.5h-21q54 -48 86 -109.5t32 -135.5v-16.5t-2 -17.5q33 -24 59.5 -57.5t45 -73t28.5 -82.5t10 -87q0 -75 -29 -134.5t-76 -101t-108.5 -63.5t-125.5 -22q-37 0 -75.5 10t-74 30.5t-64.5 52t-47 73.5q-42 -83 -114.5 -124.5
t-155.5 -41.5q-98 0 -165.5 39.5t-110.5 101t-62 136t-19 145.5q0 76 17 145.5t48.5 130t75.5 111.5t98 91h-239z" />
    <glyph glyph-name="kn_nna.nukta" horiz-adv-x="1483" 
d="M288 -245q0 22 8 41t22.5 33t33.5 22.5t41 8.5t41 -8.5t33 -22.5t22.5 -33t8.5 -41t-8.5 -41t-22.5 -33.5t-33 -22.5t-41 -8t-41 8t-33.5 22.5t-22.5 33.5t-8 41zM898 -245q0 22 8 41t22.5 33t33.5 22.5t41 8.5t41 -8.5t33 -22.5t22.5 -33t8.5 -41t-8.5 -41t-22.5 -33.5
t-33 -22.5t-41 -8t-41 8t-33.5 22.5t-22.5 33.5t-8 41zM972 900q-42 0 -78 -22.5t-63.5 -59.5t-45 -83.5t-23.5 -94.5h-128q-11 59 -31.5 107t-51.5 82t-73 52.5t-96 18.5q-24 0 -57 -7t-62.5 -25.5t-50 -50.5t-20.5 -82q0 -42 19.5 -72t48 -49.5t61 -28.5t58.5 -9v-128
q-33 0 -66.5 -12t-60 -33.5t-43.5 -52t-17 -66.5q0 -40 13.5 -71t37.5 -52t56.5 -32t70.5 -11q29 0 57.5 9t55 23t48.5 32.5t39 38.5l70 -100q-18 -22 -43 -45t-58 -42t-74.5 -31.5t-92.5 -12.5q-82 0 -140.5 26t-95.5 67t-54.5 92t-17.5 101q0 28 8.5 62t27 67t47.5 61.5
t70 45.5q-41 14 -70 38t-47.5 53.5t-27 63t-8.5 66.5q0 61 23 114.5t65 93.5t102 63.5t134 23.5q69 0 120.5 -19t89 -49t62 -66t38.5 -69q16 43 43 80.5t62 64.5t78 42.5t90 15.5q74 0 143.5 -29.5t123 -98t85.5 -179.5t32 -273q0 -118 -21 -204.5t-60.5 -142.5t-95.5 -83.5
t-126 -27.5q-57 0 -101 22t-73.5 57.5t-45 81t-15.5 92.5q0 53 17.5 100t49 82.5t76 56t98.5 20.5q45 0 88 -16.5t78 -55.5q3 39 3 75q0 109 -25 184.5t-63.5 122.5t-83 67.5t-83.5 20.5zM1062 374q-27 0 -49.5 -11.5t-38 -29.5t-24 -41t-8.5 -46q0 -55 31.5 -91.5
t85.5 -36.5q52 0 91.5 33.5t56.5 100.5q-11 40 -28.5 64t-37.5 37t-41 17t-38 4z" />
    <glyph glyph-name="kn_ta.nukta" horiz-adv-x="1414" 
d="M294 -245q0 22 8 41t22.5 33t33.5 22.5t41 8.5t41 -8.5t33 -22.5t22.5 -33t8.5 -41t-8.5 -41t-22.5 -33.5t-33 -22.5t-41 -8t-41 8t-33.5 22.5t-22.5 33.5t-8 41zM904 -245q0 22 8 41t22.5 33t33.5 22.5t41 8.5t41 -8.5t33 -22.5t22.5 -33t8.5 -41t-8.5 -41t-22.5 -33.5
t-33 -22.5t-41 -8t-41 8t-33.5 22.5t-22.5 33.5t-8 41zM762 668q-32 0 -71.5 -6t-74.5 -20.5t-59 -39t-24 -61.5q0 -47 44.5 -77t126.5 -30q44 0 77 16.5t55 44t33 65t11 79.5v9.5t-1 9.5q-53 10 -117 10zM64 890v128h915q98 0 144.5 41.5t46.5 105.5q0 18 -5 36t-13.5 33.5
t-19 28.5t-22.5 22l66 83q28 -21 49 -47t34.5 -54t20 -57.5t6.5 -57.5q0 -52 -17.5 -99.5t-54.5 -83.5t-95 -57.5t-139 -21.5h-100q20 -15 48.5 -51t49.5 -86q59 -20 112.5 -51t93.5 -73t63.5 -95.5t23.5 -116.5q0 -104 -48 -184t-127.5 -134t-181.5 -81.5t-210 -27.5
q-72 0 -147 11.5t-146.5 36t-134.5 64.5t-110 96.5t-74.5 132t-27.5 171.5q0 64 17 123t51 117l118 -52q-58 -98 -58 -208q0 -98 46 -167.5t119 -113t164.5 -63.5t182.5 -20q93 0 173 22t139.5 62.5t93 96t33.5 123.5q0 65 -36.5 114t-98.5 80q-1 -69 -26.5 -124.5
t-67.5 -94.5t-96.5 -60t-113.5 -21q-57 0 -109.5 15.5t-92.5 43.5t-63.5 68t-23.5 89q0 61 28.5 108.5t78 79.5t116 49t143.5 17q12 0 24.5 -0.5t25.5 -1.5q-24 32 -56.5 59t-70.5 47h-640z" />
    <glyph glyph-name="kn_tha.nukta" horiz-adv-x="1593" 
d="M319 -245q0 22 8 41t22.5 33t33.5 22.5t41 8.5t41 -8.5t33 -22.5t22.5 -33t8.5 -41t-8.5 -41t-22.5 -33.5t-33 -22.5t-41 -8t-41 8t-33.5 22.5t-22.5 33.5t-8 41zM929 -245q0 22 8 41t22.5 33t33.5 22.5t41 8.5t41 -8.5t33 -22.5t22.5 -33t8.5 -41t-8.5 -41t-22.5 -33.5
t-33 -22.5t-41 -8t-41 8t-33.5 22.5t-22.5 33.5t-8 41zM796 319q9 -27 26.5 -62t45.5 -66t66 -52t88 -21q51 0 95.5 20.5t77.5 61t52 101t19 139.5q0 75 -23.5 138t-64 113t-94 87.5t-113.5 62t-122 37t-120 12.5t-120 -12.5t-122 -37t-113.5 -62t-94 -87.5t-64 -113
t-23.5 -138q0 -79 19 -139.5t52 -101t77.5 -61t95.5 -20.5q49 0 87.5 21t66.5 52t45.5 66t26.5 62h134zM823 -132q0 -17 -7 -33.5t-19.5 -29t-30 -20t-37.5 -7.5t-37 8t-30 20.5t-20 28.5t-7 33q0 27 8.5 54t22 52.5t30.5 50t33 46.5q17 -23 34 -46.5t30.5 -49t21.5 -52.5
t8 -55zM618 517q0 22 8.5 41.5t23 34t34 23t42.5 8.5q22 0 42 -8.5t35 -23t23.5 -34t8.5 -41.5t-8.5 -41.5t-23.5 -34t-35 -23t-42 -8.5q-23 0 -42.5 8.5t-34 23t-23 34t-8.5 41.5zM64 890v128h1094q98 0 144.5 41.5t46.5 105.5q0 18 -5 36t-13.5 33.5t-19 28.5t-22.5 22
l66 83q28 -21 49 -47t34.5 -54t20 -57.5t6.5 -57.5q0 -52 -17.5 -99.5t-54.5 -83.5t-95 -57.5t-139 -21.5h-21q58 -38 105.5 -86.5t81 -106t51.5 -122.5t18 -136q0 -99 -27 -181.5t-75.5 -142t-117.5 -92.5t-153 -33q-35 0 -75 8.5t-79 29t-75 55t-63 85.5
q-27 -51 -63 -85.5t-75 -55t-79 -29t-75 -8.5q-84 0 -153 33t-117.5 92.5t-75.5 142t-27 181.5q0 71 18 136t51.5 122.5t80.5 106t105 86.5h-255z" />
    <glyph glyph-name="kn_da.nukta" horiz-adv-x="1593" 
d="M319 -245q0 22 8 41t22.5 33t33.5 22.5t41 8.5t41 -8.5t33 -22.5t22.5 -33t8.5 -41t-8.5 -41t-22.5 -33.5t-33 -22.5t-41 -8t-41 8t-33.5 22.5t-22.5 33.5t-8 41zM929 -245q0 22 8 41t22.5 33t33.5 22.5t41 8.5t41 -8.5t33 -22.5t22.5 -33t8.5 -41t-8.5 -41t-22.5 -33.5
t-33 -22.5t-41 -8t-41 8t-33.5 22.5t-22.5 33.5t-8 41zM796 319q9 -27 26.5 -62t45.5 -66t66 -52t88 -21q51 0 95.5 20.5t77.5 61t52 101t19 139.5q0 75 -23.5 138t-64 113t-94 87.5t-113.5 62t-122 37t-120 12.5t-120 -12.5t-122 -37t-113.5 -62t-94 -87.5t-64 -113
t-23.5 -138q0 -79 19 -139.5t52 -101t77.5 -61t95.5 -20.5q49 0 87.5 21t66.5 52t45.5 66t26.5 62h134zM64 890v128h1094q98 0 144.5 41.5t46.5 105.5q0 18 -5 36t-13.5 33.5t-19 28.5t-22.5 22l66 83q28 -21 49 -47t34.5 -54t20 -57.5t6.5 -57.5q0 -52 -17.5 -99.5
t-54.5 -83.5t-95 -57.5t-139 -21.5h-21q58 -38 105.5 -86.5t81 -106t51.5 -122.5t18 -136q0 -99 -27 -181.5t-75.5 -142t-117.5 -92.5t-153 -33q-35 0 -75 8.5t-79 29t-75 55t-63 85.5q-27 -51 -63 -85.5t-75 -55t-79 -29t-75 -8.5q-84 0 -153 33t-117.5 92.5t-75.5 142
t-27 181.5q0 71 18 136t51.5 122.5t80.5 106t105 86.5h-255z" />
    <glyph glyph-name="kn_dha.nukta" horiz-adv-x="1593" 
d="M319 -245q0 22 8 41t22.5 33t33.5 22.5t41 8.5t41 -8.5t33 -22.5t22.5 -33t8.5 -41t-8.5 -41t-22.5 -33.5t-33 -22.5t-41 -8t-41 8t-33.5 22.5t-22.5 33.5t-8 41zM929 -245q0 22 8 41t22.5 33t33.5 22.5t41 8.5t41 -8.5t33 -22.5t22.5 -33t8.5 -41t-8.5 -41t-22.5 -33.5
t-33 -22.5t-41 -8t-41 8t-33.5 22.5t-22.5 33.5t-8 41zM796 319q9 -27 26.5 -62t45.5 -66t66 -52t88 -21q51 0 95.5 20.5t77.5 61t52 101t19 139.5q0 75 -23.5 138t-64 113t-94 87.5t-113.5 62t-122 37t-120 12.5t-120 -12.5t-122 -37t-113.5 -62t-94 -87.5t-64 -113
t-23.5 -138q0 -79 19 -139.5t52 -101t77.5 -61t95.5 -20.5q49 0 87.5 21t66.5 52t45.5 66t26.5 62h134zM823 -132q0 -17 -7 -33.5t-19.5 -29t-30 -20t-37.5 -7.5t-37 8t-30 20.5t-20 28.5t-7 33q0 27 8.5 54t22 52.5t30.5 50t33 46.5q17 -23 34 -46.5t30.5 -49t21.5 -52.5
t8 -55zM64 890v128h1094q98 0 144.5 41.5t46.5 105.5q0 18 -5 36t-13.5 33.5t-19 28.5t-22.5 22l66 83q28 -21 49 -47t34.5 -54t20 -57.5t6.5 -57.5q0 -52 -17.5 -99.5t-54.5 -83.5t-95 -57.5t-139 -21.5h-21q58 -38 105.5 -86.5t81 -106t51.5 -122.5t18 -136
q0 -99 -27 -181.5t-75.5 -142t-117.5 -92.5t-153 -33q-35 0 -75 8.5t-79 29t-75 55t-63 85.5q-27 -51 -63 -85.5t-75 -55t-79 -29t-75 -8.5q-84 0 -153 33t-117.5 92.5t-75.5 142t-27 181.5q0 71 18 136t51.5 122.5t80.5 106t105 86.5h-255z" />
    <glyph glyph-name="kn_na.nukta" horiz-adv-x="1398" 
d="M310 -245q0 22 8 41t22.5 33t33.5 22.5t41 8.5t41 -8.5t33 -22.5t22.5 -33t8.5 -41t-8.5 -41t-22.5 -33.5t-33 -22.5t-41 -8t-41 8t-33.5 22.5t-22.5 33.5t-8 41zM920 -245q0 22 8 41t22.5 33t33.5 22.5t41 8.5t41 -8.5t33 -22.5t22.5 -33t8.5 -41t-8.5 -41t-22.5 -33.5
t-33 -22.5t-41 -8t-41 8t-33.5 22.5t-22.5 33.5t-8 41zM1269 448q0 -108 -28 -193t-79.5 -144t-124 -90t-160.5 -31q-65 0 -112 19.5t-82 52t-60.5 73.5t-47 84t-41.5 84t-45 73.5t-56.5 52t-76.5 19.5q-24 0 -52.5 -8.5t-53.5 -27.5t-41.5 -49t-16.5 -73q0 -31 15.5 -60.5
t41.5 -52t60 -36t70 -13.5l-32 -128q-54 0 -105 21.5t-90.5 60.5t-63.5 92t-24 116q0 69 23.5 122.5t63.5 89.5t92.5 55t110.5 19q61 0 107 -19.5t81.5 -52t63 -73.5t51.5 -84t46 -84t47 -73.5t55 -52t70 -19.5q68 0 118 27.5t83 73.5t49 105.5t16 123.5q0 39 -9.5 85
t-29.5 92.5t-50.5 91.5t-72 81t-95.5 60.5t-120 31.5h-700v128h899q98 0 144.5 41.5t46.5 105.5q0 18 -5 36t-13.5 33.5t-19 28.5t-22.5 22l66 83q28 -21 49 -47t34.5 -54t20 -57.5t6.5 -57.5q0 -43 -15 -85t-44 -76.5t-72 -59t-100 -31.5q64 -41 108 -98.5t71 -119.5
t39 -123.5t12 -110.5z" />
    <glyph glyph-name="kn_pa.nukta" horiz-adv-x="1414" 
d="M246 -245q0 22 8 41t22.5 33t33.5 22.5t41 8.5t41 -8.5t33 -22.5t22.5 -33t8.5 -41t-8.5 -41t-22.5 -33.5t-33 -22.5t-41 -8t-41 8t-33.5 22.5t-22.5 33.5t-8 41zM856 -245q0 22 8 41t22.5 33t33.5 22.5t41 8.5t41 -8.5t33 -22.5t22.5 -33t8.5 -41t-8.5 -41t-22.5 -33.5
t-33 -22.5t-41 -8t-41 8t-33.5 22.5t-22.5 33.5t-8 41zM1065 714q36 -30 75 -67.5t71.5 -84t53.5 -102t21 -121.5q0 -79 -24.5 -143.5t-70 -110t-110 -70.5t-144.5 -25q-50 0 -95 14t-82 38t-64 56t-40 69q-15 -41 -42.5 -73.5t-64.5 -55.5t-81.5 -35.5t-95.5 -12.5
q-55 0 -110 18t-99 56t-71.5 97t-27.5 142q0 74 27.5 128t70 89.5t95 52.5t102.5 17l-16 -128q-21 -3 -47 -12t-49.5 -27.5t-39 -49t-15.5 -76.5t16.5 -80t42.5 -56t58.5 -32.5t64.5 -10.5q54 0 93 20.5t65.5 53.5t41 75.5t18.5 86.5h128q3 -55 24 -98.5t52 -74t69.5 -47
t76.5 -16.5q45 0 84.5 14t69 42.5t46 70.5t16.5 99q0 46 -16.5 86.5t-42.5 74t-57 61t-59 48.5zM64 890v128h870q98 0 144.5 41.5t46.5 105.5q0 18 -5 36t-13.5 33.5t-19 28.5t-22.5 22l66 83q28 -21 49 -47t34.5 -54t20 -57.5t6.5 -57.5q0 -52 -17.5 -99.5t-54.5 -83.5
t-95 -57.5t-139 -21.5h-871zM548 630q0 22 8.5 41.5t23 34t34 23t42.5 8.5q22 0 42 -8.5t35 -23t23.5 -34t8.5 -41.5t-8.5 -41.5t-23.5 -34t-35 -23t-42 -8.5q-23 0 -42.5 8.5t-34 23t-23 34t-8.5 41.5z" />
    </font>
</defs>
</svg>
